<svg width="50" height="50" viewBox="0 0 50 50" fill="none" xmlns="http://www.w3.org/2000/svg">
<mask id="mask0_30_3088" style="mask-type:alpha" maskUnits="userSpaceOnUse" x="0" y="0" width="50" height="50">
<circle cx="25" cy="25" r="25" fill="#C4C4C4"/>
</mask>
<g mask="url(#mask0_30_3088)">
<path d="M0 25C0 11.193 11.193 0 25 0C38.807 0 50 11.193 50 25C48.9131 25 25 28.2608 25 28.2608L0 25Z" fill="#F93939"/>
<path d="M50 25C50 38.807 38.807 50 25 50C11.193 50 0 38.807 0 25" fill="#02070D"/>
<path d="M21.5721 19.8841L23.6914 21.4222L22.8838 23.9132L25.0016 22.3726L27.1211 23.9107L26.3103 21.4204L28.4279 19.88L25.8093 19.8816L24.9984 17.3914L24.1907 19.8824L21.5721 19.8841Z" fill="#FFDA2C"/>
<path d="M31.25 14.1748C29.28 13.0374 27.126 12.5006 25 12.5043V15.7644C26.5714 15.7616 28.1634 16.1581 29.6195 16.9989C34.0314 19.5462 35.5485 25.2079 33.0012 29.6198C30.454 34.0317 24.7924 35.5488 20.3804 33.0015C19.095 32.2595 18.0574 31.2518 17.2926 30.089L14.5703 31.8863C15.6052 33.4595 17.011 34.8215 18.75 35.8254C24.7191 39.2717 32.379 37.2192 35.8252 31.2501C39.2715 25.2809 37.2191 17.6211 31.25 14.1748Z" fill="#FFDA2C"/>
<path d="M17.792 22.8262C16.9277 24.4062 17.508 26.3877 19.0879 27.2519L29.6786 33.0391C28.9584 34.3556 29.3409 35.958 30.6574 36.6782L33.5183 38.2431C34.8348 38.9635 36.4862 38.4799 37.2064 37.1633L38.7714 34.3025L17.792 22.8262Z" fill="#FFDA2C"/>
</g>
</svg>
