<svg width="50" height="50" viewBox="0 0 50 50" fill="none" xmlns="http://www.w3.org/2000/svg">
<g clip-path="url(#clip0_16_3678)">
<path d="M1.18056 17.3912C0.41474 19.7905 -6.08627e-06 22.3465 9.157e-05 24.9999C-6.08627e-06 27.6531 0.41474 30.2092 1.18066 32.6086L25.0001 33.6957L48.8194 32.6086C49.5851 30.2092 50 27.653 50 25C50 22.3467 49.5852 19.7905 48.8194 17.3912L25 16.3043L1.18056 17.3912Z" fill="#F4F5F7"/>
<path d="M50 25C50 23.5169 49.8701 22.0642 49.6224 20.6521H0.377734C0.129883 22.0642 0 23.5167 0 24.9999C0 26.4831 0.12998 27.9356 0.377734 29.3478H49.6224C49.87 27.9355 50 26.483 50 25Z" fill="black"/>
<path d="M25.0001 49.9999C36.154 49.9999 45.6003 42.6949 48.8194 32.6085H1.18066C4.3999 42.6948 13.8463 49.9997 25.0001 49.9999Z" fill="#338AF3"/>
<path d="M25.0001 9.9186e-05C13.8463 9.9186e-05 4.40001 7.30508 1.18057 17.3912L48.8193 17.3913C45.6002 7.30508 36.1538 -9.61264e-05 25.0001 9.9186e-05Z" fill="#338AF3"/>
</g>
<defs>
<clipPath id="clip0_16_3678">
<rect width="50" height="50" fill="white"/>
</clipPath>
</defs>
</svg>
