<svg width="14" height="14" viewBox="0 0 14 14" fill="none" xmlns="http://www.w3.org/2000/svg">
<path d="M7.35 3.85C7.35 3.6567 7.1933 3.5 7 3.5C6.8067 3.5 6.65 3.6567 6.65 3.85V7C6.65 7.09283 6.68687 7.18185 6.75251 7.24749L9.90251 10.3975C10.0392 10.5342 10.2608 10.5342 10.3975 10.3975C10.5342 10.2608 10.5342 10.0392 10.3975 9.90251L7.35 6.85503V3.85Z" fill="#00008C"/>
<path fill-rule="evenodd" clip-rule="evenodd" d="M7 0C3.13401 0 0 3.13401 0 7C0 10.866 3.13401 14 7 14C10.866 14 14 10.866 14 7C14 3.13401 10.866 0 7 0ZM0.709558 6.65C0.884823 3.44926 3.44926 0.884822 6.65 0.709558V1.39998C6.65 1.59328 6.8067 1.74998 7 1.74998C7.1933 1.74998 7.35 1.59328 7.35 1.39998V0.709558C10.5507 0.884822 13.1152 3.44926 13.2904 6.65H12.6C12.4067 6.65 12.25 6.8067 12.25 7C12.25 7.1933 12.4067 7.35 12.6 7.35H13.2904C13.1152 10.5507 10.5507 13.1152 7.35 13.2904V12.6C7.35 12.4067 7.1933 12.25 7 12.25C6.8067 12.25 6.65 12.4067 6.65 12.6V13.2904C3.44926 13.1152 0.884823 10.5507 0.709558 7.35H1.4C1.5933 7.35 1.75 7.1933 1.75 7C1.75 6.8067 1.5933 6.65 1.4 6.65H0.709558Z" fill="#00008C"/>
</svg>
