<svg width="50" height="50" viewBox="0 0 50 50" fill="none" xmlns="http://www.w3.org/2000/svg">
<g clip-path="url(#clip0_30_3129)">
<path d="M47.224 13.5367C46.0688 11.2985 44.5547 9.19774 42.6785 7.32157C40.8022 5.4453 38.7014 3.93114 36.4633 2.77606L18.8511 18.8509L2.77617 36.4631C3.93134 38.7013 5.4455 40.8021 7.32168 42.6783C9.19785 44.5545 11.2987 46.0686 13.5368 47.2238L31.149 31.1489L47.224 13.5367Z" fill="#FFDA2C"/>
<path d="M7.32167 42.6784C8.3704 43.7272 9.48945 44.6625 10.6632 45.486L45.4858 10.6632C44.6625 9.48948 43.7271 8.37043 42.6784 7.3217C41.6296 6.27297 40.5106 5.33772 39.3369 4.51428L4.51425 39.3369C5.33759 40.5105 6.27284 41.6297 7.32167 42.6784Z" fill="#F93939"/>
<path d="M7.32168 7.32147C-0.565727 15.2089 -2.07989 27.0544 2.77617 36.4631L36.4633 2.77607C27.0545 -2.07989 15.209 -0.565535 7.32168 7.32147Z" fill="#3A99FF"/>
<path d="M42.6784 42.6784C50.5657 34.7911 52.0798 22.9456 47.224 13.5369L13.5369 47.224C22.9456 52.0799 34.7912 50.5658 42.6784 42.6784Z" fill="#3A99FF"/>
<path d="M13.3228 7.60791L14.6719 11.76H19.0375L15.5057 14.326L16.8547 18.4779L13.3228 15.9118L9.79081 18.4779L11.14 14.326L7.608 11.76H11.9736L13.3228 7.60791Z" fill="#FFDA2C"/>
</g>
<defs>
<clipPath id="clip0_30_3129">
<rect width="50" height="50" fill="white"/>
</clipPath>
</defs>
</svg>
