<svg width="345" height="245" viewBox="0 0 345 245" fill="none" xmlns="http://www.w3.org/2000/svg">
<path d="M1 16C1 7.16345 8.16344 0 17 0H329C337.837 0 345 7.16344 345 16V245H1V16Z" fill="#F4F5F7"/>
<mask id="mask0_30_2419" style="mask-type:alpha" maskUnits="userSpaceOnUse" x="0" y="0" width="344" height="239">
<path d="M0 16C0 7.16345 7.16344 0 16 0H328C336.837 0 344 7.16344 344 16V239H0V16Z" fill="#F4F5F7"/>
</mask>
<g mask="url(#mask0_30_2419)">
<g clip-path="url(#clip0_30_2419)">
<rect width="345" height="245" transform="translate(-0.958496)" fill="#F4F5F7"/>
<path d="M321.752 -0.0503197L316.863 -9.58284L333.484 -16.1823L334.706 -17.4044L337.151 -29.1367V-31.0921L333.973 -35.2473L334.218 -38.4248L335.195 -40.3802L335.44 -44.0466L337.884 -44.7798V-45.5131L336.906 -46.2464V-47.4685L336.417 -47.9573V-50.4016L337.395 -51.3793L338.128 -49.9127H338.617L339.35 -50.4016L340.084 -50.8904L342.283 -46.9796L343.994 -45.0243L346.683 -43.5577L354.749 -41.6023L357.927 -37.4471V-36.9583L359.882 -34.7585L361.837 -34.2696V-31.3365L361.104 -29.87L359.638 -26.9369L355.971 -22.7817L355.727 -21.9185V-21.0707L354.505 -19.1154H354.016L353.527 -19.6042L353.283 -20.5819H352.549L351.083 -18.3821V-15.6934L350.594 -15.2046V-13.4936L351.083 -13.0048V-11.7827L351.572 -11.2938V-9.82726L351.083 -9.33842H349.127L347.416 -8.84957L345.461 -7.38303L344.728 -3.9611L343.261 -2.49455H340.328L338.862 -2.00571L336.906 0.194107V2.88277L335.44 4.34931H334.218L333.729 3.86046H330.796L326.64 6.3047H324.685L323.707 5.327L322.485 1.90507L321.752 1.41623V-0.0503197Z" fill="#CED3D9" stroke="white"/>
<path d="M261.868 12.1708V7.77119H262.846L264.557 5.8158V1.17175L265.29 0.682905H266.757L267.979 1.6606H269.445L270.179 1.17175H272.623L283.622 6.54907V13.6374H284.355L284.844 11.9264L294.377 -0.783636L295.843 -3.22787L298.043 -4.93884L307.575 -7.38307L316.864 -9.58289L317.597 -8.11634L321.752 -0.0503654V1.41618L322.485 1.90502L323.707 5.32695L324.685 6.30465L323.219 7.28234L321.752 7.77119L320.774 8.26004L319.308 9.72658V13.3929L318.574 14.1262L315.641 15.8372L311.975 16.5704L308.309 18.5258L307.087 19.0147L302.687 19.9924L300.487 22.1922L299.021 23.9031L297.554 24.8808H295.11L294.865 24.6364L294.377 24.392L291.199 26.8362L289.244 27.8139L287.044 28.7916H282.4L281.178 29.2805L277.022 32.2136L276.534 32.9468L274.089 33.1912L272.623 34.1689H269.934L268.957 33.6801H266.757V32.2136L265.535 30.2582V26.5918L264.557 24.8808V23.1699H264.068L263.335 19.2591L263.09 18.7703V17.5481L261.135 15.8372H262.113V14.6151L261.624 14.1262V12.6597L261.868 12.1708Z" fill="#CED3D9" stroke="white"/>
<path d="M209.806 -72.3997L208.828 -71.9108L210.539 -76.3104V-81.1989H211.761L214.45 -80.7101H215.917L217.139 -80.2212L218.361 -80.7101L222.272 -85.5985H225.205L225.938 -87.7984L227.649 -89.2649V-89.9982L222.76 -94.8866L222.272 -95.8643L222.76 -96.5976L225.938 -97.8197L232.048 -99.5307L234.493 -100.753L240.603 -99.5307L246.225 -96.3532L250.869 -93.6645L256.98 -89.2649L268.223 -80.4656L276.778 -79.7324L277.756 -79.2435H278.489C278.57 -79.4065 278.782 -79.7324 278.978 -79.7324H280.444L281.666 -79.2435H284.111L286.31 -75.8216H290.71L291.199 -74.3551L293.399 -72.1552L293.888 -71.1776L293.399 -70.6887V-69.9554L294.376 -68.9777H295.354L298.287 -65.8002L302.198 -61.1562V-59.4452L301.709 -58.7119L302.931 -56.2677L304.642 -54.0679L306.353 -50.4015L308.064 -48.4462H309.775L310.508 -48.935V-46.7352H311.486L311.975 -45.2687L318.086 -37.4471L319.552 -36.9582L332.018 -35.0029H333.484L333.973 -35.4917L337.151 -31.0921V-29.1367L334.706 -17.4044L333.484 -16.1822L330.307 -14.9601L316.863 -9.5828L309.775 -7.87184L302.442 -6.16087L298.043 -4.93876L295.843 -3.22779L294.376 -0.783554L288.755 6.54915L284.844 11.9265L284.355 13.6374H283.622V6.54915L280.933 5.32703L272.623 1.17183H270.179L269.445 1.66068H267.979L266.757 0.682983H265.29L264.557 1.17183V5.81588L262.846 7.77127H261.868V6.79358L260.646 4.83819L259.424 3.12722L258.691 1.17183L255.758 -1.76125L254.047 -4.20549L253.313 -5.91645L251.847 -7.13857V-9.09396L248.669 -15.449H247.936L244.758 -18.6265H243.048L242.559 -19.3597L240.114 -22.7817L238.648 -24.9815V-27.4257L237.67 -29.3811V-31.8254L238.159 -32.0698V-33.7807L237.426 -35.4917L236.448 -37.6915L234.493 -41.6023L231.071 -45.0242L230.093 -46.0019H228.627V-46.7352H227.649V-47.9573L227.16 -48.4462L225.693 -49.9127V-50.646L226.182 -50.8904L226.671 -51.3792L226.182 -52.6014L225.449 -53.8235L223.494 -55.7789L222.516 -57.001V-57.9787L220.561 -60.4229L219.338 -62.8671L216.405 -66.7779L215.183 -68.9777L213.961 -70.9331L212.739 -72.3997L211.761 -73.1329H210.539L209.806 -72.3997Z" fill="#CED3D9" stroke="white"/>
<path d="M266.023 43.4571L265.779 41.7462L268.712 44.6792L269.934 46.8791L271.645 48.59L273.356 49.8121H276.045L277.267 49.3233L281.178 46.3902H282.644L283.133 47.1235H285.088H285.822H286.799L287.533 46.6346L290.466 44.4348H292.666L293.399 44.9237H294.865L297.31 43.4571L299.998 43.7015L300.243 43.946H301.22L301.709 43.4571H302.687L305.376 41.9906H306.842H308.553L309.531 40.2796L310.753 39.0575H313.686L314.664 39.7908V40.2796L314.419 41.9906L313.93 42.9683V44.4348L314.419 45.1681V48.59L315.153 48.8344L316.13 49.8121L312.953 50.301L312.708 55.4339L312.219 57.3893L310.02 61.3L309.042 64.4776L306.842 66.4329L306.353 69.6104L302.931 76.2099L301.709 80.8539L298.776 85.7424L296.821 88.4311L295.354 91.853L292.421 95.0305L288.022 100.652L283.866 104.563L279.956 108.474L276.289 110.185L271.89 114.34L267.979 118.251L262.357 125.339L260.646 127.783L259.424 128.272L258.691 130.716L257.224 133.161L253.313 126.806V102.363L256.002 98.6969L258.446 94.5417L260.646 92.0974H263.824L267.49 88.9199L270.667 87.4534H276.778H277.756L279.222 85.7424L282.155 81.8316L288.266 74.4989L292.666 69.366L295.354 66.4329H289.977L272.134 59.8335L267.734 56.4116L265.779 53.2341L263.09 49.5677V47.3679L264.068 45.4125L265.046 43.4571H266.023Z" fill="#CED3D9" stroke="white"/>
<path d="M266.512 39.0576L267.001 38.5687V37.1022L266.512 36.6133L265.535 34.4135L264.801 33.9247L262.602 36.1245L260.891 35.1468L260.402 36.1245L257.224 40.2797V44.6793L257.957 45.9014H258.691L259.913 45.4126L261.868 44.6793L263.824 45.4126L265.046 43.4572L266.023 43.2128V41.2574H265.535H264.801H263.824L263.09 41.7462V41.2574L263.824 40.2797L265.535 39.5464L266.512 39.0576Z" fill="#CED3D9" stroke="white"/>
<path d="M262.601 36.1242L260.89 35.1465L257.957 32.2134L253.558 27.8138L250.869 24.3919L247.203 21.7032H241.092L239.87 20.4811L238.648 21.7032H236.448L232.537 18.5257L232.782 19.7478L230.826 23.903L229.115 21.7032L227.893 22.6809H224.716V21.7032L224.227 18.2813L223.983 17.0592L225.205 14.6149L226.182 11.6819L227.16 3.8603H229.604L230.338 1.90491L234.248 -0.294899L235.226 -1.27259L236.204 -2.73914H236.693L238.159 1.17164L239.626 4.34915L241.825 12.4151L244.514 17.548V15.1038L244.759 14.6149L245.981 15.3482L246.714 18.0369L247.936 18.5257V18.0369H249.403L250.38 19.7478L253.313 20.7255L255.513 23.903L259.424 27.5694L260.646 29.2804L263.824 32.7023H265.046V33.9244L262.601 36.1242Z" fill="#CED3D9" stroke="white"/>
<path d="M147.967 12.6596L148.7 13.1484L148.263 -13.4937L124.747 -27.1815L103.726 -39.1582L101.526 -40.3803L100.06 -40.6248L98.5932 -40.3803L93.9492 -37.4472L94.6825 -33.0476L95.1713 -29.1368L95.4157 -26.937L97.3711 -24.2484V-21.8041L99.8153 -19.8487V-18.3822L98.3488 -15.6935L97.3711 -0.539288L96.6378 4.34919L95.1713 7.28227L91.5049 11.4375L88.3274 15.5927L87.3497 19.0146L85.1499 21.9477L85.8832 26.3473L88.3274 30.5025L89.3051 30.9914H91.0161L91.7494 33.1912L93.4603 34.6577V36.6131L94.9269 39.0573V42.4793L94.438 45.4124L95.4157 49.3231L98.5932 52.0118L98.3488 52.7451H94.438L91.7494 52.5006L91.0161 52.2562H89.794L88.3274 53.9672V54.9449L89.794 57.1447L95.4157 62.7664L97.86 67.8993L97.6155 69.6103L99.8153 70.0991L102.504 68.6326L103.971 66.9216L104.215 68.1437L105.682 69.6103L108.126 67.6549L110.081 66.6772L116.192 65.9439L119.125 62.2776V61.5443L118.147 60.5666L119.125 59.5889L123.524 59.3445L126.946 58.3668L129.391 56.9003L131.346 54.456L135.501 50.3008L135.99 47.8566L139.168 46.1456L142.345 45.9012L143.078 43.457L140.39 41.2571V40.5239L140.879 39.7906V38.8129L139.901 38.3241V36.3687L139.412 34.1689L138.923 33.68H138.434V34.1689H136.479L135.99 33.4356V32.2135L138.434 29.036L137.457 27.5694V25.8585L139.901 24.3919L140.39 23.4142L139.412 22.9254V20.7256L140.39 19.9923L142.345 16.8148L142.834 13.1484L147.967 12.6596Z" fill="#CED3D9" stroke="white"/>
<path d="M272.378 298.635L270.667 297.169H269.201L268.223 296.68L266.512 294.725L266.023 292.28L264.557 289.859V285.925L265.534 284.459V283.97L264.557 282.015L263.09 280.059V275.171L262.601 274.682L263.579 272.726L264.557 271.26V270.038L264.801 269.305L266.023 269.06L266.268 268.571L267.001 266.371L269.445 262.461L270.423 260.994L270.912 260.417V257.572V257.083L271.401 256.106L270.423 255.128V252.195L268.956 249.228V244.862L268.468 244.373V242.662L270.179 239.485L271.889 237.041V234.108L272.378 233.619H274.578L275.8 233.13L276.289 232.641L276.778 232.152L277.267 232.641L278 232.397L279.955 231.419L281.666 231.174V230.686H283.133V231.419L283.622 232.152H284.355L283.622 231.174V229.463L285.333 228.486L286.555 227.264H287.533L288.021 228.241L288.266 228.73L289.244 227.997L288.266 227.508V226.53L289.244 225.308L290.221 223.842L290.955 223.353V225.308L292.421 223.353H293.888L292.421 222.375V220.909L293.399 219.442H294.376V218.464L293.888 217.731V215.776L294.376 215.287L295.843 216.265H296.332L297.798 214.554L299.998 211.865L300.487 209.176L299.265 208.687L299.998 207.221L301.709 205.021L302.687 205.51L306.842 213.576V216.265L307.82 223.353L308.797 226.53V229.463L307.82 231.908H305.864V230.197L304.642 228.73L303.42 230.686L304.642 233.13V237.529C304.153 238.018 303.078 239.045 302.687 239.24C302.296 239.436 302.198 240.788 302.198 241.44V244.618L301.709 247.062L298.532 255.617L296.332 262.216L285.822 292.769L284.844 295.213L282.644 296.191H279.711L278.978 296.68L275.556 298.635H272.378Z" fill="#CED3D9" stroke="white"/>
<path d="M219.339 220.42L215.917 216.753H215.672L215.917 218.464L217.139 220.175V220.909L216.161 220.664L215.672 220.175L215.428 218.464H214.939L214.45 219.442L213.717 220.42L212.984 219.442L212.495 217.975L213.228 217.487V216.509L212.984 216.02H212.006L211.761 214.309V212.109V209.909L211.028 208.687L209.806 206.976V205.999L211.028 203.799L211.761 201.355V196.711L211.028 195.977L211.761 195V194.022L211.028 193.044L209.806 191.333V189.133L209.317 188.645H208.828L207.851 188.156H207.362L204.184 186.689H203.94H203.451L203.695 187.667L204.673 188.4L205.406 189.133L206.14 189.378V191.333L206.629 191.578L207.851 193.533V195.488L207.362 195.977L206.384 196.711H205.406V197.444L205.895 198.422V199.644V200.621V202.332L205.406 203.31V203.799V205.265L205.895 206.732L206.873 207.465L205.895 207.954L204.184 208.687L203.207 209.421V212.598V213.576L201.74 215.042L201.251 215.776L201.74 216.753L203.207 218.464H204.918L205.895 220.909L207.362 222.375H208.584L209.806 221.886H210.784H211.761L212.984 223.108L212.495 226.286L212.25 227.752L210.784 230.441V233.13L212.495 235.818L215.183 238.263L215.428 239.729L216.161 240.462L216.894 239.729V238.263L216.161 236.552L216.894 234.596L217.383 233.619H219.339L220.072 233.13L220.561 231.908V225.797L221.05 225.308V223.108L220.072 221.886L219.339 220.42Z" fill="#CED3D9" stroke="white"/>
<path d="M198.074 307.679H195.385V302.302L195.141 301.568H194.407L194.163 300.102H194.652L195.141 298.146L194.652 296.68L194.896 289.836L193.674 286.414L192.696 284.459L192.452 281.77L191.474 278.348L190.741 276.637L191.963 276.148L193.185 275.171L194.407 272.726L195.629 271.749L198.074 269.549L199.051 266.86V264.66L199.296 264.172L200.762 262.705C200.958 262.509 201.496 261.157 201.74 260.505V258.061L200.762 256.35L201.496 255.128V254.15L201.007 253.661V252.439L201.251 252.195L201.984 251.706V250.239L202.473 249.751V245.351L202.962 244.862V244.129L202.473 243.884V240.462L202.229 239.974L201.984 238.996L202.473 238.507V237.529L201.496 236.796L199.296 235.574H197.096L196.118 234.841L194.652 233.863L192.452 232.641H188.786H187.808L187.319 231.174L187.563 228.73L186.83 227.997L186.341 226.286V225.553L187.808 225.064L190.008 223.842L196.852 221.886L200.518 220.175L202.229 219.686L203.207 218.709H204.673L205.651 221.153L207.362 222.62H208.584L209.806 222.131H211.517L212.739 223.353L212.495 224.819L212.006 227.752L210.539 230.441V233.374L212.25 236.063L213.961 237.529L214.694 238.263L215.183 239.974L215.917 240.707H216.405L217.139 239.974V238.263L216.405 236.552L217.383 233.863L217.628 233.619H219.339L220.072 233.13L220.561 231.908V226.041L221.049 225.308V223.108L220.072 221.886L219.339 220.175L217.628 218.22L215.917 216.265L214.694 215.287V212.109L214.206 211.62L214.694 211.132V208.687L214.206 207.954V205.999L214.939 205.265L215.672 203.554L215.917 202.821V201.599L216.65 202.088L218.605 202.332L219.827 201.599L221.049 200.866L221.538 200.621L221.783 201.599L223.005 202.332L224.471 203.066L225.449 203.31L225.938 202.821L227.16 201.844H228.138L229.36 202.821H230.093H231.56L234.004 199.644L234.737 199.399L236.937 200.866L239.87 199.155H241.581L243.292 198.177L245.003 197.199L246.958 196.466L248.181 195.489L249.158 194.022L250.38 195.244V195.977L249.891 196.466V198.666L248.914 199.888L248.669 200.133L249.403 200.621V208.199L249.891 208.687V209.91L249.403 210.643V211.376L249.891 211.62V213.087L249.403 214.065V215.042L249.891 215.531V218.464L249.403 218.953V219.442L250.38 220.175V220.909L249.891 221.397V221.886H250.625V223.842L250.136 224.331L249.891 224.819L250.38 225.308L249.891 225.797L249.403 226.286V227.752L249.158 228.486L247.936 230.197L246.958 231.419L246.225 233.13L245.003 234.596H244.514V235.085L244.025 235.574L242.803 236.796L242.07 237.041L239.137 239.729L236.693 240.218L233.271 241.929H232.782L231.804 242.907L231.071 243.396H229.849L227.404 245.84H226.427L226.182 247.551L224.227 249.506L223.005 250.973L222.516 251.462V252.684H220.561L220.072 253.172H219.583L217.139 255.617V256.106L214.694 258.305L214.45 259.039L212.739 258.794V260.505L212.25 261.238V263.438L212.739 263.927L213.717 264.905L214.45 266.127L214.694 267.105L214.206 267.838V268.327L215.183 271.749L215.672 272.726C215.754 273.215 215.917 274.242 215.917 274.437C215.917 274.633 215.754 275.659 215.672 276.148L216.161 277.859L216.894 281.281L216.405 283.481L215.183 286.414L214.939 286.903L215.917 286.414L216.65 287.147V287.881L215.672 289.347L214.694 291.303L213.717 292.28L212.25 293.014L211.028 293.502L207.117 294.725L205.651 295.458L203.94 296.191L202.473 297.169L200.518 298.146L199.54 299.613L198.318 301.568L197.585 302.057H198.074L200.029 303.524V307.435L199.54 307.923L198.074 307.679Z" fill="#CED3D9" stroke="white"/>
<path d="M99.5709 318.189L102.015 319.9H102.26L103.482 318.678L103.971 316.967L105.193 316.234L105.926 316.478L106.904 317.211L107.392 319.167L108.37 320.145L109.837 321.122L111.792 321.856H113.259L113.503 321.367H116.192L117.414 322.1H118.391V321.611L119.125 320.633L120.836 319.167L122.791 318.434L123.28 314.895V293.747L123.524 293.502L123.769 292.525L123.524 274.682L124.013 273.46H125.235L127.191 274.193H128.902L130.124 273.46V248.528H131.835L141.123 246.817L141.856 246.329H144.056L146.256 249.751L149.678 246.329H150.9L151.878 246.817L152.366 245.84L154.077 244.862H155.544V244.129L154.077 242.907H150.9L147.233 243.396L134.279 246.329H132.812L131.835 245.84H130.857L130.124 246.329H127.924L126.213 245.351H121.325L120.347 244.862H117.414L114.481 242.173H113.014H88.3274L84.4166 239.24H82.4612L80.2614 240.707H77.5728H76.1062L74.3952 241.44V244.862L75.3729 248.284L76.1062 249.506L79.0393 252.928L80.7503 255.861L82.4612 261.238L84.661 266.371L86.1276 269.304L88.3274 272.726L91.0161 277.37V290.08L92.727 293.014V297.658V298.88V301.324L93.4603 302.057V304.501L94.438 305.479V308.168L95.6601 309.634V311.345L97.1266 314.767L99.5709 318.189Z" fill="#CED3D9" stroke="white"/>
<path d="M156.522 244.862H155.788L156.033 245.107V245.595L156.277 246.573L158.721 250.973L159.944 253.173L161.166 256.839L164.099 259.528L166.543 260.505L167.765 261.483V263.438H169.721L170.698 264.416V265.149L170.209 265.394V266.616L171.187 269.549L171.431 270.527L173.631 271.749H175.098L176.32 271.993L178.031 272.726V273.704L178.52 274.193L178.764 275.171H182.431L184.386 276.148L186.586 276.393L187.563 276.148H189.519L190.008 276.393L190.497 276.637H190.741L191.963 276.148L193.185 275.171L194.407 272.726L195.629 271.749L198.074 269.549L199.051 266.86V264.66L199.296 264.172L200.762 262.705L201.251 261.727L201.74 260.505V259.528V258.061L200.762 256.35L201.496 255.128V254.15L201.007 253.661V252.439L201.251 252.195L201.984 251.706V250.239L202.473 249.751V247.062V245.351L202.962 244.862V244.129L202.473 243.884V241.196V240.463L202.229 239.974L201.984 238.996L202.473 238.507V237.529L201.496 236.796L199.296 235.574H197.096L192.452 232.641H187.808L187.319 231.174V230.197H185.608L185.119 229.708H183.897L179.009 231.663L178.031 232.641V233.863L177.542 235.818L177.053 236.552H176.32L175.587 237.041L174.853 237.529L173.876 238.018L172.654 238.507L171.92 238.996L171.187 239.485L170.698 240.463V240.951L169.721 241.929L169.232 242.418V242.907L168.743 243.396V243.884L166.299 246.329L165.81 246.818H163.854L162.877 245.84H161.41L160.921 246.084L159.944 246.329L158.966 245.351H157.988H157.01L156.522 244.862Z" fill="#CED3D9" stroke="white"/>
<path d="M139.168 46.1458L142.345 45.9014V46.1458L143.812 47.8568L145.523 50.301L147.234 53.4785V56.9004L146.5 58.367V59.5891V61.0556H148.944L150.655 61.7889V63.2554L150.411 63.7443L151.144 64.9664H153.833L156.766 67.1662L157.255 68.1439L156.522 69.1216L157.01 70.0993L161.654 73.0324L162.143 74.4989L163.61 75.4766V76.6987L163.365 76.9432L163.61 77.6764L164.588 78.4097L164.832 79.3874L165.81 80.3651L168.01 81.3428L169.232 82.5649V84.0315V85.0091L167.276 86.4757H164.343L163.365 85.7424H160.921L159.944 85.0091L158.966 84.7647L157.988 85.0091L157.744 85.7424L157.01 86.7201L156.033 87.4534H153.589L152.855 86.7201L152.122 86.4757L151.878 86.9645L149.678 88.1867L147.967 88.6755L147.234 89.4088L146.011 89.6532H144.789L144.056 88.4311H142.834L142.101 88.9199L140.39 92.5863L139.901 93.3195L139.168 93.564L137.457 92.3419H136.479L136.234 91.853H135.501L135.012 92.3419H134.523L134.279 91.853H132.324L131.346 91.1197H128.413L128.168 89.8976L125.969 87.9422L124.991 87.209L123.524 85.9868H122.058L121.325 86.2313L120.591 86.9645C120.184 87.2904 119.369 87.9911 119.369 88.1867C119.369 88.3822 118.554 89.0829 118.147 89.4088L117.169 91.1197L116.192 91.6086L116.681 93.0751V96.9859L116.192 97.2303L115.703 96.7415H114.725L114.236 97.2303H112.281L110.57 96.2526H108.615L107.148 97.2303L104.948 97.4748L103.726 98.208L103.971 102.119L103.237 103.341L101.771 106.274V104.074L101.282 103.096V101.386L100.06 100.408L99.0821 100.163L97.3711 97.9636L95.6601 95.7638V93.564L94.6824 91.853L92.4826 88.9199L92.727 86.4757L91.7493 84.7647L92.2382 84.0315V81.3428L90.7717 79.6318L93.4603 77.6764L93.9492 76.2099L95.4157 73.7657V72.2991L97.3711 70.3437L97.6155 69.6105L99.8153 70.0993L102.504 68.6328L103.971 66.9218L104.215 68.1439L105.681 69.6105L108.126 67.6551L110.081 66.6774L116.192 65.9441L119.125 62.2778V61.5445L118.147 60.5668L119.125 59.5891L123.524 59.3447L126.946 58.367L129.391 56.9004L131.346 54.4562L131.59 54.2118L135.501 50.301L135.99 47.8568L139.168 46.1458Z" fill="#CED3D9" stroke="white"/>
<path d="M236.204 -3.71661V-2.98334L234.493 -0.539104L230.338 1.90513L229.604 3.86052H227.16L226.671 7.03802L226.182 11.6821L225.205 14.3707L223.983 17.0594L224.716 22.6811L224.227 26.3475L223.983 28.5473L222.761 29.525V33.4358L220.805 33.9246L219.827 34.6579L219.094 35.88L216.894 39.7908C216.65 40.6055 216.161 42.2839 216.161 42.4794C216.161 42.675 215.835 44.8422 215.672 45.9014L214.939 47.6123L214.206 46.6347L213.472 46.3902L212.25 48.3456L211.761 51.0343C211.598 51.5231 211.273 52.5986 211.273 52.9897C211.273 53.3807 210.784 54.4562 210.539 54.9451V58.1226H211.273L211.028 62.7666L210.05 63.4999H208.34L207.362 63.011L205.651 63.4999L204.918 64.722L204.429 65.9441V67.1662L204.918 67.6551L206.14 68.3884L207.362 68.6328H208.34L210.05 69.8549L211.761 72.788L213.228 73.7657L215.183 75.9655L215.917 78.8986C215.998 79.2245 216.21 79.9251 216.405 80.1207C216.601 80.3162 216.813 81.5058 216.894 82.0761L218.605 84.5203H220.561L221.538 85.2536V86.9645L221.05 87.9422L222.516 89.8976H213.717L212.006 90.6309L210.539 92.5863L207.117 95.7638L205.406 95.0305H204.184H203.207L201.496 95.7638L200.518 96.2526L199.296 96.9859L198.318 96.2526L197.585 95.2749H196.852L195.874 96.2526H195.141L194.407 95.2749H193.674L192.696 95.7638L191.719 96.7415H189.763V95.0305L187.808 93.8084L186.586 93.0751L185.608 92.0974V91.6086L183.897 89.4088H182.919L181.697 91.3642H180.72L179.498 90.3865H178.52L178.031 90.8753L176.809 91.853H175.587L174.12 90.8753L172.654 89.4088L172.165 88.4311L171.187 87.4534L169.721 85.9869V85.0092L169.232 84.7647V82.5649L168.01 81.3428L165.81 80.3651L164.832 79.3874L164.588 78.4097L163.61 77.6765L163.366 76.9432L163.61 76.6988V75.4766L162.143 74.4989L161.655 73.0324L157.011 70.0993L156.522 69.1216L157.255 68.1439L156.766 67.1662L154.077 64.9664H151.144L150.411 63.7443L150.656 63.2555V61.7889L148.945 61.0556H146.5V58.367L147.234 57.1449V53.4785L145.523 50.301L144.056 48.1012L142.345 46.1458V45.9014L143.078 43.4571L140.39 41.2573V40.5241L140.879 39.7908V38.8131L139.901 38.3242V36.3689L139.412 34.169L138.923 33.6802H138.434V34.169H136.479L135.99 33.4358V32.2137L138.434 29.0361L137.457 27.5696V25.8586L139.901 24.3921L140.39 23.4144L139.412 22.9256V20.7257L140.39 19.9925L142.345 16.815L142.834 13.1486L147.967 12.6598L148.7 13.1486V8.99342L148.456 -1.76122L148.211 -11.2937V-16.1822L148.644 -16.6711H154.078V-28.4034H153.589V-30.6032H190.985L192.208 -32.0698L192.478 -30.6032H202.718L205.162 -28.8922L207.362 -28.4034L207.851 -28.8922V-30.1144L209.317 -32.3142H210.539L211.517 -33.0474L213.228 -35.9805L215.428 -36.4694L215.917 -37.9359L217.139 -38.6692L217.628 -37.6915V-37.2026L218.605 -36.225H219.094L219.827 -35.2473H220.561L224.96 -31.0921V-28.8922L226.427 -26.6924L227.405 -25.4703L227.649 -24.737L226.427 -24.0038V-23.5149L226.916 -23.2705L227.16 -21.5595L227.405 -21.3151V-20.5818L226.916 -20.093V-18.8709L227.893 -14.4713V-11.2937L228.382 -10.5605V-9.8272L229.36 -8.84951L230.093 -8.11624C230.419 -8.03476 231.071 -7.82293 231.071 -7.62739C231.071 -7.43185 232.7 -6.07938 233.515 -5.42758L234.982 -4.20546L236.204 -3.71661Z" fill="#CED3D9" stroke="white"/>
<path d="M147.234 57.1447V53.4783L150.656 54.2116H153.344L154.077 52.9895H156.766L161.655 54.2116L163.61 57.1447L168.743 57.6335L173.631 58.6112L175.587 59.8333H178.52L181.697 58.6112H182.919H183.897L185.608 57.6335L187.808 57.1447L190.741 57.6335L193.674 59.8333H194.407L196.118 60.3222H198.318H200.518L203.207 58.1223L204.918 57.1447L206.14 50.3008L205.651 48.3454L211.028 46.6344L213.472 46.39L212.25 48.3454L211.761 51.0341C211.599 51.5229 211.273 52.5984 211.273 52.9895C211.273 53.3805 210.784 54.456 210.539 54.9448V58.1223H211.273L211.028 62.7664L210.05 63.4997H208.34L207.362 63.0108L205.651 63.4997L204.918 64.7218L204.429 65.9439V67.166L204.918 67.6549L206.14 68.3881L207.362 68.6326H208.34L210.05 69.8547L211.761 72.7878L213.228 73.7655L215.183 75.9653L215.917 78.8984C215.998 79.2243 216.21 79.9249 216.406 80.1205C216.601 80.316 216.813 81.5055 216.894 82.0759L218.605 84.5201H220.561L221.538 85.2534V86.9643L221.05 87.942L222.516 89.8974H213.717L212.006 90.6307L210.539 92.5861L207.117 95.7636L205.406 95.0303H204.184H203.207L201.496 95.7636L200.518 96.2524L199.296 96.9857L198.318 96.2524L197.585 95.2747H196.852L195.874 96.2524H195.141L194.407 95.2747H193.674L192.696 95.7636L191.719 96.7413H189.763V95.0303L187.808 93.8082L186.586 93.0749L185.608 92.0972V91.6084L183.897 89.4086H182.919L181.697 91.364H180.72L179.498 90.3863H178.52L178.031 90.8751L176.809 91.8528H175.587L174.12 90.8751L172.654 89.4086L172.165 88.4309L171.187 87.4532L169.721 85.9866V85.0089L169.232 84.7645V82.5647L168.01 81.3426L165.81 80.3649L164.832 79.3872L164.588 78.4095L163.61 77.6762L163.366 76.943L163.61 76.6985V75.4764L162.143 74.4987L161.655 73.0322L157.011 70.0991L156.522 69.1214L157.255 68.1437L156.766 67.166L154.077 64.9662H151.144L150.411 63.7441L150.656 63.2552V61.7887L148.945 61.0554H146.5V58.3668L147.234 57.1447Z" fill="#0A2240"/>
<path d="M213.472 46.39L212.25 48.3454L211.761 51.0341C211.599 51.5229 211.273 52.5984 211.273 52.9895C211.273 53.3805 210.784 54.456 210.539 54.9448V58.1223H211.273L211.028 62.7664L210.05 63.4997H208.34L207.362 63.0108L205.651 63.4997L204.918 64.7218L204.429 65.9439V67.166L204.918 67.6549L206.14 68.3881L207.362 68.6326H208.34L210.05 69.8547L211.761 72.7878L213.228 73.7655L215.183 75.9653L215.917 78.8984C215.998 79.2243 216.21 79.9249 216.406 80.1205C216.601 80.316 216.813 81.5055 216.894 82.0759L218.605 84.5201H220.561L221.538 85.2534V86.9643L221.05 87.942L222.516 89.8974H213.717L212.006 90.6307L210.539 92.5861L207.117 95.7636L205.406 95.0303H204.184H203.207L201.496 95.7636L200.518 96.2524L199.296 96.9857L198.318 96.2524L197.585 95.2747H196.852L195.874 96.2524H195.141L194.407 95.2747H193.674L192.696 95.7636L191.719 96.7413H189.763V95.0303L187.808 93.8082L186.586 93.0749L185.608 92.0972V91.6084L183.897 89.4086H182.919L181.697 91.364H180.72L179.498 90.3863H178.52L178.031 90.8751L176.809 91.8528H175.587L174.12 90.8751L172.654 89.4086L172.165 88.4309L171.187 87.4532L169.721 85.9866V85.0089L169.232 84.7645V82.5647L168.01 81.3426L165.81 80.3649L164.832 79.3872L164.588 78.4095L163.61 77.6762L163.366 76.943L163.61 76.6985V75.4764L162.143 74.4987L161.655 73.0322L157.011 70.0991L156.522 69.1214L157.255 68.1437L156.766 67.166L154.077 64.9662H151.144L150.411 63.7441L150.656 63.2552V61.7887L148.945 61.0554H146.5V58.3668L147.234 57.1447V53.4783L150.656 54.2116H153.344L154.077 52.9895H156.766L161.655 54.2116L163.61 57.1447L168.743 57.6335L173.631 58.6112L175.587 59.8333H178.52L181.697 58.6112H182.919H183.897L185.608 57.6335L187.808 57.1447L190.741 57.6335L193.674 59.8333H194.407L196.118 60.3222H198.318H200.518L203.207 58.1223L204.918 57.1447L206.14 50.3008L205.651 48.3454L211.028 46.6344L213.472 46.39ZM213.472 46.39L214.206 46.6344" stroke="white"/>
<path d="M181.208 142.449L179.986 140.493L180.72 139.76H181.453L181.942 140.493L183.164 141.226H184.386L184.875 140.738L185.364 140.249L186.097 138.538L187.319 137.805H188.541L190.008 138.782L189.274 139.271V139.76V141.715V142.204L189.763 142.449L191.23 142.937V143.426L190.741 144.893L189.763 145.871L188.786 146.115V146.848L187.808 148.559L186.586 150.759L184.63 152.714L183.653 151.737L182.186 149.292V145.871L181.453 144.648L181.208 142.449Z" fill="#CED3D9"/>
<path d="M189.274 141.715V142.204L189.763 142.449L191.23 142.937V143.426L190.741 144.893L189.763 145.871L188.786 146.115V146.848L187.808 148.559L186.586 150.759L184.63 152.714L183.653 151.737L182.186 149.292V145.871L181.453 144.648L181.208 142.449L179.986 140.493L180.72 139.76H181.453L181.942 140.493L183.164 141.226H184.386L184.875 140.738L185.364 140.249L186.097 138.538L187.319 137.805H188.541L190.008 138.782L189.274 139.271V139.76M189.274 141.715H188.786M189.274 141.715V139.76M189.274 139.76H188.786" stroke="white"/>
<path d="M191.23 138.538H189.763L188.541 137.804H187.563L186.097 138.538L185.364 140.249L184.386 141.226H183.164L181.942 140.493L181.453 139.76H180.72L179.986 140.493L179.497 139.76V138.049L181.453 136.827V133.894L182.675 132.672L183.408 131.449H184.386V130.961H185.119L185.853 131.449L186.341 131.938V131.449H187.075V130.716L188.541 129.005H189.03L189.519 129.983L190.985 132.427L191.719 136.094V138.049L191.23 138.538Z" fill="#CED3D9" stroke="white"/>
<path d="M64.8628 107.007L63.1518 106.03H62.9074H62.6629V108.474L62.1741 108.963V110.185L61.6853 110.918L60.2187 112.385V114.34H62.1741L63.1518 114.829H64.6183L65.596 114.34L66.0849 114.829H71.4622L72.4399 114.096V113.362V112.873V107.007L71.951 106.518H68.5291L68.0403 107.007H64.8628Z" fill="#CED3D9" stroke="white"/>
<path d="M86.372 27.0807L88.3274 30.5026L89.0607 32.458L89.5495 33.9245V35.6355L90.2828 36.1244L91.2605 36.3688L91.9938 37.102L92.4826 38.3242L92.2382 39.0574L91.9938 40.0351L92.2382 40.7684V41.7461L91.2605 42.9682L90.5272 43.2126H89.5495L87.5941 44.1903L86.1276 48.1011L85.6388 49.0788V49.8121L85.1499 51.0342L83.6834 52.2563V54.945L82.2168 56.6559H81.728V56.9004V59.1002L81.2391 60.5667L80.7503 61.3L79.2837 61.7888L77.8172 63.4998L77.5728 65.6996L77.0839 67.655L74.8841 71.8102V73.0323L73.4176 74.2544V75.721L72.1955 77.1875H70.9733L70.4845 76.6987L70.7289 75.721L68.2847 72.7879H67.5514L67.307 74.2544L65.8404 74.01L65.596 73.7656H63.6406L62.4185 76.4542L60.2187 78.4096L57.53 80.8539L57.2856 82.3204V83.0537V84.5202L56.7968 85.2535L56.3079 87.2089L55.5747 88.431L54.3525 88.9199L53.3748 87.9422V89.8975L49.2196 91.1197L48.9752 89.6531L47.5087 91.1197L46.0421 89.4087H45.5533V91.3641H44.82L44.3312 90.3864L42.3758 91.8529H41.6425L41.1537 91.1197L40.9092 91.8529L39.9315 91.6085L38.9539 91.3641L37.7317 90.3864L36.5096 88.1866L36.2652 86.72L36.0208 85.9868V84.7646L34.7987 84.2758V83.5425L35.1653 83.0537V82.5648L34.5542 83.0537L33.821 82.8093V82.076L33.5765 81.3427L31.1323 78.4096L28.4436 77.1875H24.044L24.2884 76.9431L25.0217 76.6987L25.755 76.2098H25.2661H24.044L23.5552 76.6987V77.6764H19.6444V76.6987L20.1332 75.721L19.8888 74.9877L19.6444 74.4989V72.0546H20.1332V68.8771L19.6444 68.3883V66.9217L19.8888 60.3223L20.3777 59.1002H21.5998L22.333 58.3669V55.9227L23.5552 54.2117L25.5106 52.2563V51.2786L25.0217 50.7898V50.3009L25.5106 49.8121L26.4882 49.3232L25.9994 45.168L24.5329 43.2126V41.9905L25.5106 40.0351V35.6355L27.7104 32.7024L28.4436 30.5026V29.0361L30.399 27.3251L31.8656 26.3474H35.0431L36.2652 25.6141L37.9762 25.8586L39.6871 26.5918L41.6425 27.3251L43.1091 28.0584L43.8423 29.5249L45.5533 31.7247H46.2866L47.2643 31.2359L50.9306 29.5249H51.9083L53.8637 30.747L56.5523 31.9691L57.7745 32.7024H60.2187L60.7076 33.1913H61.6852L62.1741 32.7024L62.6629 31.7247L64.1295 30.2582L65.1072 30.0138L66.5737 29.2805H68.7735L69.9956 28.7916L70.7289 29.2805H73.4176L76.5951 30.747L79.0393 30.9915L79.5282 30.2582L84.1722 26.8363H85.1499L86.372 27.0807Z" fill="#CED3D9"/>
<path d="M19.6444 66.9217L19.8888 60.3223L20.3777 59.1002H21.5998L22.333 58.3669V55.9227L23.5552 54.2117L25.5106 52.2563V51.2786L25.0217 50.7898V50.3009L25.5106 49.8121L26.4882 49.3232L25.9994 45.168L24.5329 43.2126V41.9905L25.5106 40.0351V35.6355L27.7104 32.7024L28.4436 30.5026V29.0361L30.399 27.3251L31.8656 26.3474H35.0431L36.2652 25.6141L37.9762 25.8586L39.6871 26.5918L41.6425 27.3251L43.1091 28.0584L43.8423 29.5249L45.5533 31.7247H46.2866L47.2643 31.2359L50.9306 29.5249H51.9083L53.8637 30.747L56.5524 31.9691L57.7745 32.7024H60.2187L60.7076 33.1913H61.6852L62.1741 32.7024L62.6629 31.7247L64.1295 30.2582L65.1072 30.0138L66.5737 29.2805H68.7735L69.9956 28.7916L70.7289 29.2805H73.4176L76.5951 30.747L79.0393 30.9915L79.5282 30.2582L84.1722 26.8363H85.1499L86.372 27.0807L88.3274 30.5026L89.0607 32.458L89.5495 33.9245V35.6355L90.2828 36.1244L91.2605 36.3688L91.9938 37.102L92.4826 38.3242L92.2382 39.0574L91.9938 40.0351L92.2382 40.7684V41.7461L91.2605 42.9682L90.5272 43.2126H89.5495L87.5941 44.1903L86.1276 48.1011L85.6388 49.0788V49.8121L85.1499 51.0342L83.6834 52.2563V54.945L82.2168 56.6559H81.2391H81.728V56.9004V59.1002L81.2391 60.5667L80.7503 61.3L79.2837 61.7888L77.8172 63.4998L77.5728 65.6996L77.0839 67.655L74.8841 71.8102V73.0323L73.4176 74.2544V75.721L72.1955 77.1875H70.9733L70.4845 76.6987L70.7289 75.721L68.2847 72.7879H67.5514L67.307 74.2544L65.8404 74.01L65.596 73.7656H63.6406L62.4185 76.4542L60.2187 78.4096L57.53 80.8539L57.2856 82.3204V83.0537V84.5202L56.7968 85.2535L56.3079 87.2089L55.5747 88.431L54.3525 88.9199L53.3748 87.9422V89.8975L49.2196 91.1197L48.9752 89.6531L47.5087 91.1197L46.0421 89.4087H45.5533V91.3641H44.82L44.3312 90.3864M19.6444 66.9217H19.1555M19.6444 66.9217V68.3883L20.1332 68.8771V72.0546H19.6444V74.4989L19.8888 74.9877L20.1332 75.721L19.6444 76.6987V77.6764H23.5552V76.6987L24.044 76.2098H25.2661H25.755L25.9994 75.721H26.4882L25.0217 76.6987L24.2884 76.9431L24.044 77.1875H28.4436L31.1323 78.4096L33.5765 81.3427L33.821 82.076M33.821 82.076L35.2875 80.6094M33.821 82.076V82.8093L34.5542 83.0537L35.1653 82.5648M35.7763 82.076L35.1653 82.5648M35.1653 82.5648V83.0537M35.1653 83.0537H36.5096M35.1653 83.0537L34.7987 83.5425V84.2758L36.0208 84.7647V85.9868L36.2652 86.72L36.5096 88.1866L37.7317 90.3864L38.9539 91.3641L39.9315 91.6085M39.9315 91.6085L39.6871 91.1197V90.8752M39.9315 91.6085L40.9092 91.8529L41.1537 91.1197M41.1537 91.1197V90.3864M41.1537 91.1197L41.6425 91.8529H42.3758L44.3312 90.3864M44.3312 90.3864L44.0867 88.9199L44.5756 88.431" stroke="white"/>
<path d="M64.1296 106.518L63.1519 106.03L62.663 104.807V103.096L63.1519 102.608V101.385L63.8851 100.652L63.1519 98.9413L62.1742 98.208V96.9859V96.7414H61.6853L61.4409 96.0082L61.6853 95.2749L62.4186 94.5416L61.6853 93.5639L60.9521 93.8084H60.7076V94.7861H59.7299V94.4194L58.7522 94.2972L57.7746 93.0751L57.0413 89.8976H56.7969L56.308 90.6309L55.8192 90.142V89.4087L55.3303 88.431L56.308 87.2089L56.7969 85.2535L57.2857 84.5203V82.3204L57.5301 80.8539L62.4186 76.4543L63.6407 73.7656H65.5961L65.8405 74.01L67.3071 74.2545L67.5515 72.7879H68.2848L70.729 75.721L70.4846 76.6987L70.9734 77.1876H72.1955L73.4177 75.721V74.2545L74.8842 73.0324V71.8102L77.084 67.655L77.5729 65.6996L77.8173 63.4998L79.2838 61.7889L80.7504 61.3L81.2392 60.5667L81.7281 59.1002V56.656H82.2169L83.6835 54.945V52.2563L85.15 51.0342L85.6388 49.8121V49.0788L86.1277 48.1011L87.5942 44.1904L89.5496 43.2127H90.5273L91.2606 42.9683L92.2383 41.7461V40.7684L91.9939 40.0352L92.4827 38.3242L91.9939 37.1021L91.2606 36.3688L90.2829 36.1244L89.5496 35.6355V33.4357L88.3275 30.7471L89.5496 30.9915H91.0162L91.7494 33.1913L93.4604 34.6578V36.6132L94.9269 39.0575V42.4794L94.4381 45.4125L95.4158 49.3233L98.5933 52.0119L98.3489 52.7452H94.1937L91.7494 52.5008L91.0162 52.2563H89.794L88.3275 53.9673V54.945L89.794 57.1448L95.4158 62.7666L97.86 67.8995L97.6156 69.6104L97.3712 70.3437L95.4158 72.2991V73.7656L93.9492 76.2099L93.4604 77.6764L90.7717 79.6318L92.2383 81.3428V84.0314L91.7494 84.7647L92.7271 86.4757L92.4827 88.9199L94.6825 91.853L95.6602 93.5639V95.7637L99.0821 100.163L100.06 100.408L101.282 101.385V103.096L101.771 104.074V106.518L101.282 107.007V109.94H100.793L100.304 109.451L97.86 107.985H94.9269L92.2383 106.518H88.3275H84.4167L83.9279 106.03H80.5059H79.2838L78.795 105.541H72.9288L71.9511 106.518H67.0626H64.1296Z" fill="#CED3D9"/>
<path d="M89.3052 30.9915H89.5496M62.1742 96.7414V96.9859V98.208L63.1519 98.9413L63.8851 100.652L63.1519 101.385V102.608L62.663 103.096V104.807L63.1519 106.03L64.1296 106.518H67.0626H71.9511L72.9288 105.541H78.795L79.2838 106.03H80.5059H83.9279L84.4167 106.518H88.3275H92.2383L94.9269 107.985H97.86L100.304 109.451L100.793 109.94H101.282V107.007L101.771 106.518V104.074L101.282 103.096V101.385L100.06 100.408L99.0821 100.163L95.6602 95.7637V93.5639L94.6825 91.853L92.4827 88.9199L92.7271 86.4757L91.7494 84.7647L92.2383 84.0314V81.3428L90.7717 79.6318L93.4604 77.6764L93.9492 76.2099L95.4158 73.7656V72.2991L97.3712 70.3437L97.6156 69.6104L97.86 67.8995L95.4158 62.7666L89.794 57.1448L88.3275 54.945V53.9673L89.794 52.2563H91.0162L91.7494 52.5008L94.1937 52.7452H98.3489L98.5933 52.0119L95.4158 49.3233L94.4381 45.4125L94.9269 42.4794V39.0575L93.4604 36.6132V34.6578L91.7494 33.1913L91.0162 30.9915H89.5496M62.1742 96.7414H62.663M62.1742 96.7414H61.6853L61.4409 96.0082L61.6853 95.2749L62.4186 94.5416L61.6853 93.5639L60.9521 93.8084H60.7076V93.3195V94.7861H59.7299V94.4194M59.7299 93.8084V94.0528V94.4194M59.7299 94.4194L58.7522 94.2972L57.7746 93.0751L57.0413 89.8976H56.7969L56.308 90.6309L55.8192 90.142V89.4087L55.3303 88.431L56.308 87.2089L56.7969 85.2535L57.2857 84.5203V82.3204L57.5301 80.8539L62.4186 76.4543L63.6407 73.7656H65.5961L65.8405 74.01L67.3071 74.2545L67.5515 72.7879H68.2848L70.729 75.721L70.4846 76.6987L70.9734 77.1876H72.1955L73.4177 75.721V74.2545L74.8842 73.0324V71.8102L77.084 67.655L77.5729 65.6996L77.8173 63.4998L79.2838 61.7889L80.7504 61.3L81.2392 60.5667L81.7281 59.1002V56.656M81.7281 56.656H81.2392M81.7281 56.656H82.2169L83.6835 54.945V52.2563L85.15 51.0342L85.6388 49.8121V49.0788L86.1277 48.1011L87.5942 44.1904L89.5496 43.2127H90.5273L91.2606 42.9683L92.2383 41.7461V40.7684L91.9939 40.0352L92.4827 38.3242L91.9939 37.1021L91.2606 36.3688L90.2829 36.1244L89.5496 35.6355V33.4357L88.3275 30.7471L89.5496 30.9915" stroke="white"/>
<path d="M144.3 242.907L145.278 243.884L146.989 243.396L150.655 242.907H154.077L155.544 244.129V244.862H156.522L157.01 245.351H158.966L159.944 246.329L160.921 246.084L161.41 245.84H162.877L163.854 246.817H165.81L168.743 243.884V243.396L169.232 242.907V242.418L170.698 240.951V240.462L171.187 239.485L172.654 238.507L174.12 238.018L176.32 236.552H177.053L177.542 236.063L178.031 234.107V232.641L179.009 231.663L183.897 229.708H185.119L185.608 230.197H187.563V228.73L186.83 227.997L186.341 226.53L186.586 225.553L188.052 225.064L189.763 224.086L196.852 221.886L200.518 220.175L202.229 219.686L203.451 218.709L201.74 216.753L201.251 215.776L201.74 215.042L203.207 213.576V209.421L204.184 208.687L206.873 207.465L205.895 206.732L205.406 205.265V203.31L205.895 202.332V198.422L205.406 197.444V196.711H206.384L207.851 195.244V193.533L206.873 191.822L206.14 191.333V189.378L205.406 189.134L203.695 187.667L203.451 186.689L202.473 185.712H201.74L200.273 184.734L198.074 184.245L197.096 183.267H196.363L195.874 182.778L194.652 181.556H193.185L192.696 182.29H191.719L190.497 180.823L188.786 180.579L189.03 179.357H185.608H183.408L182.675 179.845H180.964L179.253 180.334V182.29L176.564 185.223L176.076 185.712V186.2H176.564L177.053 186.689L177.542 188.156V190.111L177.053 190.6V193.044L177.542 194.022V195.489L176.076 199.888V202.821L176.564 203.799L180.475 207.71H181.942L183.164 206.243L184.386 205.754V214.554H183.408L183.164 213.331H182.675L182.186 213.576L180.964 214.554H179.497L178.52 213.331V212.598L178.031 212.109V211.62L176.564 210.154V209.665L176.076 209.176V208.199L175.098 207.71L173.142 206.732H171.431L170.698 206.243V205.754L170.209 205.265V204.777L169.232 203.799V203.31L168.743 202.821L168.254 202.332H167.765L166.787 204.288H163.854H162.632L160.188 203.31H158.477L157.01 202.088V199.888L156.766 199.399H155.3L154.811 199.888L153.589 200.377L152.611 200.866H151.633L151.144 200.377L151.633 199.888V198.91L151.144 198.422L150.411 197.444L149.678 196.955H149.189L148.7 197.444L149.189 197.933L149.678 198.91V199.888L149.189 200.621V203.799L148.7 204.288V205.265L149.189 205.754V208.199L148.7 208.687V209.665L148.211 210.154L148.7 211.132V211.62H147.967L146.989 212.109H145.034L141.856 211.62H137.457L136.968 212.109L136.479 214.065V215.042L136.968 215.776V227.508L136.479 228.73V229.952V232.396L136.723 233.374L136.968 234.352L137.212 235.085L137.457 235.574L139.168 237.285L139.412 238.018L141.367 239.974L142.589 241.44L142.834 241.929L143.323 242.418L144.3 242.907Z" fill="#CED3D9"/>
<path d="M168.254 202.332H167.765L166.787 204.288H163.854H162.632L160.188 203.31H158.477L157.01 202.088V199.888L156.766 199.399H155.3L154.811 199.888L153.589 200.377L152.611 200.866H151.633L151.144 200.377L151.633 199.888V198.91L151.144 198.422L150.411 197.444L149.678 196.955H149.189L148.7 197.444L149.189 197.933L149.678 198.91V199.888L149.189 200.621V203.799L148.7 204.288V205.265L149.189 205.754V208.199L148.7 208.687V209.665L148.211 210.154L148.7 211.132V211.62H147.967L146.989 212.109H145.034L141.856 211.62H137.457L136.968 212.109L136.479 214.065V215.042L136.968 215.776V227.508L136.479 228.73V229.952V232.396L136.723 233.374L136.968 234.352L137.212 235.085L137.457 235.574L139.168 237.285L139.412 238.018L141.367 239.974L142.589 241.44L142.834 241.929L143.323 242.418L144.3 242.907L145.278 243.884L146.989 243.396L150.655 242.907H154.077L155.544 244.129V244.862H156.522L157.01 245.351H158.966L159.944 246.329L160.921 246.084L161.41 245.84H162.877L163.854 246.817H165.81L168.743 243.884V243.396L169.232 242.907V242.418L170.698 240.951V240.462L171.187 239.485L172.654 238.507L174.12 238.018L176.32 236.552H177.053L177.542 236.063L178.031 234.107V232.641L179.009 231.663L183.897 229.708H185.119L185.608 230.197H187.563V228.73L186.83 227.997L186.341 226.53L186.586 225.553L188.052 225.064L189.763 224.086L196.852 221.886L200.518 220.175L202.229 219.686L203.451 218.709L201.74 216.753L201.251 215.776L201.74 215.042L203.207 213.576V209.421L204.184 208.687L206.873 207.465L205.895 206.732L205.406 205.265V203.31L205.895 202.332V198.422L205.406 197.444V196.711H206.384L207.851 195.244V193.533L206.873 191.822L206.14 191.333V189.378L205.406 189.134L203.695 187.667L203.451 186.689L202.473 185.712H201.74L200.273 184.734L198.074 184.245L197.096 183.267H196.363L195.874 182.778L194.652 181.556H193.185L192.696 182.29H191.719L190.497 180.823L188.786 180.579L189.03 179.357H185.608H183.408L182.675 179.845H180.964L179.253 180.334V182.29L176.564 185.223L176.076 185.712V186.2H176.564L177.053 186.689L177.542 188.156V190.111L177.053 190.6V193.044L177.542 194.022V195.489L176.076 199.888V202.821L176.564 203.799L180.475 207.71H181.942L183.164 206.243L184.386 205.754V214.554H183.408L183.164 213.331H182.675L182.186 213.576L180.964 214.554H179.497L178.52 213.331V212.598L178.031 212.109V211.62L176.564 210.154V209.665L176.076 209.176V208.199L175.098 207.71L173.142 206.732H171.431L170.698 206.243V205.754L170.209 205.265V204.777L169.232 203.799V203.31L168.743 202.821L168.254 202.332ZM168.254 202.332V201.844" stroke="white"/>
<path d="M132.813 246.329H134.524L145.034 243.884L144.3 242.907L143.323 242.418L142.834 241.929L142.59 241.44L141.367 239.974L139.412 238.018L139.168 237.285L137.457 235.574L137.212 235.085L136.968 234.352L136.479 232.397V228.73L136.968 227.508V215.776L136.479 215.042V214.065L136.968 212.109L137.457 211.621H141.856L145.034 212.109H146.745L147.722 211.621H148.7V211.132L148.211 210.154L148.7 209.665V208.687L149.189 208.199V205.754L148.7 205.266V204.288L149.189 203.799V200.621L149.678 199.888V198.91L149.189 197.933L148.7 197.444L148.211 197.933H146.5L145.278 198.666H140.879H140.145L138.923 199.399H138.434V198.666L137.945 198.177V197.444L138.923 196.222V193.289L138.434 192.8V191.333L136.968 189.378L135.99 187.178V185.223L136.723 182.29L136.968 179.601L136.235 178.134L135.746 176.179L135.99 174.224L136.235 173.246L135.746 172.024H128.657L128.169 171.535V171.046L128.657 170.557V169.58H127.435L126.702 170.069H122.791L122.058 170.557V173.735L121.325 174.224L121.08 177.401L117.903 177.157L117.169 176.668H116.436L116.192 176.912H114.481L113.503 177.89L110.081 177.646L109.592 177.157L106.659 172.024V170.069L105.193 167.869V165.18L104.704 163.713L103.726 162.247H95.1713L94.1936 162.491H85.3944L84.6611 162.247H81.728L80.5059 163.469L78.3061 163.225V165.913L79.2838 167.38V168.113L81.2392 169.824L81.728 172.024L84.6611 179.601V181.801L82.4613 183.267L82.2169 184.978L83.1946 186.689V188.645L84.6611 191.21V192.311L87.3498 197.444V203.31L84.6611 208.687H83.1946L81.9725 210.154L81.728 211.865L79.7726 214.309L78.3061 217.731L76.3507 229.219L74.8842 230.686V236.307H73.9065L74.8842 238.507L74.3953 239.24V241.44L75.6174 240.951L76.1063 240.707H80.2615L82.4613 239.24H84.4167L88.3275 242.173H88.5719H114.481L117.414 244.862H120.591L121.325 245.351H126.213L127.924 246.329H130.124L130.857 245.84H132.079L132.813 246.329Z" fill="#CED3D9" stroke="white"/>
<path d="M138.434 199.399V198.666L137.945 198.177V197.444L138.923 196.222V193.289L138.434 192.8V191.333L136.968 189.378L135.99 187.178V184.978L136.723 182.534L136.968 179.601L136.234 178.134L135.746 176.179L135.99 173.979L136.234 173.246L135.746 172.024H128.657L128.168 171.535V171.046L128.657 170.557V169.58H127.435L126.702 170.068H122.791L122.058 170.557V173.735L121.325 174.224L121.08 177.401L118.392 177.157L117.169 176.668H116.436L116.192 176.912L114.725 176.668L113.259 177.89L110.326 177.646L109.837 177.401L106.659 172.024V170.068L105.193 168.113V165.18L104.704 163.713L103.726 162.247H95.1713L94.438 162.491H85.6387L84.6611 162.247H81.728L80.5059 163.469L78.306 163.225L77.5728 162.247L77.8172 161.758L78.306 161.269L79.0393 161.025L79.2837 160.78V160.292L79.7726 159.558L80.017 158.581L79.2837 157.847V156.625L79.7726 156.381L80.5059 155.647L81.4835 154.914L82.2168 154.181L82.9501 153.937L84.6611 154.67L84.9055 155.403L85.8832 154.914L86.6164 154.181V153.448L89.0607 151.981H89.7939L90.5272 151.248L91.5049 151.981V152.47L91.0161 152.959V155.403L92.9715 155.647L94.438 153.937L96.3934 151.492H97.1267L97.8599 150.026L99.8153 149.048L101.037 147.337L101.771 146.115V144.648H102.26V138.293V136.338L103.726 134.871L104.459 133.894L104.948 132.427L105.681 130.961L106.17 130.472L106.659 129.494L108.615 128.516L110.326 127.294L110.814 125.583L111.548 125.339V121.673L112.525 119.717V113.851L113.014 112.385L113.503 110.185V109.696L112.77 108.963L113.503 107.985V106.03L115.458 102.852L116.192 100.652L116.925 100.163V97.4747L116.681 96.9858V93.0751L116.192 91.6085L117.169 91.1197L118.147 89.4087L119.614 87.9422L121.325 86.2312L122.058 85.9868H123.524L128.168 89.8975L128.413 91.1197H131.346L132.324 91.8529H134.279L134.523 92.3418H135.012L135.501 91.8529H136.234L136.479 92.3418H137.457L139.168 93.5639L139.901 93.3195L140.39 92.5862L142.101 88.9198L142.834 88.431H144.056L144.789 89.6531H146.011L147.233 89.4087L147.967 88.6754L149.433 88.1866L151.878 86.9645L152.122 86.4756L152.855 86.72L153.589 87.4533H156.033L157.01 86.72L157.744 85.7423L157.988 85.0091L158.966 84.7646L159.944 85.0091L160.921 85.7423H163.365L164.343 86.4756H167.276L168.743 85.2535L169.72 85.0091V85.9868L172.165 88.431L172.654 89.4087L173.876 90.8752L175.587 91.8529H176.809L178.52 90.3864H179.497L180.72 91.3641H181.697L182.919 89.4087H183.897L185.608 91.8529L186.341 92.8306L189.763 95.2749V96.7414H191.474L191.963 98.4524L191.23 99.6745V101.141V102.608V105.052H191.963L194.163 106.763L193.674 107.985L189.274 113.118L186.341 115.806V118.251L186.097 118.495L185.364 119.717L184.386 122.406V125.828L183.897 126.561V127.783V131.45H183.408L182.675 132.427L181.453 133.649L181.208 136.827L179.497 138.049V139.76L181.208 142.449L181.453 144.404L180.964 145.137V149.537H180.475V151.003L180.231 151.492H180.964L181.453 151.003L180.964 150.759L180.72 150.026H181.208H181.942L182.43 151.003L182.186 151.492H181.453V152.47L180.964 152.959V154.425L180.72 157.603L181.942 159.803L181.697 161.758L181.453 163.713L181.942 165.669L182.919 167.38L183.653 169.335L185.608 171.291L186.586 172.268L187.319 175.201L187.808 176.423L189.274 177.89V178.868L189.03 179.357H183.408L182.675 179.845H180.964L179.253 180.334V182.29L176.075 185.712V186.2H176.564L177.053 186.689L177.542 188.156V190.111L177.053 190.6V193.044L177.542 194.022V195.489L176.075 199.888V202.821L176.564 203.799L180.475 207.71H181.942L183.164 206.243L184.386 205.714V214.554H183.408L183.164 213.331H182.675L180.964 214.554H179.497L178.52 213.331V212.598L178.031 212.109V211.62L176.564 210.154V209.665L176.075 209.176V208.199L173.142 206.732H171.431L170.698 206.243V205.754L170.209 205.265V204.777L169.232 203.799V203.31L168.254 202.332H167.765L166.787 204.288H162.632L160.236 203.31H158.477L157.01 202.088V199.888L156.766 199.399H155.299L154.811 199.888L152.611 200.866H151.633L151.144 200.377L151.633 199.888V198.91L151.144 198.422L150.411 197.444L149.678 196.955H149.189L148.211 197.933H146.5L145.278 198.666H140.145L138.923 199.399H138.434Z" fill="#CED3D9" stroke="white"/>
<path d="M77.3284 161.269L77.5728 162.002L78.3061 161.269L79.0394 161.025L79.2838 160.78V160.292L79.7726 159.558L80.0171 158.581L79.2838 157.847V156.625L79.7726 156.381L82.2169 154.181L82.4613 153.203L81.728 152.47H80.9948L79.5282 153.448L76.8396 155.892V157.847L77.3284 158.336V158.825L77.8172 159.314L77.3284 159.803V161.269Z" fill="#CED3D9" stroke="white"/>
<path d="M71.2177 148.315V149.292H70.7289L70.4845 149.048L69.9956 148.559V148.315L69.7512 147.826L68.7735 147.093L68.5291 146.115L68.2847 145.871L68.0402 145.382L67.0625 143.671L64.6183 141.226L64.1295 140.982L63.6406 140.249L64.3739 139.76L62.6629 138.782L62.1741 139.027L61.1964 137.805V137.316L60.7075 136.827V136.338L60.2187 135.849V135.36V134.871H59.7298V134.383L59.241 133.894V133.405L59.7298 132.916H61.1964L60.7075 132.427H60.4631H59.9743H58.7521L59.7298 132.183V130.961L59.241 131.45L58.5077 131.694L58.2633 130.961L58.0189 129.739L56.7967 128.028V126.561H58.2633L59.7298 124.117V119.717H60.2187L61.1389 120.817H62.9073V120.45L61.1964 119.717L60.7075 119.228L60.2187 118.74L59.7298 118.251V117.762L60.2187 117.273H61.6852V114.34H62.1741L63.1518 114.829H64.6183L65.596 114.34L66.0848 114.829H71.4622L72.4399 114.135V107.007L71.951 106.518L72.9287 105.541H78.7949L79.2837 106.029H83.9278L84.661 106.763L83.6833 108.229L83.1945 108.963V110.918H83.6833V112.873L83.1945 113.362H84.661V112.873H85.1499L85.8832 112.385H86.6164L87.1053 111.896H88.8162L89.5495 112.385L90.2828 113.607L91.016 114.829V117.273L89.7939 117.762H89.3051L88.3274 118.74V122.161H87.8385L87.3497 123.139L87.8385 123.628H88.5718L89.0607 124.117L89.5495 124.606L90.2828 124.85L91.5049 125.583L91.9937 126.561L91.5049 127.05V128.028L91.016 128.516V129.005L91.5049 129.494V132.427L91.016 132.672V133.405L91.5049 133.894L90.0384 135.36L89.7939 137.56L89.3051 138.293L88.5718 139.271H88.083L87.5941 137.805L87.1053 136.827V136.338L86.6164 136.827L86.1276 138.049L85.1499 138.782H84.661L84.1722 138.293H82.4612V136.582L80.2614 134.383H79.7726L79.2837 134.627V135.849V137.316L78.7949 137.56L78.306 138.293H76.8395H75.8618H75.3729L74.8841 137.805H73.9064V138.538V140.493L73.662 140.982L73.9064 141.226L74.3952 141.471L74.8841 142.204V142.693L74.3952 143.182V143.671L75.1285 144.16L75.3729 144.404L75.8618 144.893V145.626L75.3729 146.115L75.8618 146.359V147.093H75.3729L75.1285 147.582L73.9064 146.848V146.115H72.9287L72.4399 146.848L71.2177 148.315Z" fill="#CED3D9"/>
<path d="M75.8618 138.293H75.3729L74.8841 137.805H73.9064V138.538V140.493L73.662 140.982L73.9064 141.226L74.3952 141.471L74.8841 142.204V142.693L74.3952 143.182V143.671L75.1285 144.16L75.3729 144.404L75.8618 144.893V145.626L75.3729 146.115L75.8618 146.359V147.093H75.3729L75.1285 147.582L73.9064 146.848V146.115H72.9287L72.4399 146.848L71.2177 148.315V149.292H70.7289L70.4845 149.048L69.9956 148.559V148.315L69.7512 147.826L68.7735 147.093L68.5291 146.115L68.2847 145.871L68.0402 145.382L67.0625 143.671L64.6183 141.226L64.1295 140.982L63.6406 140.249L64.3739 139.76L62.6629 138.782L62.1741 139.027L61.1964 137.805V137.316L60.7075 136.827V136.338L60.2187 135.849V135.36M75.8618 138.293V137.805M75.8618 138.293H76.8395H78.306L78.7949 137.56L79.2837 137.316V135.849M79.2837 135.849H78.7949M79.2837 135.849V134.627L79.7726 134.383H80.2614L82.4612 136.582V138.293H84.1722L84.661 138.782H85.1499L86.1276 138.049L86.6164 136.827L87.1053 136.338V136.827L87.5941 137.805L88.083 139.271H88.5718L89.3051 138.293L89.7939 137.56L90.0384 135.36L91.5049 133.894L91.016 133.405V132.672L91.5049 132.427V129.494L91.016 129.005V128.516L91.5049 128.028V127.05L91.9937 126.561L91.5049 125.583L90.2828 124.85L89.5495 124.606L89.0607 124.117L88.5718 123.628H87.8385L87.3497 123.139L87.8385 122.161H88.3274V118.74L89.3051 117.762H89.7939L91.016 117.273V114.829L90.2828 113.607L89.5495 112.385L88.8162 111.896H87.1053L86.6164 112.385H85.8832L85.1499 112.873H84.661V113.362H83.1945L83.6833 112.873V110.918H83.1945V108.963L83.6833 108.229L84.661 106.763L83.9278 106.029H79.2837L78.7949 105.541H72.9287L71.951 106.518L72.4399 107.007V114.135L71.4622 114.829H66.0848L65.596 114.34L64.6183 114.829H63.1518L62.1741 114.34H61.6852V117.273M61.6852 118.251V117.273M61.6852 117.273H60.2187L59.7298 117.762V118.251L60.2187 118.74L60.7075 119.228L61.1964 119.717L62.9073 120.45V120.817M62.9073 120.817V121.184V121.428V120.817ZM62.9073 120.817H61.1389M61.1389 120.817L61.1964 121.184M61.1389 120.817L60.2187 119.717H59.7298V124.117L58.2633 126.561H56.7967V128.028L58.0189 129.739L58.2633 130.961L58.5077 131.694L59.241 131.45L59.7298 130.961V132.183L58.7521 132.427H59.9743H60.4631H60.7075M60.7075 132.427V131.938M60.7075 132.427L61.1964 132.916H59.7298L59.241 133.405V133.894L59.7298 134.383V134.871H60.2187M60.7075 134.871H60.2187M60.2187 134.871V135.36M60.2187 135.36H61.1964L61.6852 135.849" stroke="white"/>
<path d="M71.2177 148.315V149.293L73.4175 151.492L73.9064 151.981V152.226V152.47L74.3952 152.959L74.8841 153.448V153.937L75.3729 154.914V155.403L76.3506 156.381H76.8395V155.892L79.5281 153.448L80.9947 152.47H81.7279L82.4612 153.203L82.2168 154.181L82.9501 153.937L84.661 154.67L84.9054 155.403L85.8831 154.914L86.6164 154.181V153.448L87.1053 153.203V152.47H88.3274L89.0607 151.981H89.7939L90.5272 151.248L91.5049 151.981V152.47L91.016 152.959V155.403L92.9714 155.648L96.3934 151.492H97.1266L97.8599 150.026L99.8153 149.048L101.771 146.115V145.382L102.015 144.649L102.26 144.16V139.271L101.771 138.782V138.294L102.26 138.049V136.338L103.97 134.383L104.459 133.649L104.948 132.427L105.681 130.961L106.17 130.472L106.659 129.494L108.615 128.517L110.326 127.294L110.814 125.584L111.548 125.339V121.673L112.525 119.755V113.851L113.014 112.385L113.503 110.185V109.696L112.77 108.963L113.503 107.985V106.03L115.458 102.852L116.192 100.652L116.925 100.163V97.4748L116.681 96.986L116.192 97.2304L115.703 96.7415H114.725L114.236 97.2304H112.281L110.57 96.2527H108.615L107.148 97.2304L104.948 97.4748L103.726 98.2081L103.97 102.119L103.237 103.341L101.771 106.518L101.282 107.007V109.94H100.793L100.304 109.452L97.8599 107.985H94.9268L92.2382 106.518H88.5718L87.5941 107.007H85.1499L84.661 106.763L83.1945 108.963V109.696V110.918H83.6833V112.873L83.1945 113.362H84.661V112.873H85.1499L85.8831 112.385H86.6164L87.1053 111.896H88.8162L89.5495 112.385L91.016 114.829V117.273L90.0383 117.762H89.3051L88.3274 118.74V122.162H87.8385L87.3497 123.139L87.8385 123.628H88.5718L89.5495 124.606L90.2828 124.85L91.5049 125.584L91.9937 126.561L91.5049 127.05V128.028L91.016 128.517V129.005L91.5049 129.494V132.427L91.016 132.672V133.405L91.5049 133.894L90.0383 135.36L89.7939 137.56L88.5718 139.271H88.083L87.5941 137.805L87.1053 136.827V136.338L86.6164 136.827L86.1276 138.049L85.1499 138.782H84.661L84.1722 138.294H82.4612V136.583L80.2614 134.383H79.7726L79.2837 134.627V137.316L78.7949 137.56L78.306 138.294H75.3729L74.8841 137.805H73.9064V140.738L73.662 140.982L74.3952 141.471L74.8841 142.204V142.693L74.3952 143.182V143.671L75.8618 144.893L76.1062 145.382L75.3729 146.115L75.8618 146.36V147.093H75.3729L75.1285 147.582L73.9064 146.848V146.115H72.9287L72.4398 146.848L71.2177 148.315Z" fill="#CED3D9" stroke="white"/>
<path d="M3.02357 46.6345L3.26799 45.168L5.22338 45.4124L5.95665 45.6568H8.88973L8.15646 46.8789V49.812L9.37858 51.2786L11.334 52.5007L11.8228 56.4115L12.8005 58.1224V59.2523V73.2767L12.5561 74.7432L13.7782 76.6986V78.4096L12.3117 78.8984L10.6007 79.3873L9.86743 78.8984L8.64531 77.9207L7.17877 76.2098L6.4455 74.4988V73.2767L6.93435 72.5434V71.3213L6.4455 70.3436V68.6326L7.17877 65.2107V63.0109L5.95665 62.0332L5.71223 60.8111L6.4455 60.0778V56.6559L5.4678 55.6782L5.22338 54.2116L4.97896 53.9672V53.7228H5.4678V53.4784V50.7897L4.97896 49.812L3.51242 48.5899L3.02357 47.8566L2.77914 47.1234L3.02357 46.6345Z" fill="#CED3D9" stroke="white"/>
<path d="M13.7782 76.6987V78.6541H14.7559L15.2447 78.1653H18.1778L18.6667 77.6764H19.6444V76.6987L20.1332 75.721L19.6444 74.4989V72.0547H20.1332V68.8772L19.6444 68.3883L19.8888 60.3223L20.3776 59.1002H21.5997L22.333 58.3669V55.9227L23.5551 54.2117L25.5105 52.2563V51.5231L25.2661 50.7898L25.0217 50.301L25.5105 49.8121L26.4882 49.3233L25.9994 45.1681L24.5328 43.2127V41.9906L25.0217 40.524L24.2884 39.5463L23.0663 39.0575V38.0798L21.1109 36.1244H20.1332L19.6444 36.6132L18.4222 36.8577L17.689 38.0798L17.4445 41.0129L16.2224 41.9906L14.5115 42.9683H13.5338L13.0449 42.4794H11.8228L9.13413 45.4125L8.40086 46.879V49.5677L9.37856 51.0342L11.5784 52.2563L11.8228 56.4115L13.0449 58.8558V73.2768H12.8005L12.5561 74.7433L13.7782 76.6987Z" fill="#CED3D9" stroke="white"/>
<path d="M-14.0861 46.879V45.6569H-6.02016L-3.08707 45.168L0.0904331 46.1457L0.823704 44.9236H2.04582L3.51236 45.168L3.02352 46.3901L2.77909 47.1234L3.02352 47.8567L3.51236 48.5899L4.97891 49.8121L5.46775 50.7898V53.7228H4.97891V53.9673L5.22333 54.2117L5.46775 55.6782L6.44545 56.6559V60.0778L5.71218 60.8111L5.9566 62.0332L7.17872 63.2554V65.2107L6.44545 68.3883V70.3436L6.9343 71.3213V72.5435L6.44545 73.2767V74.4988L7.17872 76.2098L8.64526 77.9208L10.6006 79.3873L8.64526 81.5871L6.68987 81.8316L4.24564 82.076L2.29025 83.5425L0.334858 84.5202L-2.94307 85.7423L-5.04246 86.4756L-6.26458 86.9644L-8.21997 88.9198H-9.93093L-10.9086 88.1866L-11.8863 87.4533H-13.1084L-13.5973 86.9644H-15.0638L-14.3306 86.2312L-13.3529 85.7423L-13.5973 83.2981L-14.0861 82.8092L-15.0638 82.3204L-16.0415 79.1429L-16.7748 75.4765L-16.0415 73.7656L-15.0638 71.0769L-14.0861 66.9217L-13.5973 66.6773L-12.1307 64.9663V64.233V62.0332L-12.6196 60.5667L-13.1084 59.589L-13.5973 58.8557V58.1225L-13.1084 57.6336V55.6782L-13.5973 55.4338V51.0342L-14.575 48.5899V48.1011V47.3678L-14.0861 46.879Z" fill="#CED3D9"/>
<path d="M6.68987 81.8315L4.24564 82.076L2.29025 83.5425L0.334857 84.5202L-2.94307 85.7423L-5.04246 86.4756L-6.26458 86.9644L-8.21997 88.9198H-9.93093L-10.9086 88.1866L-11.8863 87.4533H-13.1084L-13.5973 86.9644H-15.0638L-14.3306 86.2312L-13.3529 85.7423L-13.5973 83.2981L-14.0861 82.8092L-15.0638 82.3204L-16.0415 79.1429L-16.7748 75.4765L-16.0415 73.7656L-15.0638 71.0769L-14.0861 66.9217L-13.5973 66.6773L-12.1307 64.9663V64.233V62.0332L-12.6196 60.5667L-13.1084 59.589L-13.5973 58.8557V58.1225L-13.1084 57.6336V55.6782L-13.5973 55.4338V51.0342L-14.575 48.5899V48.1011V47.3678L-14.0861 46.879V45.6569H-6.02016L-3.08707 45.168L0.0904338 46.1457L0.823705 44.9236H2.04582L3.51236 45.168L3.02352 46.3901L2.77909 47.1234L3.02352 47.8567L3.51236 48.5899L4.97891 49.8121L5.46775 50.7898V53.7228H4.97891V53.9673L5.22333 54.2117L5.46775 55.6782L6.44545 56.6559V60.0778L5.71218 60.8111L5.9566 62.0332L7.17872 63.2554V65.2107L6.44545 68.3883V70.3436L6.93429 71.3213V72.5435L6.44545 73.2767V74.4988L7.17872 76.2098L8.64526 77.9208L10.6006 79.3873L8.64526 81.5871L6.68987 81.8315ZM6.68987 81.8315L6.93429 80.6094L6.44545 79.8762L4.97891 79.6317L4.49006 79.3873" stroke="white"/>
<path d="M228.138 90.8753H223.249L222.516 89.8976H221.538H213.717L212.006 90.6309L210.539 92.5862L211.273 93.8084V94.7861L212.495 95.7637L213.228 96.2526V98.6968L213.717 99.6745L214.206 100.163V101.63L214.939 102.119L215.428 102.608L216.161 103.585V106.274L216.65 107.252V110.429L216.161 110.918L215.183 113.362L214.694 113.851H214.206L213.717 114.34V114.829L213.228 115.318V116.295L212.25 117.273L210.784 119.473L210.539 120.206L210.784 122.161L211.273 122.65V123.139L211.761 123.628H212.25H212.739L213.228 123.139L213.717 122.65H215.183L216.161 123.628L215.672 124.117H213.961V125.095H212.739L211.761 125.339L211.028 125.828V126.561L211.273 127.05V128.517L211.517 128.761L219.827 134.627L223.005 136.582L228.382 139.76L231.804 141.715L233.271 143.182V144.648L232.782 144.893V145.626L233.759 146.604L234.248 147.337L235.47 148.559L238.159 150.515L238.404 151.003L240.115 151.981L241.581 153.448L241.825 153.937L242.559 154.425L243.048 153.937H243.536L244.025 153.448V152.959L244.514 152.47V151.981L245.003 151.492V151.003L245.492 150.026V149.537L245.981 149.048V147.582L246.47 147.093V146.115H246.958V145.137H247.447L248.425 143.915H248.669L248.914 143.426V142.204L248.425 141.471L248.669 140.982L249.403 139.76L251.358 139.516L252.336 138.293V137.805H253.069L253.313 137.56V136.827V136.338L253.558 135.727L254.291 135.849H254.78L256.246 134.383L256.735 133.894L257.224 133.161L253.313 127.05V102.608L253.558 102.119L256.246 98.4524L258.202 94.2972H256.246L255.758 94.7861H255.024L254.78 94.2972H253.802V93.8084L252.336 92.3418H251.358L250.38 92.5862L249.158 93.3195L247.936 94.0528L246.958 95.0305L245.492 96.7414L244.759 98.208L243.292 97.4747H240.359L239.626 96.7414H236.448L235.226 96.2526L229.849 91.853L228.138 90.8753Z" fill="#0A2240"/>
<path d="M252.336 92.3418H251.358L250.38 92.5862L249.158 93.3195L247.936 94.0528L246.958 95.0305L245.492 96.7414L244.759 98.208L243.292 97.4747H240.359L239.626 96.7414H236.448L235.226 96.2526L229.849 91.853L228.138 90.8753H223.249L222.516 89.8976H221.538H213.717L212.006 90.6309L210.539 92.5862L211.273 93.8084V94.7861L212.495 95.7637L213.228 96.2526V98.6968L213.717 99.6745L214.206 100.163V101.63L214.939 102.119L215.428 102.608L216.161 103.585V106.274L216.65 107.252V110.429L216.161 110.918L215.183 113.362L214.694 113.851H214.206L213.717 114.34V114.829L213.228 115.318V116.295L212.25 117.273L210.784 119.473L210.539 120.206M252.336 92.3418V91.853M252.336 92.3418L253.802 93.8084V94.2972H254.78L255.024 94.7861H255.758L256.246 94.2972H258.202L256.246 98.4524L253.558 102.119L253.313 102.608V127.05L257.224 133.161L256.735 133.894L256.246 134.383L254.78 135.849H254.291M252.58 135.605H252.825L253.558 135.727M254.291 135.849V136.338M254.291 135.849L253.558 135.727M253.558 135.727L253.313 136.338V136.827M253.313 136.827H253.802M253.313 136.827V137.56L253.069 137.805H252.336V138.293L251.358 139.516L249.403 139.76L248.669 140.982L248.425 141.471L248.914 142.204V143.426L248.669 143.915H248.425L247.447 145.137H246.958V146.115H246.47V147.093L245.981 147.582V149.048L245.492 149.537V150.026L245.003 151.003V151.492L244.514 151.981V152.47L244.025 152.959V153.448L243.536 153.937H243.048L242.559 154.425L241.825 153.937L241.581 153.448L240.115 151.981L238.404 151.003L238.159 150.515L235.47 148.559L234.248 147.337L233.759 146.604L232.782 145.626V144.893L233.271 144.648V143.182L231.804 141.715L228.382 139.76L223.005 136.582L219.827 134.627L211.517 128.761L211.273 128.517V127.05L211.028 126.561V125.828L211.761 125.339L212.739 125.095H213.961V124.117H215.672L216.161 123.628L215.183 122.65H213.717L213.228 123.139L212.739 123.628H212.25H211.761L211.273 123.139V122.65L210.784 122.161L210.539 120.206M209.562 120.206H210.539" stroke="white"/>
<path d="M212.25 117.273L210.784 119.473L210.295 120.206H209.806L208.828 119.962L207.851 120.206L207.362 119.962V119.228L206.873 118.74H205.895V119.228L205.651 119.717L204.918 120.206V120.695H202.473V120.206H202.229L201.984 120.695L201.007 121.184L200.518 121.673L199.54 122.161H198.563L198.074 122.65V124.117L197.585 125.095L196.607 126.805V127.539L197.096 127.783V129.005H194.896L194.163 128.516L191.963 128.272L191.474 129.005H189.274H188.541L187.075 130.716V131.45H185.853L185.119 130.961H183.897V126.561L184.386 125.828V122.406L185.364 119.717L186.341 118.251V115.806L189.03 113.362L193.674 107.985L194.163 106.763L191.963 105.052H191.23V99.6745L191.963 98.4523L191.474 96.9858L191.719 96.7414L192.696 95.7637L193.674 95.2748H194.407L195.141 96.2525H195.874L196.852 95.2748H197.585L198.318 96.2525L199.296 96.9858L200.518 96.2525L203.207 95.0304H205.406L207.117 95.7637L210.539 92.5862L211.273 93.8083V94.786L212.495 95.7637L213.228 96.2525V98.6968L213.717 99.6745L214.206 100.163V101.141V101.63L214.939 102.119L215.428 102.608L216.161 103.585V105.541V106.274L216.65 107.252V110.429L216.161 110.918L215.183 113.362L214.695 113.851H214.206L213.717 114.34V114.829L213.228 115.318V116.295L212.25 117.273Z" fill="#0A2240"/>
<path d="M216.161 105.541V106.274L216.65 107.252V110.429L216.161 110.918L215.183 113.362L214.695 113.851H214.206L213.717 114.34V114.829L213.228 115.318V116.295L212.25 117.273L210.784 119.473L210.295 120.206H209.806L208.828 119.962M216.161 105.541H215.672M216.161 105.541V103.585L215.428 102.608L214.939 102.119L214.206 101.63V101.141M214.206 101.141H214.695M214.206 101.141V100.163L213.717 99.6745L213.228 98.6968V96.2525L212.495 95.7637L211.273 94.786V93.8083L210.539 92.5862L207.117 95.7637L205.406 95.0304H203.207L200.518 96.2525L199.296 96.9858L198.318 96.2525L197.585 95.2748H196.852L195.874 96.2525H195.141L194.407 95.2748H193.674L192.696 95.7637L191.719 96.7414L191.474 96.9858L191.963 98.4523L191.23 99.6745V105.052H191.963L194.163 106.763L193.674 107.985L189.03 113.362L186.341 115.806V118.251L185.364 119.717L184.386 122.406V125.828L183.897 126.561V130.961H185.119L185.853 131.45H187.075V130.716L188.541 129.005H189.274H191.474L191.963 128.272L194.163 128.516L194.896 129.005H197.096V127.783L196.607 127.539V126.805L197.585 125.095L198.074 124.117V122.65L198.563 122.161H199.54L200.518 121.673L201.007 121.184L201.984 120.695L202.229 120.206H202.473V120.695H204.918V120.206L205.651 119.717L205.895 119.228V118.74H206.873M206.873 118.74V118.251V118.006V118.74ZM206.873 118.74L207.362 119.228V119.962L207.851 120.206L208.828 119.962M208.828 119.228V119.473V119.962" stroke="white"/>
<path d="M216.65 202.088L215.917 201.599L215.183 200.377L214.694 199.888L213.961 198.911L213.717 198.177V196.955L214.206 196.466V195.977L213.717 195.489V192.8L213.228 191.089L212.739 190.111H212.495L212.25 189.867L211.517 188.645L211.273 187.667H209.806V188.645L207.851 188.156H207.362L204.429 186.689H203.451L202.473 185.712H201.74L200.274 184.734L198.074 184.245L197.096 183.267H196.363L194.652 181.556H193.185L192.696 180.823V179.845L192.208 179.357L191.719 178.379L190.741 175.446L190.252 174.957V174.468L189.763 174.224V173.49V172.513L189.274 172.024V170.069L188.786 169.091V168.602L188.297 168.113L187.808 167.624V167.135L187.319 166.647L186.341 166.158H185.364L184.875 165.913L184.386 164.691L184.875 163.714L185.853 162.736V161.269L185.608 161.025L184.875 159.593V156.625L184.386 155.892L183.897 155.403V151.981L184.63 152.714L186.586 150.759L188.786 146.848V146.115L189.763 145.871L190.741 144.893L191.23 143.426V142.938L189.763 142.449L189.274 142.244V139.271L190.252 138.538H191.23L191.719 138.049V136.094L190.985 132.427L189.03 129.005H191.474L191.963 128.272L194.163 128.517L194.896 129.005H197.585L197.829 129.983L196.607 134.138L196.363 135.116L197.096 135.849L196.607 136.338V137.805L197.096 138.782V140.738H197.585L198.074 140.249L198.563 140.004V139.271L199.051 138.782L199.54 138.293L200.029 137.805H200.518V137.316L201.007 138.538L201.496 139.271H201.984V138.782H202.962L203.451 139.516V140.738L202.962 141.715V142.204H203.451L203.94 141.715L204.551 141.349L203.94 140.738V138.782L205.651 138.538L206.873 139.271L208.828 137.805L209.806 137.316V136.827L209.317 136.338H208.828L208.095 136.827H207.362L206.873 136.338L206.14 136.582L205.895 135.849L206.873 135.36H207.362V134.383L208.339 133.894L208.828 133.405V132.916L208.339 132.427L208.828 131.938H209.317L209.806 132.427H210.295L210.784 131.938L210.295 131.45L210.784 130.961L210.295 130.472V130.227L210.784 129.494L211.517 128.761L220.316 134.872L225.449 138.049L231.804 141.715L233.271 143.182V144.648L232.782 144.893V145.626L233.76 146.604L234.248 147.337L235.471 148.559L237.181 149.781L238.159 150.515L238.404 151.003L240.115 151.981L241.581 153.448L241.826 153.937L242.559 154.425L241.581 157.114V158.336L240.115 161.758V165.18L241.092 166.647L242.559 167.869V168.113V168.602H243.048H243.536L244.025 169.335V169.58V171.046L243.536 171.535V172.024L243.048 172.513V173.002L242.559 173.979V174.468V175.446H243.048L243.536 175.935V176.668V177.646L243.048 178.623V178.868L242.559 179.357V180.823L243.048 181.312V182.29L243.536 182.779V184.245L244.514 185.223V186.445L244.759 189.134L245.492 190.845L245.981 191.089L246.958 192.067L248.181 192.556L249.158 194.022L248.181 195.489L246.958 196.466L244.514 197.444L241.581 199.155H239.87L236.937 200.866L234.737 199.399L234.004 199.644L231.56 202.821H229.36L228.138 201.844H227.16L225.449 203.31L224.471 203.066L223.983 202.821L221.783 201.599L221.538 200.621L218.605 202.332L216.65 202.088Z" fill="#0A2240"/>
<path d="M242.559 175.935V175.446H243.048L243.536 175.935V176.668V177.646L243.048 178.623V178.868L242.559 179.357V180.823L243.048 181.312V182.29L243.536 182.779V184.245L244.514 185.223V186.445L244.759 189.134L245.492 190.845L245.981 191.089L246.958 192.067L248.181 192.556L249.158 194.022L248.181 195.489L246.958 196.466L244.514 197.444L241.581 199.155H239.87L236.937 200.866L234.737 199.399L234.004 199.644L231.56 202.821H229.36L228.138 201.844H227.16L225.449 203.31L224.471 203.066L223.983 202.821L221.783 201.599L221.538 200.621L218.605 202.332L216.65 202.088L215.917 201.599L215.183 200.377L214.694 199.888L213.961 198.911L213.717 198.177V196.955L214.206 196.466V195.977L213.717 195.489V192.8L213.228 191.089L212.739 190.111H212.495L212.25 189.867L211.517 188.645L211.273 187.667H209.806V188.645L207.851 188.156H207.362L204.429 186.689H203.451L202.473 185.712H201.74L200.274 184.734L198.074 184.245L197.096 183.267H196.363L194.652 181.556H193.185L192.696 180.823V179.845L192.208 179.357L191.719 178.379L190.741 175.446L190.252 174.957V174.468L189.763 174.224V173.49V172.513L189.274 172.024V170.069L188.786 169.091V168.602L188.297 168.113L187.808 167.624V167.135L187.319 166.647L186.341 166.158H185.364L184.875 165.913L184.386 164.691L184.875 163.714L185.853 162.736V161.269L185.608 161.025L184.875 159.593V156.625L184.386 155.892L183.897 155.403V151.981L184.63 152.714L186.586 150.759L188.786 146.848V146.115L189.763 145.871L190.741 144.893L191.23 143.426V142.938L189.763 142.449L189.274 142.244V139.271L190.252 138.538H191.23L191.719 138.049V136.094L190.985 132.427L189.03 129.005H191.474L191.963 128.272L194.163 128.517L194.896 129.005H197.585L197.829 129.983L196.607 134.138L196.363 135.116L197.096 135.849L196.607 136.338V137.805L197.096 138.782V140.738H197.585L198.074 140.249L198.563 140.004M242.559 175.935V176.179M242.559 175.935V174.468V173.979L243.048 173.002V172.513L243.536 172.024V171.535L244.025 171.046V169.58V169.335L243.536 168.602H243.048M243.048 168.602V169.335M243.048 168.602H242.559V168.113V167.869L241.092 166.647L240.115 165.18V161.758L241.581 158.336V157.114L242.559 154.425L241.826 153.937L241.581 153.448L240.115 151.981L238.404 151.003L238.159 150.515L237.181 149.781L235.471 148.559L234.248 147.337L233.76 146.604L232.782 145.626V144.893L233.271 144.648V143.182L231.804 141.715L225.449 138.049L220.316 134.872L211.517 128.761L210.784 129.494L210.295 130.227V130.472L210.784 130.961L210.295 131.45L210.784 131.938L210.295 132.427H209.806L209.317 131.938H208.828L208.339 132.427L208.828 132.916V133.405L208.339 133.894L207.362 134.383V135.36H207.851H208.095H206.873L205.895 135.849L206.14 136.582L206.873 136.338L207.362 136.827H208.095L208.828 136.338H209.317L209.806 136.827V137.316L208.828 137.805L206.873 139.271L205.651 138.538L203.94 138.782V140.738L204.551 141.349M205.162 141.96L204.551 141.349M204.551 141.349L203.94 141.715L203.451 142.204H202.962V141.715L203.451 140.738V139.516L202.962 138.782H201.984V139.271H201.496L201.007 138.538L200.518 137.316M200.518 137.316V137.071M200.518 137.316V137.805H200.029L199.54 138.293L199.051 138.782M199.051 138.782L199.54 139.271V139.76M199.051 138.782L198.563 139.271V140.004M198.563 140.738V140.004" stroke="white"/>
<path d="M245.003 176.912V175.934L245.736 174.957H245.981H246.225L246.469 175.69L245.492 176.912H245.003Z" fill="#CED3D9" stroke="white"/>
<path d="M229.849 91.853L228.382 90.8753H223.249L221.049 87.9422L221.538 86.9645V85.2535L220.561 84.5203H218.605L216.894 82.076L216.65 80.3651L216.161 79.6318L215.183 75.9654L213.228 73.7656L211.761 72.7879L210.05 69.8548L208.339 68.6327H207.606L205.895 68.3883L204.429 67.4106V65.9441L204.917 64.7219L205.651 63.4998L207.362 63.011L208.339 63.4998H210.05L211.028 62.7666L211.272 58.1225H210.539V54.945L211.272 53.4785V52.5008L211.761 51.0342L212.25 48.3456L213.472 46.3902L214.206 46.6346L214.939 47.3679L215.672 45.9013L216.161 42.235L216.894 39.7907L219.827 34.6578L220.805 33.9246L222.76 33.4357V29.5249L223.982 28.5472L224.716 22.6811H227.893L229.115 21.7034L229.36 21.9478L230.826 23.9032L232.782 19.748L232.537 18.5259L236.448 21.7034H238.648L239.87 20.4813L241.092 21.7034H247.203L250.869 24.392L253.558 27.814L260.89 35.1467L260.402 36.1244L257.224 40.2796V44.6792L257.957 45.9013H258.691L261.868 44.6792L263.579 45.4125H264.068L263.09 47.3679V49.5677L267.734 56.4115L272.134 59.8335L289.977 66.4329H295.354L290.466 71.8102L285.822 77.432L277.756 87.4533H270.667L267.49 88.9199L263.824 92.0974H260.646L258.691 94.2972H256.246L255.758 94.786H255.024L254.78 94.2972H253.802V93.8083L252.336 92.3418H251.358L250.38 92.5862L247.936 94.0528L246.958 95.0305L245.492 96.7414L244.758 98.208L243.292 97.4747H240.359L239.626 96.7414H236.448L235.226 96.2526L229.849 91.853Z" fill="#0A2240"/>
<path d="M252.336 92.3418H251.358L250.38 92.5862L247.936 94.0528L246.958 95.0305L245.492 96.7414L244.758 98.208L243.292 97.4747H240.359L239.626 96.7414H236.448L235.226 96.2526L229.849 91.853L228.382 90.8753H223.249L221.049 87.9422L221.538 86.9645V85.2535L220.561 84.5203H218.605L216.894 82.076L216.65 80.3651L216.161 79.6318L215.183 75.9654L213.228 73.7656L211.761 72.7879L210.05 69.8548L208.339 68.6327H207.606L205.895 68.3883L204.429 67.4106V65.9441L204.917 64.7219L205.651 63.4998L207.362 63.011L208.339 63.4998H210.05L211.028 62.7666L211.272 58.1225H210.539V54.945L211.272 53.4785V52.5008L211.761 51.0342L212.25 48.3456L213.472 46.3902L214.206 46.6346L214.939 47.3679L215.672 45.9013L216.161 42.235L216.894 39.7907L219.827 34.6578L220.805 33.9246L222.76 33.4357V29.5249L223.982 28.5472L224.716 22.6811H227.893L229.115 21.7034L229.36 21.9478L230.826 23.9032L232.782 19.748L232.537 18.5259L236.448 21.7034H238.648L239.87 20.4813L241.092 21.7034H247.203L250.869 24.392L253.558 27.814L260.89 35.1467L260.402 36.1244L257.224 40.2796V44.6792L257.957 45.9013H258.691L261.868 44.6792L263.579 45.4125H264.068L263.09 47.3679V49.5677L267.734 56.4115L272.134 59.8335L289.977 66.4329H295.354L290.466 71.8102L285.822 77.432L277.756 87.4533H270.667L267.49 88.9199L263.824 92.0974H260.646L258.691 94.2972H256.246L255.758 94.786H255.024L254.78 94.2972H253.802V93.8084L252.336 92.3418ZM252.336 92.3418V91.853" stroke="white"/>
<path d="M-20.6855 -49.1794L-23.863 -51.6237L-24.3519 -51.3792H-34.1288L-34.6177 -50.8904V-48.935L-34.1288 -48.6906V-44.7798L-33.64 -43.8021V-39.4025L-33.1511 -38.4248V-33.7807L-32.6623 -32.3142V-27.4257L-32.1734 -26.6924V-20.8263L-31.929 -19.3597L-31.6846 -13.738V-13.2491L-31.1957 -6.40529L-30.218 5.81589V7.03801L-29.7292 7.77128L-28.7515 8.74897V10.7044L-29.2404 11.6821V13.1486L-29.7292 14.1263V14.6151H-39.9081L-40.4838 14.1263H-42.4392L-43.1725 14.6151H-49.2831V15.104H-50.2608L-50.7496 14.6151H-51.9717L-53.1939 13.6375L-54.6604 15.104H-55.1492V15.5928H-57.3491L-59.06 14.6151H-60.5266L-61.5043 15.5928L-62.482 16.5705V17.0594L-62.9708 16.5705V16.0817L-63.4597 15.5928L-64.4373 15.104V14.8596L-65.1706 14.1263L-65.9039 13.6375H-66.8816L-67.3704 14.3707V14.8596L-68.3481 19.2592L-70.3035 19.748V21.2146V22.1923L-69.3258 23.4144V26.3475L-69.8147 26.8363V27.3252L-69.3258 27.814L-68.837 28.7917L-68.1037 29.2806H-67.126L-66.3927 30.2583V30.7471L-65.9039 31.4804V32.9469V36.1895V38.0798L-65.415 38.5687H-64.4373V38.0798L-63.9485 37.591L-63.7041 37.1021H-62.2375L-61.9931 37.591V38.3242L-61.5043 39.0575H-61.0154L-60.2821 38.0798L-59.3045 37.591L-59.06 37.1021H-58.5712L-58.0823 37.591H-57.5935L-56.6158 38.5687L-55.3937 38.0798L-54.6604 37.591V37.1021H-53.6827L-53.1939 36.6133V35.1467H-52.705L-51.7273 35.6356L-51.2385 36.1244L-50.7496 37.591L-50.2608 38.5687V40.7685L-49.2831 41.5017L-47.8165 42.9683L-49.2831 44.4348L-48.7942 44.9237L-48.3054 45.4125H-47.5721H-47.3277L-46.8388 46.1458V47.3679H-47.3277L-47.5721 47.6123L-47.0833 48.1012L-46.35 49.5677L-45.1279 50.5454L-44.8835 51.0343L-43.9058 50.301V49.8121L-42.9281 49.5677H-42.1948L-40.7283 51.2787H-39.2617L-39.0173 50.301L-37.3063 50.0566V48.1012L-37.0619 47.8568L-36.3286 48.8344H-35.5954L-35.3509 47.8568L-34.6177 47.6123V50.7898H-33.1511L-32.1734 49.8121L-31.1957 49.3233L-30.218 49.5677V48.3456L-29.7292 47.3679V46.6346L-30.218 46.1458V45.4125L-29.7292 44.9237L-29.2403 44.4348L-28.7515 43.946L-28.2627 42.9683V41.7462L-28.7515 41.5017V40.524V40.0352V39.5463L-28.2627 39.0575H-27.285L-26.7961 38.5687H-25.3296L-23.863 37.1021V36.6133L-23.3742 35.6356V34.6579L-23.863 34.169V33.6802H-22.8853L-22.3965 33.1913L-21.9076 32.7025V32.2136L-22.3965 31.7248V30.7471L-21.9076 29.7694L-21.1744 28.7917L-20.9299 28.5473L-20.6855 28.7917L-20.1967 29.0361L-19.4634 29.7694H-18.9746L-17.9969 30.2583H-17.508L-17.0192 29.7694H-16.5303V28.0584L-16.0415 26.8363H-15.3082L-15.0638 27.3252H-14.5749L-14.0861 26.8363V26.3475L-13.5972 25.6142V24.8809L-13.1084 24.3921L-12.864 23.9032L-12.1307 22.9255H-10.6642L-9.68646 23.9032L-9.19761 23.4144L-8.70877 22.9255V22.4367L-7.73107 21.9479L-7.24223 21.459L-5.53126 20.4813L-3.8203 19.5036L-2.8426 19.0148L-2.10933 18.2815L-1.62048 17.7926L-0.887207 17.5482L-0.398361 17.3038H0.334908L0.823753 17.5482H3.51241L4.00126 18.0371H9.37858L10.8451 16.5705L11.8228 16.0817H15.4892L15.7336 15.5928L16.2224 15.3484L16.7113 15.5928H21.1109L21.5998 15.104H22.0886L22.333 14.8596H22.8219L23.3107 15.104H23.5551L23.7996 15.3484H24.2884L25.0217 15.104V14.6151L26.9771 12.6598L27.4659 11.6821L28.4436 9.23782V8.74897L28.9325 8.26013V4.30724L29.4213 3.61608V-2.00566V-11.2015L28.688 -11.0493L26.7327 -10.0716H24.044L23.3107 -10.5605V-12.027L23.7996 -13.0047V-14.4713L23.3107 -15.9378L22.5774 -16.4267L21.5998 -16.9155H19.8888L17.4445 -19.1153L16.4669 -18.382H15.978L15.0003 -19.3597L14.5115 -20.3374L13.5338 -21.3151L12.5561 -21.5596L11.5784 -22.2928V-24.2482L10.6007 -25.2259L3.75683 -30.3588L-2.10934 -35.0029L-7.24223 -38.9136L-16.7748 -46.2463L-20.6855 -49.1794Z" fill="#CED3D9"/>
<path d="M-28.7515 40.0352V40.524V41.5017L-28.2627 41.7462V42.9683L-28.7515 43.946L-29.2403 44.4348L-29.7292 44.9237L-30.218 45.4125V46.1458L-29.7292 46.6346V47.3679L-30.218 48.3456V49.5677L-31.1957 49.3233L-32.1734 49.8121L-33.1511 50.7898H-34.6177V47.6123L-35.3509 47.8568L-35.5954 48.8344H-36.3286L-37.0619 47.8568L-37.3063 48.1012V50.0566L-39.0173 50.301L-39.2617 51.2787H-40.7283L-42.1948 49.5677H-42.9281L-43.9058 49.8121V50.301L-44.8835 51.0343L-45.1279 50.5454L-46.35 49.5677L-47.0833 48.1012L-47.5721 47.6123L-47.3277 47.3679H-46.8388V46.1458L-47.3277 45.4125H-47.5721H-48.3054L-48.7942 44.9237L-49.2831 44.4348L-47.8165 42.9683L-49.2831 41.5017L-50.2608 40.7685V38.5687L-50.7496 37.591L-51.2385 36.1244L-51.7273 35.6356L-52.705 35.1467H-53.1939V36.6133L-53.6827 37.1021H-54.6604V37.591L-55.3937 38.0798L-56.6158 38.5687L-57.5935 37.591H-58.0823L-58.5712 37.1021H-59.06L-59.3045 37.591L-60.2821 38.0798L-61.0154 39.0575H-61.5043L-61.9931 38.3242V37.591L-62.2375 37.1021H-63.7041L-63.9485 37.591L-64.4373 38.0798V38.5687H-65.415L-65.9039 38.0798V36.1895V32.9469V31.4804L-66.3927 30.7471V30.2583L-67.126 29.2806H-68.1037L-68.837 28.7917L-69.3258 27.814L-69.8147 27.3252V26.8363L-69.3258 26.3475V23.4144L-70.3035 22.1923V21.2146V19.748L-68.3481 19.2592L-67.3704 14.8596V14.3707L-66.8816 13.6374H-65.9039L-65.1706 14.1263L-64.4373 14.8596V15.104L-63.4597 15.5928L-62.9708 16.0817V16.5705L-62.482 17.0594V16.5705L-61.5043 15.5928L-60.5266 14.6151H-59.06L-57.3491 15.5928H-55.1492V15.104H-54.6604L-53.1939 13.6374L-51.9717 14.6151H-50.7496L-50.2608 15.104H-49.2831V14.6151H-43.1725L-42.4392 14.1263H-40.4838L-39.9081 14.6151H-29.7292V14.1263L-29.2404 13.1486V11.6821L-28.7515 10.7044V8.74898L-29.7292 7.77128L-30.218 7.03801V5.81589L-31.1957 -6.40529L-31.6846 -13.2491V-13.738L-31.929 -19.3597L-32.1734 -20.8263V-26.6924L-32.6623 -27.4257V-32.3142L-33.1511 -33.7807V-38.4248L-33.64 -39.4025V-43.8021L-34.1288 -44.7798V-48.6906L-34.6177 -48.935V-50.8904L-34.1288 -51.3792H-24.3519L-23.863 -51.6237L-20.6855 -49.1794L-16.7748 -46.2463L-7.24223 -38.9136L-2.10934 -35.0029L3.75683 -30.3588L10.6007 -25.2259L11.5784 -24.2482V-22.2928L12.5561 -21.5596L13.5338 -21.3151L14.5115 -20.3374L15.0003 -19.3597L15.978 -18.382H16.4669L17.4446 -19.1153L19.8888 -16.9155H21.5998L22.5774 -16.4267L23.3107 -15.9378L23.7996 -14.4713V-13.0047L23.3107 -12.027V-10.5605L24.044 -10.0716H26.7326L28.688 -11.0493L29.4213 -11.2015V-2.00566V3.61608L28.9325 4.30724V8.26013L28.4436 8.74898V9.23782L27.4659 11.6821L26.9771 12.6598L25.0217 14.6151V15.104L24.2884 15.3484H23.7996L23.5551 15.104H23.3107L22.8219 14.8596H22.333L22.0886 15.104H21.5998L21.1109 15.5928H16.7113L16.2224 15.3484L15.7336 15.5928L15.4892 16.0817H11.8228L10.8451 16.5705L9.37858 18.0371H4.00126L3.51241 17.5482H0.823754L0.334907 17.3038H-0.398364L-0.887211 17.5482L-1.62048 17.7926L-2.10933 18.2815L-2.8426 19.0148L-3.82029 19.5036L-5.53126 20.4813L-7.24222 21.459L-7.73107 21.9479L-8.70877 22.4367V22.9255L-9.19761 23.4144L-9.68646 23.9032L-10.6642 22.9255H-12.1307L-12.864 23.9032L-13.1084 24.3921L-13.5972 24.8809V25.6142L-14.0861 26.3475V26.8363L-14.5749 27.3252H-15.0638L-15.3082 26.8363H-16.0415L-16.5303 28.0584V29.7694H-17.0192L-17.508 30.2583H-17.9969L-18.9746 29.7694H-19.4634L-20.1967 29.0361L-20.6855 28.7917L-20.9299 28.5473M-28.7515 40.0352H-29.2403H-29.4848H-28.7515ZM-28.7515 40.0352V39.5464L-28.2627 39.0575H-27.285L-26.7961 38.5687H-25.3296L-23.863 37.1021V36.6133L-23.3742 35.6356V34.6579L-23.863 34.169V33.6802H-22.8853L-22.3965 33.1913L-21.9076 32.7025V32.2136L-22.3965 31.7248V30.7471L-21.9076 29.7694L-21.1744 28.7917L-20.9299 28.5473M-20.9299 28.5473V28.3029" stroke="white"/>
<path d="M37.4873 -13.0048L36.7541 -12.516L29.4214 -11.1827V-7.87192V-4.44999V-1.24847V3.61599L28.9325 4.38026V5.57138V8.26004L28.4437 8.74889V9.23774L27.466 11.682L26.9771 12.6597L25.755 13.8818L25.0217 14.6151V15.1039L24.2885 15.3483H23.7996L23.5552 15.1039H23.3108L22.8219 14.8595H22.3331L22.0887 15.1039H21.5998L21.111 15.5928H19.8888H16.7113L16.2225 15.3483L15.7336 15.5928L15.4892 16.0816H12.3117H11.8229L10.8452 16.5704L9.37863 18.037H4.979V21.4589L5.46785 22.4366V23.4143L5.9567 23.9032V24.8808L6.93439 25.8585L7.42324 26.8362L7.91209 27.3251L8.88978 27.8139H9.37863L9.86748 28.3028L9.37863 29.2805H9.86748V28.7916H10.3563L11.0896 29.2805L10.6007 29.7693H9.37863V30.747L9.86748 31.2359V31.4803L10.3563 32.2136L12.3117 34.1689H14.5115L15.0004 33.6801H15.9781L16.4669 34.1689L16.7113 34.6578L17.2002 35.6355L16.2225 36.1243V37.102L17.2002 38.0797H17.689L18.4223 36.8576L19.6444 36.6132L20.1333 36.1243H21.111L23.0664 38.0797V39.0574L24.2885 39.5463L25.0217 40.524H25.2662L25.5106 40.0351V35.6355L27.7104 32.7024L28.4437 30.5026V29.036L30.3991 27.3251L31.8656 26.3474H35.0431L36.2652 25.6141L37.9762 25.8585L41.6425 27.3251L43.1091 28.0583L43.8424 29.5249L45.5533 31.7247H46.2866L50.9306 29.5249H51.9083L53.8637 30.747L56.5524 31.9691L57.7745 32.7024H60.2187L60.7076 33.1912H61.6853L62.1741 32.7024L62.663 31.7247L64.1295 30.2582L65.1072 30.0137L66.5737 29.2805H68.7736L69.9957 28.7916L70.729 29.2805H73.4176L76.5951 30.747L79.0394 30.9914L79.5282 30.2582L84.1722 26.8362H85.3944L86.3721 27.0807L85.8832 26.3474L85.1499 21.9478L87.3498 19.0147L88.3275 15.5928L91.9938 10.9487L95.1713 7.28235L96.6379 4.34926L97.3711 -0.539207L98.3488 -15.6935L99.8154 -18.3821V-19.8487L97.3711 -21.8041V-24.2483L95.4157 -26.937L95.1713 -29.1368L94.1936 -35.9806L93.873 -37.5714L92.2382 -36.9583L90.2828 -35.0029L88.083 -36.4695L87.1053 -37.4472L83.1946 -39.8914L81.2392 -40.3803H80.9947L78.5505 -40.8691L76.1063 -41.1135L74.6397 -40.3803L72.6843 -39.1581L69.2624 -36.9583L66.3293 -34.7585L58.2633 -29.6256L56.308 -28.1591L54.1081 -25.9593L53.1305 -26.2037L51.9083 -24.7371H51.1751L50.1974 -23.515L47.2643 -21.3152L39.4427 -13.4937L38.465 -13.0048H38.2206H37.4873Z" fill="#CED3D9"/>
<path d="M94.1936 -37.6916L93.873 -37.5714M93.873 -37.5714L92.2382 -36.9583L90.2828 -35.0029L88.083 -36.4695L87.1053 -37.4472L83.1946 -39.8914L81.2392 -40.3803H80.9947L78.5505 -40.8691L76.1063 -41.1135L74.6397 -40.3803L72.6843 -39.1581L69.2624 -36.9583L66.3293 -34.7585L58.2633 -29.6256L56.308 -28.1591L54.1081 -25.9593L53.1305 -26.2037L51.9083 -24.7371H51.1751L50.1974 -23.515L47.2643 -21.3152L39.4427 -13.4937L38.465 -13.0048H38.2206H37.4873L36.7541 -12.516L29.4214 -11.1827V-7.87192V-4.44999V-1.24848V3.61599L28.9325 4.38026V5.57138V8.26004L28.4437 8.74889V9.23774L27.466 11.682L26.9771 12.6597L25.755 13.8818L25.0217 14.6151V15.1039L24.2885 15.3483H23.7996L23.5552 15.1039H23.3108L22.8219 14.8595H22.3331L22.0887 15.1039H21.5998L21.111 15.5927H19.8888H16.7113L16.2225 15.3483L15.7336 15.5927L15.4892 16.0816H12.3117H11.8229L10.8452 16.5704L9.37863 18.037H4.979V21.4589L5.46785 22.4366V23.4143L5.9567 23.9032V24.8808L6.93439 25.8585L7.42324 26.8362L7.91209 27.3251L8.88978 27.8139H9.37863L9.86748 28.3028L9.37863 29.2805H9.86748V28.7916H10.3563L11.0896 29.2805L10.6007 29.7693H9.37863V30.747L9.86748 31.2359V31.4803L10.3563 32.2136L12.3117 34.1689H14.5115L15.0004 33.6801H15.9781L16.4669 34.1689L16.7113 34.6578L17.2002 35.6355L16.2225 36.1243V37.102L17.2002 38.0797H17.689L18.4223 36.8576L19.6444 36.6132L20.1333 36.1243H21.111L23.0664 38.0797V39.0574L24.2885 39.5463L25.0217 40.524H25.2662L25.5106 40.0351V35.6355L27.7104 32.7024L28.4437 30.5026V29.036L30.3991 27.3251L31.8656 26.3474H35.0431L36.2652 25.6141L37.9762 25.8585L41.6425 27.3251L43.1091 28.0584L43.8424 29.5249L45.5533 31.7247H46.2866L50.9306 29.5249H51.9083L53.8637 30.747L56.5524 31.9691L57.7745 32.7024H60.2187L60.7076 33.1912H61.6853L62.1741 32.7024L62.663 31.7247L64.1295 30.2582L65.1072 30.0137L66.5738 29.2805H68.7736L69.9957 28.7916L70.729 29.2805H73.4176L76.5951 30.747L79.0394 30.9914L79.5282 30.2582L84.1722 26.8362H85.3944L86.3721 27.0807L85.8832 26.3474L85.1499 21.9478L87.3498 19.0147L88.3275 15.5927L91.9938 10.9487L95.1713 7.28235L96.6379 4.34926L97.3711 -0.539208L98.3488 -15.6935L99.8154 -18.3821V-19.8487L97.3711 -21.8041V-24.2483L95.4157 -26.937L95.1713 -29.1368L94.1936 -35.9806L93.873 -37.5714Z" stroke="white"/>
<path d="M-13.1083 55.6782V56.9003L-14.5749 55.6782V55.4338L-15.0637 54.7005V53.9673L-16.0414 53.234H-20.4411L-20.9299 53.7228H-21.6632L-22.8853 54.9449L-23.3741 55.1894L-25.0851 54.7005L-26.0628 54.2117L-26.7961 53.234L-27.5293 51.2786L-28.9959 50.3009L-29.9736 50.0565L-30.218 49.5676V48.3455L-29.7292 47.3678V46.6345L-30.218 46.1457V45.4124L-28.7515 43.9459L-28.2626 42.9682V41.7461L-28.7515 41.5016V39.5463L-28.2626 39.0574H-27.2849L-26.7961 38.5686H-25.3295L-23.863 37.102V36.6132L-23.3741 35.6355V34.6578L-23.863 34.1689V33.6801H-22.8853L-21.9076 32.7024V32.2136L-22.3964 31.7247V30.747L-21.9076 29.7693L-21.1743 28.7916H-20.9299H-20.6855L-20.1966 29.036L-19.4634 29.7693H-18.9745L-17.9968 30.2582H-17.508L-17.0191 29.7693H-16.5303V28.0583L-16.0414 26.8362H-15.3082L-15.0637 27.3251H-14.5749L-14.086 26.8362V26.3474L-13.5972 25.6141V24.8808L-13.1083 24.392L-12.8639 23.9031L-12.1307 22.9255H-10.6641L-9.68642 23.9031L-8.70872 22.9255V22.4366L-7.73103 21.9478L-7.24218 21.4589L-2.84256 19.0147L-1.62044 17.7926L-0.887169 17.5481L-0.398321 17.3037H0.0905266L0.579372 17.5481H3.51245L4.0013 18.037H4.979V18.2814V21.4589L5.46785 22.4366V23.4143L5.95669 23.9031V24.8808L6.93439 25.8585L7.42323 26.8362L7.91208 27.3251L8.88977 27.8139H9.37862L9.86747 28.3028L9.37862 29.2805V29.7693V30.747L9.86747 31.2359V31.4803L10.3563 32.2136L12.3117 34.1689H14.5115L15.0004 33.6801H15.9781L16.4669 34.1689L17.2002 35.6355L16.2225 36.1243V37.102L17.4446 38.3241V41.0128L16.2225 41.9905L14.5115 42.9682H13.5338L13.045 42.4793H11.8229L8.88977 45.6568H5.95669L5.22342 45.4124L3.51245 45.168L2.04591 44.9236H0.823797L0.0905266 46.1457L-3.08698 45.168L-6.10102 45.6568H-14.086V46.879L-14.5749 47.3678V48.5899L-13.5972 51.0342V55.4338L-13.1083 55.6782Z" fill="#CED3D9" stroke="white"/>
</g>
</g>
<defs>
<clipPath id="clip0_30_2419">
<rect width="345" height="245" fill="white" transform="translate(-0.958496)"/>
</clipPath>
</defs>
</svg>
