<svg width="50" height="50" viewBox="0 0 50 50" fill="none" xmlns="http://www.w3.org/2000/svg">
<g clip-path="url(#clip0_16_3698)">
<path d="M47.5193 35.8695C49.1086 32.5829 50 28.8955 50 25C50 21.1045 49.1086 17.4171 47.5193 14.1305L25 13.0435L2.48066 14.1304C0.891406 17.4171 0 21.1045 0 25C0 28.8955 0.891406 32.5829 2.48066 35.8695L25 36.9565L47.5193 35.8695Z" fill="#FFDA2C"/>
<path d="M25 0C15.0885 0 6.5244 5.76807 2.48065 14.1305H47.5192C43.4756 5.76807 34.9114 0 25 0Z" fill="#02070D"/>
<path d="M25 50C15.0885 50 6.5244 44.2319 2.48065 35.8695H47.5192C43.4756 44.2319 34.9114 50 25 50Z" fill="#1A47B8"/>
<path d="M48.8194 17.3913H1.18057C0.414746 19.7906 0 22.3468 0 25C0 27.6532 0.414746 30.2094 1.18057 32.6087H48.8193C49.5853 30.2094 50 27.6532 50 25C50 22.3468 49.5853 19.7906 48.8194 17.3913Z" fill="#DF0A37"/>
<path d="M8.69562 23.9131H41.3043V26.087H8.69562V23.9131Z" fill="#FFDA2C"/>
<path d="M13.0435 19.5652H36.9565V21.7392H13.0435V19.5652Z" fill="#FFDA2C"/>
<path d="M37.1118 25C37.1118 25 31.5217 31.5218 25 31.5218C18.4783 31.5218 18.4782 25 18.4782 25C18.4782 25 18.4782 18.4782 25 18.4782C31.5218 18.4782 37.1118 25 37.1118 25Z" fill="white"/>
<path d="M25 31.5218C18.4782 31.5218 12.8882 25 12.8882 25C12.8882 25 18.4782 18.4782 25 18.4782" fill="#02070D"/>
<path d="M20.6522 22.8261H22.8261V27.1739H20.6522V22.8261Z" fill="white"/>
<path d="M27.174 22.8261H29.3479V27.1739H27.174V22.8261Z" fill="#02070D"/>
<path d="M8.69559 27.1739C9.89622 27.1739 10.8695 26.2006 10.8695 25C10.8695 23.7994 9.89622 22.8261 8.69559 22.8261C7.49497 22.8261 6.52167 23.7994 6.52167 25C6.52167 26.2006 7.49497 27.1739 8.69559 27.1739Z" fill="#1A47B8"/>
<path d="M41.3044 27.1739C42.505 27.1739 43.4783 26.2006 43.4783 25C43.4783 23.7994 42.505 22.8261 41.3044 22.8261C40.1038 22.8261 39.1305 23.7994 39.1305 25C39.1305 26.2006 40.1038 27.1739 41.3044 27.1739Z" fill="#1A47B8"/>
</g>
<defs>
<clipPath id="clip0_16_3698">
<rect width="50" height="50" fill="white"/>
</clipPath>
</defs>
</svg>
