<svg width="50" height="50" viewBox="0 0 50 50" fill="none" xmlns="http://www.w3.org/2000/svg">
<g clip-path="url(#clip0_30_2562)">
<path d="M0 25C0 28.0582 0.550098 30.9875 1.55508 33.6959L25 35.8696L48.4449 33.6958C49.45 30.9875 50 28.0581 50 25C50 21.9839 49.4657 19.0926 48.4869 16.4156L25 14.1305L1.51309 16.4156C0.534277 19.0926 0 21.9839 0 25H0Z" fill="#FFDA2C"/>
<path d="M25 50C35.7491 50 44.9127 43.2156 48.445 33.6956H1.55498C5.0873 43.2156 14.2509 50 25 50Z" fill="#F93939"/>
<path d="M25 0C14.2509 0 5.0873 6.78438 1.55498 16.3044H48.4451C44.9127 6.78438 35.7491 0 25 0Z" fill="#249F58"/>
<path d="M25 36.9565C31.6034 36.9565 36.9565 31.6034 36.9565 25C36.9565 18.3966 31.6034 13.0435 25 13.0435C18.3966 13.0435 13.0435 18.3966 13.0435 25C13.0435 31.6034 18.3966 36.9565 25 36.9565Z" fill="#1A47B8"/>
<path d="M24.9975 15.7413L27.1559 22.3841H34.1517L28.4897 26.4897L30.6651 33.1522L24.9975 29.0271L19.3385 33.1446L21.5051 26.4897L15.8483 22.3841H22.8391L24.9975 15.7413Z" fill="#FFDA2C"/>
<path d="M33.6059 26.6533L26.7586 24.4283L30.9903 18.6041L29.2317 17.3262L24.9998 23.1508L20.7683 17.3263L19.0095 18.604L23.2411 24.4287L16.3941 26.6532L17.0658 28.7209L23.9131 26.4962V33.6956H26.0869V26.4961L32.9339 28.7209L33.6059 26.6533Z" fill="#FFDA2C"/>
</g>
<defs>
<clipPath id="clip0_30_2562">
<rect width="50" height="50" fill="white"/>
</clipPath>
</defs>
</svg>
