<svg width="50" height="50" viewBox="0 0 50 50" fill="none" xmlns="http://www.w3.org/2000/svg">
<g clip-path="url(#clip0_30_2021)">
<path d="M25 50C38.8071 50 50 38.8071 50 25C50 11.1929 38.8071 0 25 0C11.1929 0 0 11.1929 0 25C0 38.8071 11.1929 50 25 50Z" fill="#F93939"/>
<path d="M34.2565 16.7589L32.4895 23.0647L27.1878 22.0857L23.7751 15.051L14.5557 18.3226L13.8286 16.2738L11.4165 15.9766L13.234 21.0986L19.5786 19.476L21.3816 24.557L16.9957 31.0298L24.4388 37.3781L23.028 39.0321L23.9767 41.2698L27.5038 37.1346L22.9263 32.4513L26.425 28.3495L34.2236 28.9114L35.9999 19.2913L38.1377 19.6861L39.6015 17.7457L34.2565 16.7589Z" fill="white"/>
</g>
<defs>
<clipPath id="clip0_30_2021">
<rect width="50" height="50" fill="white"/>
</clipPath>
</defs>
</svg>
