<svg width="50" height="50" viewBox="0 0 50 50" fill="none" xmlns="http://www.w3.org/2000/svg">
<g clip-path="url(#clip0_30_3110)">
<path d="M25 50C28.058 50 30.9874 49.45 33.6956 48.445L34.7826 25L33.6957 1.55498C30.9874 0.550098 28.058 0 25 0C21.942 0 19.0126 0.550098 16.3044 1.55498L15.2174 25L16.3043 48.445C19.0126 49.45 21.942 50 25 50Z" fill="white"/>
<path d="M0 25C0 35.7491 6.78438 44.9127 16.3044 48.445V1.55499C6.78438 5.08732 0 14.2509 0 25Z" fill="#FF6C2D"/>
<path d="M33.6956 1.55499V48.4451C43.2156 44.9127 50 35.7491 50 25C50 14.2509 43.2156 5.08732 33.6956 1.55499Z" fill="#249F58"/>
</g>
<defs>
<clipPath id="clip0_30_3110">
<rect width="50" height="50" fill="white"/>
</clipPath>
</defs>
</svg>
