<svg width="50" height="50" viewBox="0 0 50 50" fill="none" xmlns="http://www.w3.org/2000/svg">
<g clip-path="url(#clip0_30_2038)">
<path d="M25 50C38.8071 50 50 38.8071 50 25C50 11.1929 38.8071 0 25 0C11.1929 0 0 11.1929 0 25C0 38.8071 11.1929 50 25 50Z" fill="white"/>
<path d="M44.8338 40.2222L29.6116 25.0001H29.6115L44.8338 9.77778C44.1772 8.92466 43.4591 8.10386 42.6777 7.32231C41.8962 6.54087 41.0755 5.82261 40.2222 5.16626L25.0001 20.3884L25 20.3885L9.77782 5.16626C8.92479 5.8227 8.10389 6.54077 7.32235 7.32231C6.54081 8.10386 5.82264 8.92466 5.1663 9.77778L20.3885 24.9998L20.3886 24.9999L5.1662 40.2223C5.82274 41.0754 6.54091 41.8962 7.32225 42.6778C8.1038 43.4592 8.9245 44.1775 9.77772 44.8338L25 29.6117L25.0001 29.6116L40.2222 44.8337C41.0753 44.1773 41.8962 43.4591 42.6777 42.6777C43.4593 41.8961 44.1773 41.0753 44.8338 40.2222Z" fill="#F93939"/>
<path d="M20.6522 7.60859L25 8.69551L29.3479 7.60859V3.91299L27.6087 4.78252L25 2.17383L22.3913 4.78252L20.6522 3.91299V7.60859Z" fill="#FFDA2C"/>
<path d="M20.6522 7.60864V10.3262C20.6522 13.6543 25 14.6741 25 14.6741C25 14.6741 29.3479 13.6542 29.3479 10.3262V7.60864H20.6522Z" fill="#F93939"/>
</g>
<defs>
<clipPath id="clip0_30_2038">
<rect width="50" height="50" fill="white"/>
</clipPath>
</defs>
</svg>
