<svg width="50" height="50" viewBox="0 0 50 50" fill="none" xmlns="http://www.w3.org/2000/svg">
<g clip-path="url(#clip0_30_2584)">
<path d="M25 50C38.8071 50 50 38.8071 50 25C50 11.1929 38.8071 0 25 0C11.1929 0 0 11.1929 0 25C0 38.8071 11.1929 50 25 50Z" fill="white"/>
<path d="M25 0C15.0885 0 6.5244 5.76807 2.48065 14.1305H47.5192C43.4756 5.76807 34.9114 0 25 0Z" fill="#02070D"/>
<path d="M25 50C15.0885 50 6.5244 44.2319 2.48065 35.8695H47.5192C43.4756 44.2319 34.9114 50 25 50Z" fill="#0A6A30"/>
<path d="M48.8194 17.3914H1.18057C0.414746 19.7907 0 22.3468 0 25C0 27.6533 0.414746 30.2094 1.18057 32.6087H48.8193C49.5853 30.2094 50 27.6533 50 25C50 22.3468 49.5853 19.7907 48.8194 17.3914Z" fill="#F93939"/>
<path d="M32.7847 11.5528L29.824 10.1863L25 21.1092L20.176 10.1863L17.2153 11.5528L23.2044 25L17.2153 38.4471L20.176 39.8136L25 28.8907L29.824 39.8136L32.7847 38.4471L26.7956 25L32.7847 11.5528Z" fill="white"/>
<path d="M27.0108 12.8407C25.8647 11.589 25 10.8695 25 10.8695C25 10.8695 24.1352 11.5889 22.9891 12.8407V37.159C24.1352 38.4109 25 39.1304 25 39.1304C25 39.1304 25.8647 38.411 27.0108 37.1591V12.8407Z" fill="white"/>
<path d="M19.5652 17.5042V32.4956C20.7764 34.6416 22.2587 36.4006 23.3696 37.5668V12.4331C22.2587 13.5992 20.7763 15.3583 19.5652 17.5042Z" fill="#F93939"/>
<path d="M30.4348 17.5042C29.2235 15.3582 27.7413 13.5992 26.6304 12.4331V37.5668C27.7412 36.4006 29.2235 34.6416 30.4348 32.4956V17.5042Z" fill="#F93939"/>
<path d="M30.4348 17.5042V32.4956C31.6608 30.3228 32.6087 27.7536 32.6087 25C32.6087 22.2463 31.6608 19.677 30.4348 17.5042Z" fill="#02070D"/>
<path d="M19.5652 17.5042V32.4956C18.3391 30.3228 17.3913 27.7536 17.3913 25C17.3913 22.2463 18.3391 19.677 19.5652 17.5042Z" fill="#02070D"/>
</g>
<defs>
<clipPath id="clip0_30_2584">
<rect width="50" height="50" fill="white"/>
</clipPath>
</defs>
</svg>
