<svg width="50" height="50" viewBox="0 0 50 50" fill="none" xmlns="http://www.w3.org/2000/svg">
<g clip-path="url(#clip0_16_3728)">
<path d="M0 25C0 28.8955 0.891309 32.5828 2.48066 35.8695L25 36.9565L47.5193 35.8696C49.1087 32.5828 50 28.8955 50 25C50 21.1045 49.1087 17.4172 47.5193 14.1305L25 13.0435L2.48066 14.1304C0.891309 17.4172 0 21.1045 0 25H0Z" fill="white"/>
<path d="M25 50C34.9114 50 43.4756 44.2319 47.5193 35.8695H2.48067C6.52442 44.2319 15.0885 50 25 50Z" fill="#249F58"/>
<path d="M25 0C15.0885 0 6.52442 5.76807 2.48067 14.1305H47.5192C43.4756 5.76807 34.9114 0 25 0Z" fill="#1A47B8"/>
<path d="M26.6305 24.4565V18.4783H23.3696V24.4565L19.4312 28.3951C20.5766 30.2701 22.6421 31.5218 25.0001 31.5218C27.3581 31.5218 29.4235 30.2701 30.569 28.3951L26.6305 24.4565Z" fill="#02070D"/>
</g>
<defs>
<clipPath id="clip0_16_3728">
<rect width="50" height="50" fill="white"/>
</clipPath>
</defs>
</svg>
