<svg width="50" height="50" viewBox="0 0 50 50" fill="none" xmlns="http://www.w3.org/2000/svg">
<g clip-path="url(#clip0_16_3747)">
<path d="M0 25C0 28.058 0.550098 30.9873 1.55498 33.6956L25 34.7826L48.445 33.6957C49.45 30.9873 50 28.058 50 25C50 21.942 49.45 19.0127 48.445 16.3044L25 15.2174L1.55498 16.3043C0.550098 19.0127 0 21.942 0 25H0Z" fill="#F93939"/>
<path d="M25 0C14.2509 0 5.08732 6.78438 1.55499 16.3044H48.4451C44.9127 6.78438 35.7491 0 25 0Z" fill="#02070D"/>
<path d="M48.445 33.6956H1.55499C5.08732 43.2155 14.2509 50 25 50C35.7491 50 44.9127 43.2155 48.445 33.6956Z" fill="#0A6A30"/>
<path d="M32.4722 11.9565L29.419 10.5204L31.0449 7.56348L27.7295 8.19775L27.3094 4.84834L25 7.31172L22.6907 4.84834L22.2705 8.19775L18.9552 7.56348L20.5811 10.5204L17.5278 11.9565H32.4722Z" fill="#F93939"/>
</g>
<defs>
<clipPath id="clip0_16_3747">
<rect width="50" height="50" fill="white"/>
</clipPath>
</defs>
</svg>
