<svg width="50" height="50" viewBox="0 0 50 50" fill="none" xmlns="http://www.w3.org/2000/svg">
<g clip-path="url(#clip0_30_2089)">
<path d="M3.03973 13.0435L25 15.2174L46.9602 13.0435C42.7201 5.27236 34.4761 0 25 0C15.5239 0 7.27987 5.27236 3.03973 13.0435Z" fill="#F93939"/>
<path d="M3.03975 36.9566L25 39.1306L46.9603 36.9566C48.8981 33.4048 50 29.3312 50 25.0001L25 22.8262L0 25.0001C0 29.3312 1.10186 33.4048 3.03975 36.9566Z" fill="#FFDA2C"/>
<path d="M3.03975 13.0435C1.10186 16.5953 0 20.6689 0 25H50C50 20.6689 48.8981 16.5953 46.9603 13.0435H25H3.03975Z" fill="#1A47B8"/>
<path d="M25 50C34.4761 50 42.7201 44.7276 46.9602 36.9565H3.03973C7.27987 44.7276 15.5239 50 25 50Z" fill="#00B731"/>
</g>
<defs>
<clipPath id="clip0_30_2089">
<rect width="50" height="50" fill="white"/>
</clipPath>
</defs>
</svg>
