<svg width="50" height="50" viewBox="0 0 50 50" fill="none" xmlns="http://www.w3.org/2000/svg">
<g clip-path="url(#clip0_16_3768)">
<path d="M25 50C38.8071 50 50 38.8071 50 25C50 11.1929 38.8071 0 25 0C11.1929 0 0 11.1929 0 25C0 38.8071 11.1929 50 25 50Z" fill="white"/>
<path d="M13.5128 34.7826L7.32315 42.6769C11.847 47.2013 18.0963 50 25 50C35.335 50 44.2035 43.7276 48.0108 34.7826H13.5128Z" fill="#FFDA2C"/>
<path d="M48.0497 15.3079C44.2637 6.31465 35.3699 0 25 0C18.0963 0 11.847 2.79873 7.32315 7.32314L13.5839 15.3079H48.0497Z" fill="#0A6A30"/>
<path d="M5.43477 18.3877V31.5217H49.1389C49.6996 29.4425 50 27.2565 50 25C50 22.7107 49.6916 20.4939 49.1151 18.3877H5.43477Z" fill="#02070D"/>
<path d="M7.32227 7.32227C-2.44082 17.0853 -2.44082 32.9145 7.32227 42.6777C11.3567 38.6433 15.2369 34.7631 25 25L7.32227 7.32227Z" fill="#F93939"/>
<path d="M10.1178 18.4782L11.7365 23.4602H16.9753L12.7373 26.5395L14.3558 31.5218L10.1178 28.4426L5.87964 31.5218L7.49859 26.5395L3.2605 23.4602H8.49898L10.1178 18.4782Z" fill="#FFDA2C"/>
<path d="M5.38208 25H14.8571V29.3479H5.38208V25Z" fill="white"/>
<path d="M16.6504 20.0155L15.1132 18.4782L10.1183 23.4731L5.12334 18.4782L3.58614 20.0155L8.58545 25.0059L3.58614 30.0054L5.12334 31.5218L10.1183 26.5358L15.1132 31.5218L16.6504 30.0054L11.6511 25.0059L16.6504 20.0155Z" fill="#02070D"/>
</g>
<defs>
<clipPath id="clip0_16_3768">
<rect width="50" height="50" fill="white"/>
</clipPath>
</defs>
</svg>
