<svg width="50" height="50" viewBox="0 0 50 50" fill="none" xmlns="http://www.w3.org/2000/svg">
<g clip-path="url(#clip0_16_3791)">
<path d="M25 50C38.8071 50 50 38.8071 50 25C50 11.1929 38.8071 0 25 0C11.1929 0 0 11.1929 0 25C0 38.8071 11.1929 50 25 50Z" fill="#F4F5F7"/>
<path d="M7.32234 42.6777C8.37107 43.7265 9.49001 44.6617 10.6637 45.4852L45.4849 10.6639C44.6616 9.49014 43.7263 8.37119 42.6775 7.32246C41.6288 6.27373 40.5098 5.33857 39.3361 4.51514L4.51501 39.3364C5.33835 40.51 6.27361 41.629 7.32234 42.6777Z" fill="#A2001D"/>
<path d="M7.32215 7.32205C-0.564959 15.2092 -2.07902 27.0541 2.77674 36.4625L36.4625 2.77684C27.0541 -2.07893 15.2091 -0.564669 7.32215 7.32205Z" fill="#0052B4"/>
<path d="M42.6776 42.6777C50.5646 34.7908 52.0786 22.9458 47.2231 13.5373L13.5373 47.2231C22.9456 52.0788 34.7906 50.5648 42.6776 42.6777Z" fill="#496E2D"/>
<path d="M20.6521 14.1305L17.8508 15.4482L19.3426 18.1612L16.3007 17.5794L15.9151 20.6522L13.7964 18.3921L11.6775 20.6522L11.2922 17.5794L8.25018 18.1612L9.74188 15.4481L6.94061 14.1305L9.74198 12.8127L8.25018 10.0998L11.2921 10.6817L11.6776 7.6087L13.7964 9.86886L15.9152 7.6087L16.3007 10.6817L19.3426 10.0998L17.851 12.8128L20.6521 14.1305Z" fill="#FFDA44"/>
</g>
<defs>
<clipPath id="clip0_16_3791">
<rect width="50" height="50" fill="white"/>
</clipPath>
</defs>
</svg>
