<svg width="50" height="50" viewBox="0 0 50 50" fill="none" xmlns="http://www.w3.org/2000/svg">
<g clip-path="url(#clip0_30_3170)">
<path d="M25 50C38.8071 50 50 38.8071 50 25C50 11.1929 38.8071 0 25 0C11.1929 0 0 11.1929 0 25C0 38.8071 11.1929 50 25 50Z" fill="white"/>
<path d="M0 25C0 35.7492 6.78438 44.9127 16.3044 48.4451V1.55505C6.78438 5.08728 0 14.251 0 25Z" fill="#249F58"/>
<path d="M50 25C50 14.2509 43.2156 5.08728 33.6956 1.55505V48.4452C43.2156 44.9127 50 35.7492 50 25Z" fill="#249F58"/>
</g>
<defs>
<clipPath id="clip0_30_3170">
<rect width="50" height="50" fill="white"/>
</clipPath>
</defs>
</svg>
