<svg width="345" height="245" viewBox="0 0 345 245" fill="none" xmlns="http://www.w3.org/2000/svg">
<path d="M1 16C1 7.16345 8.16344 0 17 0H329C337.837 0 345 7.16344 345 16V245H1V16Z" fill="#F4F5F7"/>
<mask id="mask0_16_3565" style="mask-type:alpha" maskUnits="userSpaceOnUse" x="0" y="0" width="344" height="239">
<path d="M0 16C0 7.16345 7.16344 0 16 0H328C336.837 0 344 7.16344 344 16V239H0V16Z" fill="#F4F5F7"/>
</mask>
<g mask="url(#mask0_16_3565)">
<g clip-path="url(#clip0_16_3565)">
<rect width="345" height="245" transform="translate(-0.958496)" fill="#F4F5F7"/>
<path d="M262.494 163.953L260.634 162.359H259.039L257.976 161.828L256.116 159.702L255.585 157.044L253.99 154.413V150.136L255.053 148.541V148.01L253.99 145.884L252.396 143.758V138.444L251.865 137.912L252.928 135.786L253.99 134.192V132.863L254.256 132.066L255.585 131.8L255.851 131.269L256.648 128.877L259.305 124.626L260.368 123.031L260.899 122.404V119.311V118.78L261.431 117.717L260.368 116.654V113.465L258.774 110.24V105.493L258.242 104.962V103.102L260.102 99.6475L261.962 96.9902V93.8015L262.494 93.2701H264.885L266.214 92.7386L266.745 92.2071L267.277 91.6757L267.808 92.2071L268.605 91.9414L270.731 90.8785L272.591 90.6128V90.0813H274.186V90.8785L274.717 91.6757H275.514L274.717 90.6128V88.7527L276.577 87.6898L277.906 86.3612H278.969L279.5 87.4241L279.766 87.9555L280.829 87.1583L279.766 86.6269V85.564L280.829 84.2353L281.892 82.641L282.689 82.1095V84.2353L284.283 82.1095H285.878L284.283 81.0466V79.4523L285.346 77.8579H286.409V76.795L285.878 75.9978V73.872L286.409 73.3406L288.003 74.4035H288.535L290.129 72.5434L292.521 69.6204L293.052 66.6974L291.724 66.1659L292.521 64.5716L294.381 62.18L295.444 62.7115L299.961 71.4805V74.4035L301.024 82.1095L302.087 85.564V88.7527L301.024 91.41H298.898V89.5499L297.57 87.9555L296.241 90.0813L297.57 92.7386V97.5217C297.038 98.0531 295.869 99.1692 295.444 99.3818C295.019 99.5943 294.912 101.065 294.912 101.773V105.228L294.381 107.885L290.926 117.185L288.535 124.36L277.109 157.576L276.046 160.233L273.654 161.296H270.465L269.668 161.828L265.948 163.953H262.494Z" fill="#CCCCCC" stroke="white"/>
<path d="M330.52 131.27V129.941L331.317 128.878H333.443L333.974 129.41L334.771 131.27L334.24 132.067L333.443 132.598C332.911 132.51 331.795 132.333 331.583 132.333C331.37 132.333 330.786 131.624 330.52 131.27Z" fill="#CCCCCC" stroke="white"/>
<path d="M85.5199 220.553V218.693L86.0513 217.63H86.5828L87.9114 218.693L88.9743 215.238V213.378L88.1771 212.049L87.38 210.455L85.7856 207.001L84.1912 204.609L82.5969 200.889L81.534 197.7L80.4711 193.449L80.2053 192.386L79.1424 191.057L77.5481 187.071L78.8767 185.743L79.4082 183.882L80.7368 183.085L81.534 183.351L82.5969 184.148L83.1283 186.274L84.1912 187.337L85.7856 188.4L87.9114 189.197H89.5058L89.7715 188.665H92.6945L94.0231 189.463H95.086V188.931L95.8832 187.868L97.7433 186.274L98.5405 186.008L99.8691 185.477L100.401 181.491V158.638L100.666 158.373L102.261 159.17L103.855 161.561L104.918 163.687C105.095 164.573 105.503 166.398 105.715 166.61C105.928 166.823 105.981 167.762 105.981 168.205L105.184 169.267L104.121 171.393V172.988L104.652 174.316L105.981 173.785H111.561L111.827 172.456L113.687 172.722L114.75 170.596L116.61 168.736L117.673 167.142L118.47 166.079V164.219L119.533 162.624L121.924 161.561L124.316 163.421L127.77 165.016L130.162 166.079L131.491 165.547H133.616L135.211 165.016L136.274 164.75L137.337 163.421L137.602 160.764L138.399 159.436L138.665 158.373L139.462 158.107C139.905 157.93 140.844 157.575 141.057 157.575C141.269 157.575 141.854 157.221 142.12 157.044L143.448 155.981L144.511 154.387L145.308 153.324L145.574 151.73L146.371 149.869L147.168 148.807L149.029 147.744L150.357 146.681L151.686 145.618L153.014 144.023L154.343 142.429L155.406 141.632L157.532 141.366L158.329 140.835L159.392 139.506L160.721 138.443H164.706L166.832 139.506L169.224 139.772L170.287 139.506H172.413C172.838 139.506 173.475 140.038 173.741 140.303L174.804 142.695L175.601 145.352L175.867 148.541L176.93 150.667L178.258 154.387L177.993 159.967V161.827L178.524 163.421L177.993 165.547H177.461L177.727 167.142H176.664L175.336 165.547H172.413L171.881 167.673L170.818 169.002L170.021 170.862V172.456L170.287 173.785L171.35 175.379L173.475 177.239H177.461V176.974V174.316L177.993 173.785H178.524H179.853H181.447L183.307 174.051V174.848L180.916 183.085L180.119 185.477L179.056 187.071L178.524 188.134L175.867 189.463L174.538 190.791L172.413 192.917L170.552 196.637L167.895 200.889L165.238 204.609L162.315 207.798L160.455 209.126L155.672 214.707L154.343 216.035L152.217 217.63L149.826 219.756L145.043 223.21L142.651 224.804L140.791 225.601H135.476L134.945 227.727H132.819L131.225 226.93L130.693 227.462L128.833 228.79L126.708 229.056L126.176 228.259H124.847L123.519 227.727H121.393L120.064 228.524H119.001L118.204 227.727H113.953L111.827 228.79L109.967 230.916H108.107L107.044 230.385H104.918L103.855 230.916H102.526L101.463 231.713L100.401 232.51L99.0719 233.042H96.9461L95.3518 232.776L94.5546 231.979L93.4917 230.65L92.163 230.385L91.3659 229.853L91.1001 228.79L90.5687 227.462L89.7715 228.259L89.2401 230.385L88.1771 229.853L87.9114 227.462L88.9743 226.664V224.539L87.38 222.147L85.5199 220.553Z" fill="#0033A1" stroke="white"/>
<path d="M145.84 196.903L144.511 194.777L145.308 194.246L146.371 193.183L147.434 192.651L147.7 190.791L148.497 189.994L149.294 189.728L150.889 189.197L151.686 188.4L152.749 187.337L154.077 186.805H155.406L156.203 187.337L158.595 189.728L159.657 190.791L160.455 191.854V193.183L159.657 193.98L158.595 195.309L158.329 196.637L156.469 198.232L155.406 198.497H154.343L152.749 199.56L152.217 201.42L151.42 202.217H149.294L146.637 199.56L146.371 198.232L145.84 196.903Z" fill="#0033A1" stroke="white"/>
<path d="M175.335 165.547H173.209H172.412L171.881 167.407L171.349 168.204L170.552 169.533L170.021 170.862V172.19C170.109 172.633 170.286 173.572 170.286 173.785C170.286 173.997 171.172 175.113 171.615 175.645L173.475 177.239H176.93L177.461 176.708V173.519H178.524V170.862V169.002L178.258 167.141H176.664L175.335 165.547Z" fill="#0033A1" stroke="white"/>
<path d="M204.831 78.9206L201.111 74.9347H200.845L201.111 76.7948L202.44 78.6549V79.4521L201.377 79.1864L200.845 78.6549L200.58 76.7948H200.048L199.517 77.8577L198.719 78.9206L197.922 77.8577L197.391 76.2634L198.188 75.7319V74.669L197.922 74.1376H196.859L196.594 72.2775V69.8859V67.4944L195.796 66.1658L194.468 64.3057V63.2428L195.796 60.8512L196.594 58.194V53.1452L195.796 52.348L196.594 51.2851V50.2222L195.796 49.1593L194.468 47.2992V44.9076L193.936 44.3762H193.405L192.342 43.8447H191.811L188.356 42.2504H188.09H187.559L187.825 43.3133L188.888 44.1105L189.685 44.9076L190.482 45.1734V47.2992L191.013 47.5649L192.342 49.6907V51.8165L191.811 52.348L190.748 53.1452H189.685V53.9423L190.216 55.0052V56.3339V57.3968V59.2569L189.685 60.3198V60.8512V62.4456L190.216 64.04L191.279 64.8371L190.216 65.3686L188.356 66.1658L187.293 66.9629V70.4174V71.4803L185.699 73.0747L185.167 73.8718L185.699 74.9347L187.293 76.7948H189.153L190.216 79.4521L191.811 81.0465H193.139L194.468 80.515H195.531H196.594L197.922 81.8436L197.391 85.2981L197.125 86.8924L195.531 89.8154V92.7384L197.391 95.6614L200.314 98.3187L200.58 99.9131L201.377 100.71L202.174 99.9131V98.3187L201.377 96.4586L202.174 94.3328L202.705 93.2699H204.831L205.628 92.7384L206.16 91.4098V84.7666L206.691 84.2352V81.8436L205.628 80.515L204.831 78.9206Z" fill="#CCCCCC" stroke="white"/>
<path d="M181.713 173.785H178.79V167.939L178.524 167.142H177.727L177.461 165.548H177.993L178.524 163.422L177.993 161.828L178.258 154.387L176.93 150.667L175.867 148.541L175.601 145.618L174.538 141.898L173.741 140.038L175.07 139.507L176.398 138.444L177.727 135.786L179.056 134.723L181.713 132.332L182.776 129.409V127.017L183.042 126.486L184.636 124.892C184.848 124.679 185.433 123.209 185.699 122.5V119.843L184.636 117.983L185.433 116.654V115.591L184.902 115.06V113.731L185.167 113.465L185.965 112.934V111.339L186.496 110.808V106.025L187.027 105.494V104.696L186.496 104.431V100.71L186.23 100.179L185.965 99.1161L186.496 98.5846V97.5217L185.433 96.7245L183.042 95.3959H180.65L179.587 94.5987L177.993 93.5358L175.601 92.2072H171.615H170.552L170.021 90.6128L170.287 87.9555L169.489 87.1584L168.958 85.2983V84.5011L170.552 83.9696L172.944 82.641L180.384 80.5152L184.37 78.6551L186.23 78.1236L187.293 77.0607H188.888L189.95 79.718L191.81 81.3124H193.139L194.468 80.7809H196.328L197.656 82.1095L197.391 83.7039L196.859 86.8926L195.265 89.8156V93.0043L197.125 95.9273L198.985 97.5217L199.782 98.3189L200.314 100.179L201.111 100.976H201.642L202.44 100.179V98.3189L201.642 96.4588L202.705 93.5358L202.971 93.2701H204.831L205.628 92.7386L206.16 91.41V85.0325L206.691 84.2354V81.8438L205.628 80.5152L204.831 78.6551L202.971 76.5293L201.111 74.4035L199.782 73.3406V69.8861L199.251 69.3547L199.782 68.8232V66.1659L199.251 65.3688V63.2429L200.048 62.4458L200.845 60.5857L201.111 59.7885V58.4599L201.908 58.9913L204.034 59.257L205.363 58.4599L206.691 57.6627L207.223 57.3969L207.488 58.4599L208.817 59.257L210.411 60.0542L211.474 60.3199L212.006 59.7885L213.334 58.7256H214.397L215.726 59.7885H216.523H218.117L220.775 56.334L221.572 56.0683L223.963 57.6627L227.152 55.8026H229.012L230.872 54.7397L232.732 53.6768L234.858 52.8796L236.187 51.8167L237.25 50.2223L238.578 51.551V52.3481L238.047 52.8796V55.2711L236.984 56.5998L236.718 56.8655L237.515 57.3969V65.6345L238.047 66.1659V67.4946L237.515 68.2917V69.0889L238.047 69.3547V70.949L237.515 72.0119V73.0748L238.047 73.6063V76.795L237.515 77.3265V77.8579L238.578 78.6551V79.4523L238.047 79.9837V80.5152H238.844V82.641L238.313 83.1724L238.047 83.7039L238.578 84.2354L238.047 84.7668L237.515 85.2983V86.8926L237.25 87.6898L235.921 89.5499L234.858 90.8785L234.061 92.7386L232.732 94.333H232.201V94.8644L231.669 95.3959L230.341 96.7245L229.544 96.9902L226.355 99.9132L223.698 100.445L219.978 102.305H219.446L218.383 103.368L217.586 103.899H216.257L213.6 106.556H212.537L212.271 108.416L210.146 110.542L208.817 112.137L208.286 112.668V113.997H206.16L205.628 114.528H205.097L202.44 117.185V117.717L199.782 120.108L199.517 120.906L197.656 120.64V122.5L197.125 123.297V125.689L197.656 126.22L198.719 127.283L199.517 128.612L199.782 129.675L199.251 130.472V131.003L200.314 134.723L200.845 135.786C200.934 136.318 201.111 137.434 201.111 137.646C201.111 137.859 200.934 138.975 200.845 139.507L201.377 141.367L202.174 145.087L201.642 147.478L200.314 150.667L200.048 151.199L201.111 150.667L201.908 151.464V152.261L200.845 153.856L199.782 155.982L198.719 157.045L197.125 157.842L195.796 158.373L191.545 159.702L189.95 160.499L188.09 161.296L186.496 162.359L184.37 163.422L183.307 165.016L181.979 167.142L181.181 167.674H181.713L183.839 169.268V173.52L183.307 174.051L181.713 173.785Z" fill="#0033A1" stroke="white"/>
<path d="M107.841 136.849V109.745V109.479H109.967L120.064 107.619L120.596 107.088H122.722L124.316 109.213L125.379 110.808L129.099 107.088L130.162 106.822L131.225 107.619L132.022 106.556L134.148 105.493L136.008 105.759V106.556L136.539 107.885L137.868 110.276L139.197 112.668L140.259 114.528L141.588 118.514L144.777 121.437L146.105 121.968L147.434 122.5L148.763 123.563V125.689H149.56H150.889L151.42 126.22L151.951 126.751V127.549L151.42 127.814V129.143L151.686 129.94L152.483 132.332L152.749 133.395L154.077 134.192L155.14 134.723H156.735L158.063 134.989L159.923 135.786V136.849L160.455 137.381L160.72 138.443L159.392 139.506L158.329 140.835L157.532 141.366L155.406 141.632L154.609 142.164L151.686 145.618L149.294 147.478L147.168 148.807L146.371 149.87L145.574 151.73L145.308 153.324L143.448 155.981L141.057 157.576L138.665 158.373L138.399 159.436L137.602 160.764L137.336 163.422L136.274 164.75L133.616 165.548H131.49L130.162 166.079L124.316 163.422L121.924 161.562L119.533 162.625L118.47 164.219V166.079L116.61 168.736L114.75 170.596L113.687 172.722L111.827 172.456L111.561 173.785H105.981L104.652 174.317L104.121 172.988V171.394L105.184 169.268L105.981 168.471V167.673L105.715 166.61L104.918 163.687L103.855 161.562L102.261 159.17L100.666 158.373L100.932 157.31V137.912L101.463 136.849H103.058L104.652 137.381H106.778L107.841 136.849Z" fill="#0033A1" stroke="white"/>
<path d="M74.625 185.211L77.2823 187.072H77.548L78.8767 185.743L79.4081 183.883L80.7367 183.086L81.5339 183.351L82.5968 184.149L83.1283 186.274L84.1912 187.337L85.7855 188.4L87.9114 189.197H89.5057L89.7714 188.666H92.6944L94.0231 189.463H95.086V188.932L95.8832 187.869L97.7432 186.274L99.8691 185.477L100.401 181.63V158.639L100.666 158.373L100.932 157.31L100.666 137.912L101.198 136.584H102.526L104.652 137.381H106.512L107.841 136.584V109.479H109.701L119.799 107.619L120.596 107.088H122.987L125.379 110.808L129.099 107.088H130.428L131.491 107.619L132.022 106.556L133.882 105.494H135.476V104.696L133.882 103.368H130.428L126.442 103.899L112.358 107.088H110.764L109.701 106.556H108.638L107.841 107.088H105.449L103.589 106.025H98.2747L97.2118 105.494H94.0231L90.8344 102.571H89.24H62.4016L58.15 99.3818H56.0242L53.6326 100.976H50.7096H49.1153L47.2552 101.773V105.494L48.3181 109.214L49.1153 110.542L52.304 114.262L54.1641 117.451L56.0242 123.297L58.4157 128.877L60.0101 132.066L62.4016 135.786L65.3246 140.835V154.653L67.1847 157.842V162.89V164.219V166.876L67.9819 167.674V170.331L69.0448 171.394V174.317L70.3734 175.911V177.771L71.9678 181.491L74.625 185.211Z" fill="#0033A1" stroke="white"/>
<path d="M136.539 105.494H135.742L136.008 105.759V106.291L136.274 107.354L138.931 112.137L140.26 114.528L141.588 118.514L144.777 121.437L147.434 122.5L148.763 123.563V125.689H150.889L151.952 126.752V127.549L151.42 127.815V129.143L152.483 132.332L152.749 133.395L155.14 134.723H156.735L158.063 134.989L159.923 135.786V136.849L160.455 137.381L160.721 138.444H164.706L166.832 139.507L169.224 139.772L170.287 139.507H172.413L172.944 139.772L173.475 140.038H173.741L175.07 139.507L176.398 138.444L177.727 135.786L179.056 134.723L181.713 132.332L182.776 129.409V127.017L183.042 126.486L184.636 124.892L185.167 123.829L185.699 122.5V121.437V119.843L184.636 117.983L185.433 116.654V115.591L184.902 115.06V113.731L185.167 113.465L185.965 112.934V111.34L186.496 110.808V107.885V106.025L187.027 105.494V104.696L186.496 104.431V101.508V100.71L186.23 100.179L185.965 99.1161L186.496 98.5846V97.5217L185.433 96.7245L183.042 95.3959H180.65L175.601 92.2072H170.552L170.021 90.6128V89.5499H168.161L167.629 89.0185H166.301L160.986 91.1443L159.923 92.2072V93.5358L159.392 95.6616L158.86 96.4588H158.063L157.266 96.9903L156.469 97.5217L155.406 98.0532L154.077 98.5846L153.28 99.1161L152.483 99.6475L151.952 100.71V101.242L150.889 102.305L150.357 102.836V103.368L149.826 103.899V104.431L147.169 107.088L146.637 107.619H144.511L143.448 106.556H141.854L141.323 106.822L140.26 107.088L139.197 106.025H138.134H137.071L136.539 105.494Z" fill="#0033A1" stroke="white"/>
<path d="M163.378 -5.84608L162.049 -7.97189L162.846 -8.76908H163.643L164.175 -7.97189L165.504 -7.17471H166.832L167.364 -7.70617L167.895 -8.23762L168.692 -10.0977L170.021 -10.8949H171.35L172.944 -9.83198L172.147 -9.30053V-8.76908V-6.64326V-6.11181L172.678 -5.84608L174.273 -5.31463V-4.78317L173.741 -3.18881L172.678 -2.1259L171.615 -1.86018V-1.063L170.552 0.797091L169.224 3.18863L167.098 5.31445L166.035 4.25154L164.441 1.59427V-2.1259L163.643 -3.45454L163.378 -5.84608Z" fill="#CCCCCC"/>
<path d="M172.147 -6.64326V-6.11181L172.678 -5.84608L174.273 -5.31463V-4.78317L173.741 -3.18881L172.678 -2.1259L171.615 -1.86018V-1.063L170.552 0.797091L169.224 3.18863L167.098 5.31445L166.035 4.25154L164.441 1.59427V-2.1259L163.643 -3.45454L163.378 -5.84608L162.049 -7.97189L162.846 -8.76908H163.643L164.175 -7.97189L165.504 -7.17471H166.832L167.364 -7.70617L167.895 -8.23762L168.692 -10.0977L170.021 -10.8949H171.35L172.944 -9.83198L172.147 -9.30053V-8.76908M172.147 -6.64326H171.615M172.147 -6.64326V-8.76908M172.147 -8.76908H171.615" stroke="white"/>
<path d="M123.253 103.368L124.316 104.431L126.176 103.899L130.162 103.368H133.882L135.476 104.696V105.493H136.539L137.071 106.025H139.197L140.259 107.088L141.322 106.822L141.854 106.556H143.448L144.511 107.619H146.637L149.826 104.431V103.899L150.357 103.368V102.836L151.951 101.242V100.71L152.483 99.6475L154.077 98.5846L155.672 98.0531L158.063 96.4588H158.86L159.392 95.9273L159.923 93.8015V92.2071L160.986 91.1442L166.301 89.0184H167.629L168.161 89.5499H170.287V87.9555L169.489 87.1583L168.958 85.564L169.224 84.5011L170.818 83.9696L172.678 82.9067L180.384 80.5152L184.37 78.6551L186.23 78.1236L187.559 77.0607L185.699 74.9349L185.167 73.872L185.699 73.0748L187.293 71.4805V66.9631L188.356 66.1659L191.279 64.8373L190.216 64.0401L189.685 62.4457V60.3199L190.216 59.257V55.0054L189.685 53.9425V53.1453H190.748L192.342 51.551V49.6909L191.279 47.8308L190.482 47.2993V45.1735L189.685 44.9078L187.825 43.3134L187.559 42.2505L186.496 41.1876H185.699L184.104 40.1247L181.713 39.5933L180.65 38.5303H179.853L179.321 37.9989L177.993 36.6703H176.398L175.867 37.4674H174.804L173.475 35.8731L171.615 35.6074L171.881 34.2787H168.161H165.769L164.972 34.8102H163.112L161.252 35.3416V37.4674L158.329 40.6562L157.797 41.1876V41.7191H158.329L158.86 42.2505L159.392 43.8449V45.9707L158.86 46.5021V49.1594L159.392 50.2223V51.8167L157.797 56.5998V59.7885L158.329 60.8514L162.581 65.103H164.175L165.504 63.5087L166.832 62.9772V72.5434H165.769L165.504 71.2147H164.972L164.441 71.4805L163.112 72.5434H161.518L160.455 71.2147V70.4175L159.923 69.8861V69.3546L158.329 67.7603V67.2288L157.797 66.6974V65.6345L156.735 65.103L154.609 64.0401H152.749L151.951 63.5087V62.9772L151.42 62.4457V61.9143L150.357 60.8514V60.3199L149.826 59.7885L149.294 59.257H148.763L147.7 61.3828H144.511H143.182L140.525 60.3199H138.665L137.071 58.9913V56.5998L136.805 56.0683H135.211L134.679 56.5998L133.351 57.1312L132.288 57.6627H131.225L130.693 57.1312L131.225 56.5998V55.5369L130.693 55.0054L129.896 53.9425L129.099 53.411H128.568L128.036 53.9425L128.568 54.4739L129.099 55.5369V56.5998L128.568 57.3969V60.8514L128.036 61.3828V62.4457L128.568 62.9772V65.6345L128.036 66.1659V67.2288L127.505 67.7603L128.036 68.8232V69.3546H127.239L126.176 69.8861H124.05L120.596 69.3546H115.813L115.281 69.8861L114.75 72.0119V73.0748L115.281 73.872V86.6269L114.75 87.9555V89.2841V91.9414L115.015 93.0043L115.281 94.0672L115.547 94.8644L115.813 95.3959L117.673 97.2559L117.938 98.0531L120.064 100.179L121.393 101.773L121.659 102.305L122.19 102.836L123.253 103.368Z" fill="#0033A1"/>
<path d="M149.294 59.257H148.763L147.7 61.3828H144.511H143.182L140.525 60.3199H138.665L137.071 58.9913V56.5998L136.805 56.0683H135.211L134.679 56.5998L133.351 57.1312L132.288 57.6627H131.225L130.693 57.1312L131.225 56.5998V55.5369L130.693 55.0054L129.896 53.9425L129.099 53.411H128.568L128.036 53.9425L128.568 54.4739L129.099 55.5369V56.5998L128.568 57.3969V60.8514L128.036 61.3828V62.4457L128.568 62.9772V65.6345L128.036 66.1659V67.2288L127.505 67.7603L128.036 68.8232V69.3546H127.239L126.176 69.8861H124.05L120.596 69.3546H115.813L115.281 69.8861L114.75 72.0119V73.0748L115.281 73.872V86.6269L114.75 87.9555V89.2841V91.9414L115.015 93.0043L115.281 94.0672L115.547 94.8644L115.813 95.3959L117.673 97.2559L117.938 98.0531L120.064 100.179L121.393 101.773L121.659 102.305L122.19 102.836L123.253 103.368L124.316 104.431L126.176 103.899L130.162 103.368H133.882L135.476 104.696V105.493H136.539L137.071 106.025H139.197L140.259 107.088L141.322 106.822L141.854 106.556H143.448L144.511 107.619H146.637L149.826 104.431V103.899L150.357 103.368V102.836L151.951 101.242V100.71L152.483 99.6475L154.077 98.5846L155.672 98.0531L158.063 96.4588H158.86L159.392 95.9273L159.923 93.8015V92.2071L160.986 91.1442L166.301 89.0184H167.629L168.161 89.5499H170.287V87.9555L169.489 87.1583L168.958 85.564L169.224 84.5011L170.818 83.9696L172.678 82.9067L180.384 80.5152L184.37 78.6551L186.23 78.1236L187.559 77.0607L185.699 74.9349L185.167 73.872L185.699 73.0748L187.293 71.4805V66.9631L188.356 66.1659L191.279 64.8373L190.216 64.0401L189.685 62.4457V60.3199L190.216 59.257V55.0054L189.685 53.9425V53.1453H190.748L192.342 51.551V49.6909L191.279 47.8308L190.482 47.2993V45.1735L189.685 44.9078L187.825 43.3134L187.559 42.2505L186.496 41.1876H185.699L184.104 40.1247L181.713 39.5933L180.65 38.5303H179.853L179.321 37.9989L177.993 36.6703H176.398L175.867 37.4674H174.804L173.475 35.8731L171.615 35.6074L171.881 34.2787H168.161H165.769L164.972 34.8102H163.112L161.252 35.3416V37.4674L158.329 40.6562L157.797 41.1876V41.7191H158.329L158.86 42.2505L159.392 43.8449V45.9707L158.86 46.5021V49.1594L159.392 50.2223V51.8167L157.797 56.5998V59.7885L158.329 60.8514L162.581 65.103H164.175L165.504 63.5087L166.832 62.9772V72.5434H165.769L165.504 71.2147H164.972L164.441 71.4805L163.112 72.5434H161.518L160.455 71.2147V70.4175L159.923 69.8861V69.3546L158.329 67.7603V67.2288L157.797 66.6974V65.6345L156.735 65.103L154.609 64.0401H152.749L151.951 63.5087V62.9772L151.42 62.4457V61.9143L150.357 60.8514V60.3199L149.826 59.7885L149.294 59.257ZM149.294 59.257V58.7256" stroke="white"/>
<path d="M110.764 107.088H112.624L124.05 104.43L123.253 103.368L122.19 102.836L121.659 102.305L121.393 101.773L120.064 100.179L117.939 98.053L117.673 97.2559L115.813 95.3958L115.547 94.8643L115.281 94.0671L114.75 91.9413V87.9554L115.281 86.6268V73.8719L114.75 73.0747V72.0118L115.281 69.886L115.813 69.3546H120.596L124.05 69.886H125.91L126.973 69.3546H128.036V68.8231L127.505 67.7602L128.036 67.2288V66.1659L128.568 65.6344V62.9771L128.036 62.4457V61.3828L128.568 60.8513V57.3969L129.099 56.5997V55.5368L128.568 54.4739L128.036 53.9424L127.505 54.4739H125.645L124.316 55.2711H119.533H118.736L117.407 56.0683H116.876V55.2711L116.344 54.7396V53.9424L117.407 52.6138V49.4251L116.876 48.8936V47.2993L115.281 45.1735L114.218 42.7819V40.6561L115.016 37.4674L115.281 34.5444L114.484 32.9501L113.953 30.8242L114.218 28.6984L114.484 27.6355L113.953 26.3069H106.247L105.715 25.7754V25.244L106.247 24.7125V23.6496H104.918L104.121 24.1811H99.8692L99.072 24.7125V28.167L98.2748 28.6984L98.0091 32.1529L94.5546 31.8871L93.7574 31.3557H92.9603L92.6945 31.6214H90.8344L89.7715 32.6843L86.0514 32.4186L85.5199 31.8871L82.3312 26.3069V24.1811L80.7368 21.7895V18.8666L80.2054 17.2722L79.1425 15.6778H69.842L68.7791 15.9436H59.213L58.4158 15.6778H55.2271L53.8984 17.0065L51.5069 16.7407V19.6637L52.5698 21.2581V22.0553L54.6956 23.9154L55.2271 26.3069L58.4158 34.5444V36.936L56.0243 38.5303L55.7585 40.3904L56.8214 42.2505V44.3763L58.4158 47.1651V48.3622L61.3388 53.9424V60.3199L58.4158 66.1658H56.8214L55.4928 67.7602L55.2271 69.6203L53.1013 72.2775L51.5069 75.9977L49.3811 88.4869L47.7867 90.0812V96.1929H46.7238L47.7867 98.5845L47.2553 99.3816V101.773L48.5839 101.242L49.1154 100.976H53.6327L56.0243 99.3816H58.1501L62.4017 102.57H62.6674H90.8344L94.0232 105.493H97.4776L98.2748 106.025H103.589L105.449 107.088H107.841L108.638 106.556H109.967L110.764 107.088Z" fill="#CCCCCC" stroke="white"/>
<path d="M116.876 56.0685V55.2713L116.344 54.7398V53.9427L117.407 52.614V49.4253L116.876 48.8939V47.2995L115.281 45.1737L114.218 42.7821V40.3906L115.015 37.7333L115.281 34.5446L114.484 32.9503L113.953 30.8244L114.218 28.4329L114.484 27.6357L113.953 26.3071H106.247L105.715 25.7756V25.2442L106.247 24.7127V23.6498H104.918L104.121 24.1813H99.8691L99.0719 24.7127V28.1672L98.2747 28.6986L98.009 32.1531L95.086 31.8874L93.7574 31.3559H92.9602L92.6945 31.6216L91.1001 31.3559L89.5057 32.6845L86.317 32.4188L85.7856 32.1531L82.3311 26.3071V24.1813L80.7368 22.0555V18.8667L80.2053 17.2724L79.1424 15.678H69.842L69.0448 15.9437H59.4786L58.4157 15.678H55.227L53.8984 17.0067L51.5069 16.7409L50.7097 15.678L50.9754 15.1466L51.5069 14.6151L52.304 14.3494L52.5698 14.0837V13.5522L53.1012 12.755L53.3669 11.6921L52.5698 10.8949V9.56631L53.1012 9.30058L53.8984 8.5034L54.9613 7.70622L55.7585 6.90904L56.5557 6.64332L58.4157 7.4405L58.6815 8.23768L59.7444 7.70622L60.5416 6.90904V6.11186L63.1988 4.5175H63.996L64.7932 3.72032L65.8561 4.5175V5.04896L65.3246 5.58041V8.23768L67.4504 8.5034L69.0448 6.64332L71.1706 3.98605H71.9678L72.765 2.39169L74.8908 1.32878L76.2194 -0.531303L77.0166 -1.85994V-3.4543H77.5481V-10.3632V-12.489L79.1424 -14.0834L79.9396 -15.1463L80.471 -16.7406L81.2682 -18.335L81.7997 -18.8664L82.3311 -19.9294L84.4569 -20.9923L86.317 -22.3209L86.8485 -24.181L87.6457 -24.4467V-28.4326L88.7086 -30.5584V-36.9359L89.24 -38.5302L89.7715 -40.9218V-41.4532L88.9743 -42.2504L89.7715 -43.3133V-45.4391L91.8973 -48.8936L92.6945 -51.2851L93.4916 -51.8166V-54.7395L93.2259 -55.271V-59.5226L92.6945 -61.117L93.7574 -61.6484L94.8203 -63.5085L96.4146 -65.1029L98.2747 -66.963L99.0719 -67.2287H100.666L105.715 -62.9771L105.981 -61.6484H109.17L110.232 -60.8513H112.358L112.624 -60.3198H113.155L113.687 -60.8513H114.484L114.75 -60.3198H115.813L117.673 -58.9912L118.47 -59.2569L119.001 -60.0541L120.861 -64.04L121.659 -64.5714H122.987L123.784 -63.2428H125.113L126.442 -63.5085L127.239 -64.3057L128.833 -64.8372L131.491 -66.1658L131.756 -66.6972L132.553 -66.4315L133.351 -65.6343H136.008L137.071 -66.4315L137.868 -67.4944L138.134 -68.2916L139.197 -68.5573L140.26 -68.2916L141.322 -67.4944H143.98L145.043 -66.6972H148.231L149.826 -68.0259L150.889 -68.2916V-67.2287L153.546 -64.5714L154.077 -63.5085L155.406 -61.9142L157.266 -60.8513H158.595L160.455 -62.4456H161.518L162.846 -61.3827H163.909L165.238 -63.5085H166.301L168.161 -60.8513L168.958 -59.7884L172.678 -57.1311V-55.5367H174.538L175.07 -53.6766L174.273 -52.348V-50.7536V-49.1593V-46.502H175.07L177.461 -44.6419L176.93 -43.3133L172.147 -37.733L168.958 -34.81V-32.1528L168.692 -31.8871L167.895 -30.5584L166.832 -27.6354V-23.9153L166.301 -23.1181V-21.7894V-17.8035H165.769L164.972 -16.7406L163.643 -15.412L163.378 -11.9576L161.518 -10.6289V-8.76883L163.378 -5.84584L163.643 -3.72002L163.112 -2.92284V1.86024H162.581V3.4546L162.315 3.98605H163.112L163.643 3.4546L163.112 3.18887L162.846 2.39169H163.378H164.175L164.706 3.4546L164.441 3.98605H163.643V5.04896L163.112 5.58041V7.17477L162.846 10.6292L164.175 13.0208L163.909 15.1466L163.643 17.2724L164.175 19.3982L165.238 21.2583L166.035 23.3841L168.161 25.5099L169.224 26.5728L170.021 29.7615L170.552 31.0902L172.147 32.6845V33.7474L171.881 34.2789H165.769L164.972 34.8103H163.112L161.252 35.3418V37.4676L157.797 41.1878V41.7192H158.329L158.86 42.2507L159.392 43.8451V45.9709L158.86 46.5023V49.1596L159.392 50.2225V51.8169L157.797 56.5999V59.7887L158.329 60.8516L162.581 65.1032H164.175L165.504 63.5088L166.832 62.9335V72.5435H165.769L165.504 71.2149H164.972L163.112 72.5435H161.518L160.455 71.2149V70.4177L159.923 69.8863V69.3548L158.329 67.7605V67.229L157.797 66.6975V65.6346L154.609 64.0403H152.749L151.951 63.5088V62.9774L151.42 62.4459V61.9145L150.357 60.8516V60.3201L149.294 59.2572H148.763L147.7 61.383H143.183L140.577 60.3201H138.665L137.071 58.9915V56.5999L136.805 56.0685H135.211L134.679 56.5999L132.288 57.6628H131.225L130.693 57.1314L131.225 56.5999V55.537L130.693 55.0056L129.896 53.9427L129.099 53.4112H128.568L127.505 54.4741H125.645L124.316 55.2713H118.736L117.407 56.0685H116.876Z" fill="#CCCCCC" stroke="white"/>
<path d="M50.4439 14.615L50.7096 15.4122L51.5068 14.615L52.304 14.3493L52.5697 14.0836V13.5521L53.1012 12.7549L53.3669 11.692L52.5697 10.8949V9.56622L53.1012 9.3005L55.7585 6.90896L56.0242 5.84605L55.227 5.04887H54.4298L52.8355 6.11178L49.9125 8.76904V10.8949L50.4439 11.4263V11.9578L50.9754 12.4892L50.4439 13.0207V14.615Z" fill="#CCCCCC" stroke="white"/>
<path d="M43.8008 0.531548V1.59445H43.2694L43.0036 1.32872L42.4722 0.797272V0.531548L42.2065 9.15527e-05L41.1435 -0.797085L40.8778 -1.85999L40.6121 -2.12572L40.3464 -2.65717L39.2835 -4.51726L36.6262 -7.17452L36.0947 -7.44025L35.5633 -8.23743L36.3605 -8.76888L34.5004 -9.83178L33.9689 -9.56606L32.906 -10.8947V-11.4261L32.3746 -11.9576V-12.489L31.8431 -13.0205V-13.552V-14.0834H31.3117V-14.6149L30.7802 -15.1463V-15.6778L31.3117 -16.2092H32.906L32.3746 -16.7407H32.1088H31.5774H30.2488L31.3117 -17.0064V-18.335L30.7802 -17.8036L29.983 -17.5379L29.7173 -18.335L29.4516 -19.6637L28.1229 -21.5237V-23.1181H29.7173L31.3117 -25.7754V-30.5584H31.8431L32.8436 -29.3627H34.7661V-29.7613L32.906 -30.5584L32.3746 -31.0899L31.8431 -31.6214L31.3117 -32.1528V-32.6843L31.8431 -33.2157H33.4375V-36.4044H33.9689L35.0318 -35.873H36.6262L37.6891 -36.4044L38.2206 -35.873H44.0665L45.1294 -36.6276V-44.3762L44.598 -44.9077L45.6609 -45.9706H52.0383L52.5698 -45.4391H57.6186L58.4158 -44.6419L57.3529 -43.0476L56.8214 -42.2504V-40.1246H57.3529V-37.9988L56.8214 -37.4673H58.4158V-37.9988H58.9472L59.7444 -38.5302H60.5416L61.073 -39.0617H62.9331L63.7303 -38.5302L64.5275 -37.2016L65.3247 -35.873V-33.2157L63.996 -32.6843H63.4646L62.4017 -31.6214V-27.9012H61.8702L61.3388 -26.8383L61.8702 -26.3068H62.6674L63.1989 -25.7754L63.7303 -25.2439L64.5275 -24.9782L65.8561 -24.181L66.3876 -23.1181L65.8561 -22.5867V-21.5237L65.3247 -20.9923V-20.4608L65.8561 -19.9294V-16.7407L65.3247 -16.4749V-15.6778L65.8561 -15.1463L64.2618 -13.552L63.996 -11.1604L63.4646 -10.3632L62.6674 -9.30033H62.1359L61.6045 -10.8947L61.073 -11.9576V-12.489L60.5416 -11.9576L60.0101 -10.629L58.9472 -9.83178H58.4158L57.8843 -10.3632H56.0242V-12.2233L53.6327 -14.6149H53.1012L52.5698 -14.3491V-13.0205V-11.4261L52.0383 -11.1604L51.5069 -10.3632H49.9125H48.8496H48.3182L47.7867 -10.8947H46.7238V-10.0975V-7.9717L46.4581 -7.44025L46.7238 -7.17452L47.2553 -6.90879L47.7867 -6.11161V-5.58016L47.2553 -5.04871V-4.51726L48.0524 -3.9858L48.3182 -3.72008L48.8496 -3.18863V-2.39145L48.3182 -1.85999L48.8496 -1.59426V-0.797085H48.3182L48.0524 -0.265633L46.7238 -1.06281V-1.85999H45.6609L45.1294 -1.06281L43.8008 0.531548Z" fill="#CCCCCC"/>
<path d="M48.8496 -10.3632H48.3182L47.7867 -10.8947H46.7238V-10.0975V-7.9717L46.4581 -7.44025L46.7238 -7.17452L47.2553 -6.90879L47.7867 -6.11161V-5.58016L47.2553 -5.04871V-4.51726L48.0524 -3.9858L48.3182 -3.72008L48.8496 -3.18862V-2.39144L48.3182 -1.85999L48.8496 -1.59427V-0.797086H48.3182L48.0524 -0.265633L46.7238 -1.06281V-1.85999H45.6609L45.1294 -1.06281L43.8008 0.531546V1.59445H43.2694L43.0036 1.32873L42.4722 0.797272V0.531546L42.2065 9.29534e-05L41.1435 -0.797086L40.8778 -1.85999L40.6121 -2.12572L40.3464 -2.65717L39.2835 -4.51726L36.6262 -7.17452L36.0947 -7.44025L35.5633 -8.23743L36.3605 -8.76888L34.5004 -9.83178L33.9689 -9.56606L32.906 -10.8947V-11.4261L32.3746 -11.9576V-12.489L31.8431 -13.0205V-13.552M48.8496 -10.3632V-10.8947M48.8496 -10.3632H49.9125H51.5069L52.0383 -11.1604L52.5698 -11.4261V-13.0205M52.5698 -13.0205H52.0383M52.5698 -13.0205V-14.3491L53.1012 -14.6149H53.6327L56.0242 -12.2233V-10.3632H57.8843L58.4158 -9.83178H58.9472L60.0101 -10.629L60.5416 -11.9576L61.073 -12.489V-11.9576L61.6045 -10.8947L62.1359 -9.30033H62.6674L63.4646 -10.3632L63.996 -11.1604L64.2618 -13.552L65.8561 -15.1463L65.3247 -15.6778V-16.4749L65.8561 -16.7407V-19.9294L65.3247 -20.4608V-20.9923L65.8561 -21.5237V-22.5867L66.3876 -23.1181L65.8561 -24.181L64.5275 -24.9782L63.7303 -25.2439L63.1989 -25.7754L62.6674 -26.3068H61.8702L61.3388 -26.8383L61.8702 -27.9012H62.4017V-31.6214L63.4646 -32.6843H63.996L65.3247 -33.2157V-35.873L64.5275 -37.2016L63.7303 -38.5302L62.9331 -39.0617H61.073L60.5416 -38.5302H59.7444L58.9472 -37.9988H58.4158V-37.4673H56.8214L57.3529 -37.9988V-40.1246H56.8214V-42.2504L57.3529 -43.0476L58.4158 -44.6419L57.6186 -45.4391H52.5698L52.0383 -45.9706H45.6609L44.598 -44.9077L45.1294 -44.3762V-36.6276L44.0665 -35.873H38.2206L37.6891 -36.4044L36.6262 -35.873H35.0318L33.9689 -36.4044H33.4375V-33.2157M33.4375 -32.1528V-33.2157M33.4375 -33.2157H31.8431L31.3117 -32.6843V-32.1528L31.8431 -31.6214L32.3746 -31.0899L32.906 -30.5584L34.7661 -29.7613V-29.3627M34.7661 -29.3627V-28.9641V-28.6984V-29.3627ZM34.7661 -29.3627H32.8436M32.8436 -29.3627L32.906 -28.9641M32.8436 -29.3627L31.8431 -30.5584H31.3117V-25.7754L29.7173 -23.1181H28.1229V-21.5237L29.4516 -19.6637L29.7173 -18.335L29.983 -17.5379L30.7802 -17.8036L31.3117 -18.335V-17.0064L30.2488 -16.7407H31.5774H32.1088H32.3746M32.3746 -16.7407V-17.2721M32.3746 -16.7407L32.906 -16.2092H31.3117L30.7802 -15.6778V-15.1463L31.3117 -14.6149V-14.0834H31.8431M32.3746 -14.0834H31.8431M31.8431 -14.0834V-13.552M31.8431 -13.552H32.906L33.4375 -13.0205" stroke="white"/>
<path d="M43.8008 0.53154V1.59444L46.1923 3.98598L46.7237 4.51744V4.78316V5.04889L47.2552 5.58035L47.7867 6.1118V6.64325L48.3181 7.70616V8.23761L49.381 9.30052H49.9125V8.76906L52.8355 6.1118L54.4298 5.04889H55.227L56.0242 5.84607L55.7585 6.90898L56.5556 6.64325L58.4157 7.44043L58.6814 8.23761L59.7444 7.70616L60.5415 6.90898V6.1118L61.073 5.84607V5.04889H62.4016L63.1988 4.51744H63.996L64.7932 3.72026L65.8561 4.51744V5.04889L65.3246 5.58035V8.23761L67.4504 8.50334L71.1706 3.98598H71.9678L72.765 2.39162L74.8908 1.32872L77.0166 -1.86V-2.65718L77.2823 -3.45436L77.548 -3.98581V-9.30035L77.0166 -9.8318V-10.3633L77.548 -10.629V-12.4891L79.4081 -14.6149L79.9396 -15.4121L80.471 -16.7407L81.2682 -18.335L81.7997 -18.8665L82.3311 -19.9294L84.4569 -20.9923L86.317 -22.3209L86.8485 -24.181L87.6456 -24.4468V-28.4327L88.7086 -30.5173V-36.9359L89.24 -38.5303L89.7715 -40.9218V-41.4533L88.9743 -42.2504L89.7715 -43.3133V-45.4392L91.8973 -48.8936L92.6945 -51.2851L93.4916 -51.8166V-54.7396L93.2259 -55.271L92.6945 -55.0053L92.163 -55.5368H91.1001L90.5686 -55.0053H88.4428L86.5827 -56.0682H84.4569L82.8626 -55.0053L80.471 -54.7396L79.1424 -53.9424L79.4081 -49.6908L78.6109 -48.3622L77.0166 -44.9077L76.4851 -44.3763V-41.1875H75.9537L75.4222 -41.719L72.765 -43.3133H69.5762L66.6532 -44.9077H62.6673L61.6044 -44.3763H58.9472L58.4157 -44.642L56.8214 -42.2504V-41.4533V-40.1246H57.3528V-37.9988L56.8214 -37.4674H58.4157V-37.9988H58.9472L59.7444 -38.5303H60.5415L61.073 -39.0617H62.9331L63.7302 -38.5303L65.3246 -35.873V-33.2157L64.2617 -32.6843H63.4645L62.4016 -31.6214V-27.9012H61.8702L61.3387 -26.8383L61.8702 -26.3068H62.6673L63.7302 -25.2439L64.5274 -24.9782L65.8561 -24.181L66.3875 -23.1181L65.8561 -22.5867V-21.5238L65.3246 -20.9923V-20.4609L65.8561 -19.9294V-16.7407L65.3246 -16.475V-15.6778L65.8561 -15.1463L64.2617 -13.552L63.996 -11.1604L62.6673 -9.30035H62.1359L61.6044 -10.8947L61.073 -11.9576V-12.4891L60.5415 -11.9576L60.0101 -10.629L58.9472 -9.8318H58.4157L57.8843 -10.3633H56.0242V-12.2233L53.6326 -14.6149H53.1012L52.5697 -14.3492V-11.4262L52.0383 -11.1604L51.5068 -10.3633H48.3181L47.7867 -10.8947H46.7237V-7.70599L46.458 -7.44026L47.2552 -6.90881L47.7867 -6.11163V-5.58017L47.2552 -5.04872V-4.51727L48.8496 -3.18863L49.1153 -2.65718L48.3181 -1.86L48.8496 -1.59427V-0.797092H48.3181L48.0524 -0.26564L46.7237 -1.06282V-1.86H45.6608L45.1294 -1.06282L43.8008 0.53154Z" fill="#CCCCCC" stroke="white"/>
<path d="M214.397 -61.9139H209.083L208.286 -62.9768H207.223H198.719L196.859 -62.1796L195.265 -60.0538L196.062 -58.7252V-57.6623L197.391 -56.5994L198.188 -56.0679V-53.4106L198.719 -52.3477L199.251 -51.8163V-50.2219L200.048 -49.6905L200.579 -49.159L201.377 -48.0961V-45.1731L201.908 -44.1102V-40.6558L201.377 -40.1243L200.314 -37.467L199.782 -36.9356H199.251L198.719 -36.4041V-35.8727L198.188 -35.3412V-34.2783L197.125 -33.2154L195.531 -30.8239L195.265 -30.0267L195.531 -27.9009L196.062 -27.3694V-26.838L196.594 -26.3065H197.125H197.656L198.188 -26.838L198.719 -27.3694H200.314L201.377 -26.3065L200.845 -25.7751H198.985V-24.7122H197.656L196.594 -24.4464L195.796 -23.915V-23.1178L196.062 -22.5863V-20.992L196.328 -20.7263L205.363 -14.3488L208.817 -12.223L214.663 -8.76856L218.383 -6.64275L219.978 -5.04839V-3.45403L219.446 -3.1883V-2.39112L220.509 -1.32821L221.04 -0.531033L222.369 0.797604L225.292 2.92341L225.558 3.45487L227.418 4.51777L229.012 6.11213L229.278 6.64359L230.075 7.17505L230.607 6.64359H231.138L231.669 6.11213V5.58068L232.201 5.04923V4.51777L232.732 3.98632V3.45487L233.264 2.39196V1.86051L233.795 1.32905V-0.265305L234.327 -0.796757V-1.85966H234.858V-2.92257H235.39L236.453 -4.25121H236.718L236.984 -4.78266V-6.11129L236.453 -6.90847L236.718 -7.43992L237.515 -8.76856L239.641 -9.03428L240.704 -10.3629V-10.8944H241.501L241.767 -11.1601V-11.9573V-12.4887L242.033 -13.153L242.83 -13.0202H243.361L244.956 -14.6145L245.487 -15.146L246.019 -15.9432L241.767 -22.5863V-49.159L242.033 -49.6905L244.956 -53.6764L247.082 -58.1937H244.956L244.424 -57.6623H243.627L243.361 -58.1937H242.299V-58.7252L240.704 -60.3195H239.641L238.578 -60.0538L237.25 -59.2566L235.921 -58.4594L234.858 -57.3965L233.264 -55.5364L232.467 -53.9421L230.872 -54.7393H227.684L226.886 -55.5364H223.432L222.103 -56.0679L216.257 -60.851L214.397 -61.9139Z" fill="#CCCCCC"/>
<path d="M240.704 -60.3195H239.641L238.578 -60.0538L237.25 -59.2566L235.921 -58.4594L234.858 -57.3965L233.264 -55.5364L232.467 -53.9421L230.872 -54.7393H227.684L226.886 -55.5364H223.432L222.103 -56.0679L216.257 -60.851L214.397 -61.9139H209.083L208.286 -62.9768H207.223H198.719L196.859 -62.1796L195.265 -60.0538L196.062 -58.7252V-57.6623L197.391 -56.5994L198.188 -56.0679V-53.4106L198.719 -52.3477L199.251 -51.8163V-50.2219L200.048 -49.6905L200.579 -49.159L201.377 -48.0961V-45.1731L201.908 -44.1102V-40.6558L201.377 -40.1243L200.314 -37.467L199.782 -36.9356H199.251L198.719 -36.4041V-35.8727L198.188 -35.3412V-34.2783L197.125 -33.2154L195.531 -30.8239L195.265 -30.0267M240.704 -60.3195V-60.851M240.704 -60.3195L242.299 -58.7252V-58.1937H243.361L243.627 -57.6623H244.424L244.956 -58.1937H247.082L244.956 -53.6764L242.033 -49.6905L241.767 -49.159V-22.5863L246.019 -15.9432L245.487 -15.146L244.956 -14.6145L243.361 -13.0202H242.83M240.97 -13.2859H241.236L242.033 -13.153M242.83 -13.0202V-12.4887M242.83 -13.0202L242.033 -13.153M242.033 -13.153L241.767 -12.4887V-11.9573M241.767 -11.9573H242.299M241.767 -11.9573V-11.1601L241.501 -10.8944H240.704V-10.3629L239.641 -9.03428L237.515 -8.76856L236.718 -7.43992L236.453 -6.90847L236.984 -6.11129V-4.78266L236.718 -4.2512H236.453L235.39 -2.92257H234.858V-1.85966H234.327V-0.796758L233.795 -0.265304V1.32906L233.264 1.86051V2.39196L232.732 3.45487V3.98632L232.201 4.51778V5.04923L231.669 5.58068V6.11214L231.138 6.64359H230.607L230.075 7.17504L229.278 6.64359L229.012 6.11214L227.418 4.51778L225.558 3.45487L225.292 2.92342L222.369 0.797602L221.04 -0.531031L220.509 -1.32821L219.446 -2.39112V-3.1883L219.978 -3.45402V-5.04838L218.383 -6.64274L214.663 -8.76856L208.817 -12.223L205.363 -14.3488L196.328 -20.7263L196.062 -20.992V-22.5863L195.796 -23.1178V-23.915L196.594 -24.4464L197.656 -24.7122H198.985V-25.7751H200.845L201.377 -26.3065L200.314 -27.3694H198.719L198.188 -26.838L197.656 -26.3065H197.125H196.594L196.062 -26.838V-27.3694L195.531 -27.9009L195.265 -30.0267M194.202 -30.0267H195.265" stroke="white"/>
<path d="M201.908 58.9914L201.111 58.4599L200.314 57.1313L199.782 56.5998L198.985 55.5369L198.72 54.7398V53.4111L199.251 52.8797V52.3482L198.72 51.8168V48.8938L198.188 47.0337L197.657 45.9708H197.391L197.125 45.705L196.328 44.3764L196.062 43.3135H194.468V44.3764L192.342 43.8449H191.811L188.622 42.2506H187.559L186.496 41.1877H185.699L184.105 40.1248L181.713 39.5933L180.65 38.5304H179.853L177.993 36.6703H176.398L175.867 35.8731V34.8102L175.336 34.2788L174.804 33.2159L173.741 30.0271L173.21 29.4957V28.9642L172.678 28.6985V27.9013V26.8384L172.147 26.307V24.1812L171.615 23.1182V22.5868L171.084 22.0553L170.553 21.5239V20.9924L170.021 20.461L168.958 19.9295H167.895L167.364 19.6638L166.832 18.3352L167.364 17.2723L168.427 16.2093V14.615L168.161 14.3493L167.364 12.7921V9.56617L166.832 8.76899L166.301 8.23754V4.51736L167.098 5.31454L169.224 3.18873L171.615 -1.06291V-1.86009L172.678 -2.12581L173.741 -3.18872L174.273 -4.78308V-5.31454L172.678 -5.84599L172.147 -6.06857V-9.30044L173.21 -10.0976H174.273L174.804 -10.6291V-12.7549L174.007 -16.7408L171.881 -20.461H174.538L175.07 -21.2582L177.461 -20.9924L178.259 -20.461H181.182L181.447 -19.3981L180.119 -14.8807L179.853 -13.8178L180.65 -13.0206L180.119 -12.4892V-10.8948L180.65 -9.83189V-7.70608H181.182L181.713 -8.23753L182.244 -8.50326V-9.30044L182.776 -9.83189L183.307 -10.3633L183.839 -10.8948H184.37V-11.4263L184.902 -10.0976L185.433 -9.30044H185.965V-9.83189H187.028L187.559 -9.03471V-7.70608L187.028 -6.64317V-6.11172H187.559L188.09 -6.64317L188.755 -7.04176L188.09 -7.70608V-9.83189L189.951 -10.0976L191.279 -9.30044L193.405 -10.8948L194.468 -11.4263V-11.9577L193.936 -12.4892H193.405L192.608 -11.9577H191.811L191.279 -12.4892L190.482 -12.2234L190.216 -13.0206L191.279 -13.5521H191.811V-14.615L192.874 -15.1464L193.405 -15.6779V-16.2093L192.874 -16.7408L193.405 -17.2722H193.936L194.468 -16.7408H194.999L195.531 -17.2722L194.999 -17.8037L195.531 -18.3352L194.999 -18.8666V-19.1323L195.531 -19.9295L196.328 -20.7267L205.894 -14.0835L211.474 -10.6291L218.383 -6.64317L219.978 -5.04881V-3.45445L219.446 -3.18872V-2.39154L220.509 -1.32863L221.041 -0.531452L222.369 0.797184L224.229 2.12582L225.292 2.923L225.558 3.45445L227.418 4.51736L229.012 6.11172L229.278 6.64318L230.075 7.17463L229.012 10.0976V11.4263L227.418 15.1464V18.8666L228.481 20.461L230.075 21.7896V22.0553V22.5868H230.607H231.138L231.67 23.384V23.6497V25.2441L231.138 25.7755V26.307L230.607 26.8384V27.3699L230.075 28.4328V28.9642V30.0271H230.607L231.138 30.5586V31.3558V32.4187L230.607 33.4816V33.7473L230.075 34.2788V35.8731L230.607 36.4046V37.4675L231.138 37.999V39.5933L232.201 40.6562V41.9849L232.467 44.9079L233.264 46.7679L233.795 47.0337L234.858 48.0966L236.187 48.628L237.25 50.2224L236.187 51.8168L234.858 52.8797L232.201 53.9426L229.012 55.8027H227.152L223.964 57.6628L221.572 56.0684L220.775 56.3341L218.118 59.7886H215.726L214.397 58.7257H213.335L211.474 60.32L210.412 60.0543L209.88 59.7886L207.489 58.4599L207.223 57.397L204.034 59.2571L201.908 58.9914Z" fill="#CCCCCC"/>
<path d="M230.075 30.5586V30.0271H230.607L231.138 30.5586V31.3558V32.4187L230.607 33.4816V33.7473L230.075 34.2788V35.8731L230.607 36.4046V37.4675L231.138 37.999V39.5933L232.201 40.6562V41.9849L232.467 44.9079L233.264 46.7679L233.795 47.0337L234.858 48.0966L236.187 48.628L237.25 50.2224L236.187 51.8168L234.858 52.8797L232.201 53.9426L229.012 55.8027H227.152L223.964 57.6628L221.572 56.0684L220.775 56.3341L218.118 59.7886H215.726L214.397 58.7257H213.335L211.474 60.32L210.412 60.0543L209.88 59.7886L207.489 58.4599L207.223 57.397L204.034 59.2571L201.908 58.9914L201.111 58.4599L200.314 57.1313L199.782 56.5998L198.985 55.5369L198.72 54.7398V53.4111L199.251 52.8797V52.3482L198.72 51.8168V48.8938L198.188 47.0337L197.657 45.9708H197.391L197.125 45.705L196.328 44.3764L196.062 43.3135H194.468V44.3764L192.342 43.8449H191.811L188.622 42.2506H187.559L186.496 41.1877H185.699L184.105 40.1248L181.713 39.5933L180.65 38.5304H179.853L177.993 36.6703H176.398L175.867 35.8731V34.8102L175.336 34.2788L174.804 33.2159L173.741 30.0271L173.21 29.4957V28.9642L172.678 28.6985V27.9013V26.8384L172.147 26.307V24.1812L171.615 23.1182V22.5868L171.084 22.0553L170.553 21.5239V20.9924L170.021 20.461L168.958 19.9295H167.895L167.364 19.6638L166.832 18.3352L167.364 17.2723L168.427 16.2093V14.615L168.161 14.3493L167.364 12.7921V9.56617L166.832 8.76899L166.301 8.23754V4.51736L167.098 5.31454L169.224 3.18873L171.615 -1.06291V-1.86009L172.678 -2.12581L173.741 -3.18872L174.273 -4.78308V-5.31454L172.678 -5.84599L172.147 -6.06857V-9.30044L173.21 -10.0976H174.273L174.804 -10.6291V-12.7549L174.007 -16.7408L171.881 -20.461H174.538L175.07 -21.2582L177.461 -20.9924L178.259 -20.461H181.182L181.447 -19.3981L180.119 -14.8807L179.853 -13.8178L180.65 -13.0206L180.119 -12.4892V-10.8948L180.65 -9.83189V-7.70608H181.182L181.713 -8.23753L182.244 -8.50326M230.075 30.5586V30.8243M230.075 30.5586V28.9642V28.4328L230.607 27.3699V26.8384L231.138 26.307V25.7755L231.67 25.2441V23.6497V23.384L231.138 22.5868H230.607M230.607 22.5868V23.384M230.607 22.5868H230.075V22.0553V21.7896L228.481 20.461L227.418 18.8666V15.1464L229.012 11.4263V10.0976L230.075 7.17463L229.278 6.64318L229.012 6.11172L227.418 4.51736L225.558 3.45445L225.292 2.923L224.229 2.12582L222.369 0.797183L221.041 -0.531452L220.509 -1.32863L219.446 -2.39154V-3.18872L219.978 -3.45445V-5.04881L218.383 -6.64317L211.474 -10.6291L205.894 -14.0835L196.328 -20.7267L195.531 -19.9295L194.999 -19.1323V-18.8666L195.531 -18.3352L194.999 -17.8037L195.531 -17.2722L194.999 -16.7408H194.468L193.936 -17.2722H193.405L192.874 -16.7408L193.405 -16.2093V-15.6779L192.874 -15.1464L191.811 -14.615V-13.5521H192.342H192.608H191.279L190.216 -13.0206L190.482 -12.2234L191.279 -12.4892L191.811 -11.9577H192.608L193.405 -12.4892H193.936L194.468 -11.9577V-11.4263L193.405 -10.8948L191.279 -9.30044L189.951 -10.0976L188.09 -9.83189V-7.70608L188.755 -7.04176M189.419 -6.37744L188.755 -7.04176M188.755 -7.04176L188.09 -6.64317L187.559 -6.11172H187.028V-6.64317L187.559 -7.70608V-9.03471L187.028 -9.83189H185.965V-9.30044H185.433L184.902 -10.0976L184.37 -11.4263M184.37 -11.4263V-11.692M184.37 -11.4263V-10.8948H183.839L183.307 -10.3633L182.776 -9.83189M182.776 -9.83189L183.307 -9.30044V-8.76899M182.776 -9.83189L182.244 -9.30044V-8.50326M182.244 -7.70608V-8.50326" stroke="white"/>
<path d="M232.732 31.6214V30.5585L233.53 29.4956H233.795H234.061L234.327 30.2928L233.264 31.6214H232.732Z" fill="#CCCCCC" stroke="white"/>
</g>
</g>
<defs>
<clipPath id="clip0_16_3565">
<rect width="345" height="245" fill="white" transform="translate(-0.958496)"/>
</clipPath>
</defs>
</svg>
