<svg width="50" height="50" viewBox="0 0 50 50" fill="none" xmlns="http://www.w3.org/2000/svg">
<g clip-path="url(#clip0_30_2612)">
<path d="M25 50C38.8071 50 50 38.8071 50 25C50 11.1929 38.8071 0 25 0C11.1929 0 0 11.1929 0 25C0 38.8071 11.1929 50 25 50Z" fill="white"/>
<path d="M48.0497 15.3079C44.2637 6.31465 35.3699 0 25 0C18.0963 0 11.847 2.79873 7.32315 7.32314L13.5839 15.3079H48.0497Z" fill="#02070D"/>
<path d="M13.6549 34.6016L7.32315 42.6769C11.847 47.2013 18.0963 50 25 50C35.4049 50 44.324 43.6432 48.0883 34.6016H13.6549Z" fill="#249F58"/>
<path d="M5.43477 18.3877V31.5217H49.1389C49.6996 29.4425 50 27.2565 50 25C50 22.7107 49.6916 20.4939 49.1151 18.3877H5.43477Z" fill="#F93939"/>
<path d="M7.32227 7.32227C-2.44082 17.0853 -2.44082 32.9145 7.32227 42.6777C11.3567 38.6433 15.2369 34.7631 25 25L7.32227 7.32227Z" fill="#1A47B8"/>
<path d="M8.14316 18.7844L11.1944 23.0423L16.1874 21.4559L13.0809 25.674L16.1321 29.9321L11.1606 28.281L8.054 32.499L8.08818 27.2604L3.1165 25.6091L8.10908 24.0228L8.14316 18.7844Z" fill="#FFDA2C"/>
</g>
<defs>
<clipPath id="clip0_30_2612">
<rect width="50" height="50" fill="white"/>
</clipPath>
</defs>
</svg>
