<svg width="50" height="50" viewBox="0 0 50 50" fill="none" xmlns="http://www.w3.org/2000/svg">
<g clip-path="url(#clip0_16_3812)">
<path d="M25 50C38.8071 50 50 38.8071 50 25C50 11.1929 38.8071 0 25 0C11.1929 0 0 11.1929 0 25C0 38.8071 11.1929 50 25 50Z" fill="white"/>
<path d="M7.32227 42.6777C-2.44082 32.9145 -2.44082 17.0854 7.32227 7.32227C7.32158 7.32334 21.7392 25 21.7392 25L7.32227 42.6777Z" fill="#02070D"/>
<path d="M21.7392 25L3.31573 12.5501C2.74454 13.543 2.24083 14.5793 1.80801 15.652L11.1351 25.0001L1.80831 34.3487C2.24073 35.4206 2.74395 36.4563 3.31475 37.4484L21.7392 25Z" fill="#FFDA2C"/>
<path d="M49.7884 21.7392H21.7385L7.32207 7.32266C5.76855 8.87618 4.41884 10.6331 3.31572 12.5502L15.7414 25L3.31474 37.4482C4.41787 39.3658 5.76816 41.1233 7.32207 42.6772L21.7385 28.2608H49.7884C49.9273 27.1935 50 26.1052 50 25C50 23.8948 49.9273 22.8065 49.7884 21.7392Z" fill="#249F58"/>
<path d="M9.7791 44.8318C13.9948 48.0722 19.2719 50 25 50C36.5507 50 46.27 42.1659 49.1388 31.5218H23.0892L9.7791 44.8318Z" fill="#1A47B8"/>
<path d="M49.1388 18.4782C46.27 7.83408 36.5507 0 25 0C19.2719 0 13.9948 1.92783 9.7791 5.16826L23.0891 18.4782H49.1388Z" fill="#F93939"/>
</g>
<defs>
<clipPath id="clip0_16_3812">
<rect width="50" height="50" fill="white"/>
</clipPath>
</defs>
</svg>
