<svg width="50" height="50" viewBox="0 0 50 50" fill="none" xmlns="http://www.w3.org/2000/svg">
<g clip-path="url(#clip0_30_2633)">
<path d="M25 50C38.8071 50 50 38.8071 50 25C50 11.1929 38.8071 0 25 0C11.1929 0 0 11.1929 0 25C0 38.8071 11.1929 50 25 50Z" fill="#FFDA2C"/>
<path d="M7.32224 42.6777C8.37097 43.7264 9.48992 44.6617 10.6636 45.4851L45.4849 10.6637C44.6617 9.49001 43.7263 8.37107 42.6776 7.32234C41.6288 6.27361 40.5099 5.33845 39.3362 4.51501L4.51501 39.3364C5.33826 40.5098 6.27361 41.6289 7.32224 42.6777Z" fill="#02070D"/>
<path d="M7.3221 7.32204C-0.564821 15.2091 -2.07898 27.054 2.77678 36.4625L36.4625 2.77682C27.054 -2.07894 15.2091 -0.564684 7.3221 7.32204Z" fill="#249F58"/>
<path d="M42.6776 42.6778C50.5646 34.7909 52.0786 22.9458 47.2231 13.5374L13.5373 47.2231C22.9456 52.0788 34.7906 50.5647 42.6776 42.6778Z" fill="#3ECBF8"/>
</g>
<defs>
<clipPath id="clip0_30_2633">
<rect width="50" height="50" fill="white"/>
</clipPath>
</defs>
</svg>
