<svg width="50" height="50" viewBox="0 0 50 50" fill="none" xmlns="http://www.w3.org/2000/svg">
<g clip-path="url(#clip0_30_2001)">
<path d="M25 50C38.8071 50 50 38.8071 50 25C50 11.1929 38.8071 0 25 0C11.1929 0 0 11.1929 0 25C0 38.8071 11.1929 50 25 50Z" fill="white"/>
<path d="M14.1305 33.6956L16.3044 48.4452C19.0126 49.4501 21.942 50 25 50C35.7491 50 44.9127 43.2156 48.445 33.6956H14.1305Z" fill="#02070D"/>
<path d="M14.1305 16.3044L16.3044 1.55479C19.0126 0.549805 21.942 0 25 0C35.7491 0 44.9127 6.78438 48.445 16.3044H14.1305Z" fill="#249F58"/>
<path d="M0 24.9999C0 35.7491 6.78447 44.9126 16.3044 48.445V1.55493C6.78447 5.08726 0 14.2508 0 24.9999Z" fill="#F93939"/>
</g>
<defs>
<clipPath id="clip0_30_2001">
<rect width="50" height="50" fill="white"/>
</clipPath>
</defs>
</svg>
