<svg width="50" height="50" viewBox="0 0 50 50" fill="none" xmlns="http://www.w3.org/2000/svg">
<g clip-path="url(#clip0_30_2653)">
<path d="M43.6321 41.6666C47.5914 37.2435 50 31.4035 50 25C50 18.5964 47.5913 12.7563 43.632 8.33325L25 6.52173L6.36797 8.33325C2.40869 12.7563 0 18.5964 0 25C0 31.4035 2.40859 37.2435 6.36787 41.6666L25 43.4782L43.6321 41.6666Z" fill="#FFDA2C"/>
<path d="M6.36797 8.3333H43.6321C39.0545 3.21934 32.4036 0 25 0C17.5964 0 10.9455 3.21934 6.36797 8.3333Z" fill="#02070D"/>
<path d="M0 25L25 27.1739L50 25C50 22.0778 49.497 19.2733 48.5754 16.6666H1.42461C0.503027 19.2733 0 22.0778 0 25H0Z" fill="#F93939"/>
<path d="M1.42461 33.3333H48.5756C49.497 30.7267 50 27.9223 50 25H0C0 27.9223 0.503027 30.7267 1.42461 33.3333Z" fill="#02070D"/>
<path d="M43.6321 41.6666H6.36787C10.9454 46.7807 17.5963 50 25 50C32.4037 50 39.0546 46.7807 43.6321 41.6666Z" fill="#F93939"/>
<path d="M33.3424 25C33.3424 29.6077 29.6077 33.3424 25 33.3424C20.3923 33.3424 16.6576 29.6077 16.6576 25C16.6576 20.3923 20.3923 16.6576 25 16.6576C29.6077 16.6576 33.3424 20.3923 33.3424 25Z" fill="white"/>
<path d="M28.0562 25.4254L25 24.1011C25 24.1011 25.715 21.7277 25.7531 21.5653C25.781 21.4467 25.7958 21.3229 25.7958 21.1958C25.7958 20.7455 25.6133 20.3379 25.3182 20.043L26.0867 19.2744C25.595 18.7827 24.9156 18.4785 24.1652 18.4785C23.4148 18.4785 22.7355 18.7826 22.2438 19.2744L23.0123 20.043C22.7172 20.338 22.5348 20.7456 22.5348 21.1958C22.5348 21.3604 22.5597 21.5191 22.6051 21.669L21.448 22.8261H23.5511C23.5511 22.8261 22.6815 24.1321 22.2068 25.2047C21.7321 26.2771 22.2134 27.5864 23.3105 28.0741L23.9448 28.3561L25 29.3479V30.4348L23.9131 31.5217H26.087V29.3478L27.0789 28.3559H29.1305C29.1403 28.3355 29.1507 28.3155 29.1601 28.2946C29.6475 27.1977 29.1533 25.9129 28.0562 25.4254Z" fill="#02070D"/>
</g>
<defs>
<clipPath id="clip0_30_2653">
<rect width="50" height="50" fill="white"/>
</clipPath>
</defs>
</svg>
