<svg width="18" height="14" viewBox="0 0 18 14" fill="none" xmlns="http://www.w3.org/2000/svg">
<path d="M4.57598 0.0152267C4.33931 0.0786411 4.19886 0.321904 4.26228 0.55857L4.60675 1.84413C4.67016 2.0808 4.91342 2.22125 5.15009 2.15783C5.38675 2.09442 5.5272 1.85116 5.46379 1.61449L5.11932 0.328926C5.05591 0.0922603 4.81264 -0.0481877 4.57598 0.0152267Z" fill="#00008C"/>
<path d="M5.58708 3.42109C4.16709 3.80158 3.3244 5.26116 3.70489 6.68115C3.74928 6.84682 3.80819 7.00425 3.87979 7.15259C3.98629 7.37325 3.89375 7.63846 3.67309 7.74496C3.45243 7.85146 3.18722 7.75892 3.08072 7.53826C2.98507 7.3401 2.9067 7.13044 2.84784 6.9108C2.34053 5.01747 3.46411 3.07136 5.35744 2.56405C6.28911 2.31441 7.23444 2.46005 8.01347 2.89749C8.22711 3.01745 8.30306 3.28788 8.18309 3.50152C8.06313 3.71516 7.7927 3.7911 7.57906 3.67114C6.99383 3.34253 6.2861 3.23379 5.58708 3.42109Z" fill="#00008C"/>
<path d="M2.54632 7.14187C2.48291 6.90521 2.23965 6.76476 2.00298 6.82817L0.717415 7.17264C0.480749 7.23605 0.340301 7.47932 0.403715 7.71598C0.46713 7.95265 0.710393 8.0931 0.947059 8.02968L2.23262 7.68522C2.46929 7.6218 2.60974 7.37854 2.54632 7.14187Z" fill="#00008C"/>
<path d="M0.934566 2.86543C0.812467 3.07786 0.88569 3.34904 1.09811 3.47114L2.252 4.13438C2.46442 4.25648 2.73561 4.18325 2.85771 3.97083C2.9798 3.75841 2.90658 3.48722 2.69416 3.36512L1.54027 2.70189C1.32785 2.57979 1.05666 2.65301 0.934566 2.86543Z" fill="#00008C"/>
<path d="M9.5606 0.629698C9.34817 0.507599 9.07699 0.580823 8.95489 0.793247L8.29165 1.94713C8.16955 2.15955 8.24278 2.43074 8.4552 2.55284C8.66763 2.67494 8.93881 2.60171 9.06091 2.38929L9.72415 1.23541C9.84624 1.02298 9.77302 0.751797 9.5606 0.629698Z" fill="#00008C"/>
<path fill-rule="evenodd" clip-rule="evenodd" d="M6.90458 4.84898C7.71981 4.15888 8.82473 3.79632 10.0145 3.79632C11.2043 3.79632 12.3092 4.15888 13.1244 4.84898C13.9467 5.54504 14.4509 6.55624 14.4509 7.78907H14.8945C16.6096 7.78907 18 9.17943 18 10.8945C18 12.6096 16.6096 14 14.8945 14H5.13449C3.41939 14 2.02902 12.6096 2.02902 10.8945C2.02902 9.17943 3.41939 7.78907 5.13449 7.78907H5.57812C5.57812 6.55624 6.0823 5.54504 6.90458 4.84898ZM7.47784 5.5262C6.85503 6.05341 6.4654 6.81677 6.4654 7.78907C6.4654 7.9227 6.47277 8.05445 6.48708 8.18396L6.54151 8.67634H5.13449C3.90941 8.67634 2.9163 9.66946 2.9163 10.8945C2.9163 12.1196 3.90941 13.1127 5.13449 13.1127H14.8945C16.1196 13.1127 17.1127 12.1196 17.1127 10.8945C17.1127 9.66946 16.1196 8.67634 14.8945 8.67634H13.4875L13.5419 8.18396C13.5562 8.05445 13.5636 7.9227 13.5636 7.78907C13.5636 6.81677 13.174 6.05341 12.5512 5.5262C11.9213 4.99303 11.0299 4.6836 10.0145 4.6836C8.99915 4.6836 8.1077 4.99303 7.47784 5.5262Z" fill="#00008C"/>
</svg>
