<svg width="345" height="245" viewBox="0 0 345 245" fill="none" xmlns="http://www.w3.org/2000/svg">
<path d="M1 16C1 7.16345 8.16344 0 17 0H329C337.837 0 345 7.16344 345 16V245H1V16Z" fill="#F4F5F7"/>
<mask id="mask0_30_2964" style="mask-type:alpha" maskUnits="userSpaceOnUse" x="0" y="0" width="344" height="239">
<path d="M0 16C0 7.16345 7.16344 0 16 0H328C336.837 0 344 7.16344 344 16V239H0V16Z" fill="#F4F5F7"/>
</mask>
<g mask="url(#mask0_30_2964)">
<g clip-path="url(#clip0_30_2964)">
<rect width="345" height="245" transform="translate(-0.470703 1)" fill="#F4F5F7"/>
<path d="M17.6649 64.5761L16.1322 64.8005L15.4752 63.9029V62.5564L16.7891 58.517V56.9461L15.9132 55.3752L14.5994 54.2532L14.1614 53.3555L13.2855 52.6823L11.5338 52.4579L10.6579 51.7847L10.22 51.3358V50.887L11.0959 50.4382L11.5338 49.5405L11.9717 47.072L10.8769 44.8279L12.4097 44.3791L12.8476 43.7058V42.5838L13.5045 41.4617L12.4097 40.1153V38.7688H14.1614L15.0373 39.442L15.4752 39.6664V38.9932L15.0373 38.0956L14.3804 36.9735L14.1614 35.8514V35.1782H15.0373V34.7294L14.1614 34.0561V32.9341H13.7235L12.8476 32.0364V29.5679L13.2855 28.4459L14.3804 27.7726L15.0373 27.0994V26.6506L16.5701 26.4262L17.8839 27.997H19.1977L19.4167 27.0994L20.9495 26.875V25.0797L21.1685 24.8553L21.8254 25.7529H22.4823L22.7013 24.8553L23.3582 24.6309V27.5482H24.672L25.5479 26.6506L26.4237 26.2017L27.2996 26.4262L27.5186 26.875L28.3945 27.0994L29.7083 27.997L30.3652 29.7923L31.0221 30.69L31.898 31.1388L33.4308 31.5876L33.8687 31.3632L34.9636 30.2411H35.6205L36.0584 29.7923H39.9999L40.8758 30.4656V31.1388L41.3137 31.812V32.0364L42.6275 33.1585V33.6073L42.1896 34.2806V34.9538L42.6275 35.627L43.0655 36.5247L43.5034 37.8711V40.5641L42.1896 42.135L41.7516 42.3594L40.8758 46.1744L39.343 50.2138L39.9999 53.5799L40.8758 56.4973L41.7516 56.9461L42.1896 57.3949L42.4086 59.6391L41.7516 60.0879L40.6568 60.7611L39.5619 59.6391L37.3722 60.0879L36.0584 59.4146H33.8687L29.0514 60.0879L27.0807 60.3123L25.3289 60.5367L24.453 60.7611L22.4823 62.1076L20.5116 63.0052L19.4167 63.2296L17.6649 64.5761Z" fill="#0089FF" stroke="white"/>
<path d="M297.821 -8.19095V-12.2304H298.722L300.298 -14.0256V-18.2895L300.973 -18.7383H302.324L303.45 -17.8406H304.8L305.476 -18.2895H307.727L317.858 -13.3524V-6.84448H318.533L318.983 -8.41536L327.763 -20.0848L329.114 -22.3289L331.14 -23.8998L339.92 -26.1439L348.475 -28.1636L349.15 -26.8171L352.978 -19.4115V-18.0651L353.653 -17.6162L354.779 -14.4745L355.679 -13.5768L354.328 -12.6792L352.978 -12.2304L352.077 -11.7815L350.726 -10.4351V-7.06889L350.051 -6.39566L347.349 -4.82478L343.972 -4.15154L340.596 -2.35625L339.47 -1.90743L335.418 -1.00978L333.392 1.00992L332.041 2.5808L330.69 3.47845H328.439L328.214 3.25404L327.763 3.02963L324.837 5.27374L323.036 6.17139L321.01 7.06903H316.732L315.607 7.51786L311.779 10.2108L311.329 10.884L309.078 11.1084L307.727 12.0061H305.251L304.35 11.5573H302.324V10.2108L301.198 8.4155V5.04933L300.298 3.47845V1.90757H299.848L299.172 -1.68302L298.947 -2.13184V-3.2539L297.146 -4.82478H298.047V-5.94683L297.596 -6.39566V-7.74213L297.821 -8.19095Z" fill="#CED3D9" stroke="white"/>
<path d="M300.955 20.675L300.728 19.0891L303.461 21.8078L304.599 23.8468L306.194 25.4328L307.788 26.5656H310.293L311.432 26.1124L315.076 23.3937H316.443L316.898 24.0734H318.72H319.404H320.315L320.998 23.6203L323.731 21.5812H325.781L326.464 22.0344H327.83L330.108 20.675L332.613 20.9016L332.841 21.1281H333.752L334.208 20.675H335.119L337.624 19.3156H338.99H340.585L341.496 17.7297L342.635 16.5969H345.368L346.279 17.2766V17.7297L346.051 19.3156L345.595 20.2219V21.5812L346.051 22.2609V25.4328L346.734 25.6593L347.645 26.5656L344.684 27.0187L344.457 31.7764L344.001 33.5889L341.951 37.2139L341.04 40.1591L338.99 41.9716L338.535 44.9169L335.346 51.034L334.208 55.3387L331.475 59.8699L329.653 62.362L328.286 65.5339L325.553 68.4791L321.453 73.69L317.582 77.315L313.937 80.9399L310.521 82.5258L306.422 86.3774L302.777 90.0023L297.539 96.5726L295.945 98.8382L294.806 99.2913L294.123 101.557L292.756 103.822L289.112 97.9319V75.2759L291.617 71.8775L293.895 68.026L295.945 65.7604H298.906L302.322 62.8151L305.283 61.4558H310.977H311.888L313.254 59.8699L315.987 56.2449L321.681 49.4481L325.781 44.6903L328.286 41.9716H323.275L306.649 35.8545L302.55 32.6827L300.728 29.7374L298.222 26.339V24.3L299.133 22.4875L300.044 20.675H300.955Z" fill="#CED3D9" stroke="white"/>
<path d="M301.278 16.433L301.737 16.0114V14.7465L301.278 14.3249L300.36 12.4277L299.671 12.0061L297.605 13.9033L295.998 13.0601L295.539 13.9033L292.555 17.487V21.2814L293.244 22.3354H293.933L295.08 21.9138L296.917 21.2814L298.753 21.9138L299.901 20.2274L300.819 20.0166V18.3302H300.36H299.671H298.753L298.064 18.7518V18.3302L298.753 17.487L300.36 16.8546L301.278 16.433Z" fill="#CED3D9" stroke="white"/>
<path d="M298.335 14.3015L296.757 13.3776L294.051 10.6057L289.993 6.44802L287.514 3.21424L284.132 0.673409H278.496L277.369 -0.481514L276.241 0.673409H274.213L270.605 -2.32939L270.831 -1.17447L269.027 2.75227L267.449 0.673409L266.322 1.59735H263.391V0.673409L262.94 -2.56038L262.715 -3.7153L263.842 -6.02514L264.744 -8.79696L265.646 -16.1885H267.9L268.576 -18.0363L272.184 -20.1152L273.085 -21.0391L273.987 -22.425H274.438L275.791 -18.7293L277.143 -15.7265L279.172 -8.10401L281.652 -3.25333V-5.56318L281.878 -6.02514L283.005 -5.33219L283.681 -2.79136L284.808 -2.32939V-2.79136H286.161L287.063 -1.17447L289.768 -0.25053L291.797 2.75227L295.404 6.21704L296.531 7.83393L299.462 11.0677H300.589V12.2226L298.335 14.3015Z" fill="#CED3D9" stroke="white"/>
<path d="M192.03 -7.69999L192.705 -7.24901L192.303 -31.8271L170.643 -44.4544L151.282 -55.5033L149.255 -56.6307L147.905 -56.8562L146.554 -56.6307L142.277 -53.9249L142.952 -49.8661L143.402 -46.2583L143.627 -44.2289L145.428 -41.7486V-39.4937L147.68 -37.6898V-36.3369L146.329 -33.8565L145.428 -19.8763L144.753 -15.3666L143.402 -12.6607L140.025 -8.82742L137.099 -4.99414L136.198 -1.83732L134.172 0.868526L134.847 4.9273L137.099 8.76058L137.999 9.21156H139.575L140.25 11.2409L141.826 12.5939V14.3978L143.177 16.6526V19.8095L142.727 22.5153L143.627 26.1231L146.554 28.6035L146.329 29.2799H142.727L140.25 29.0544L139.575 28.8289H138.449L137.099 30.4073V31.3093L138.449 33.3387L143.627 38.5249L145.879 43.2601L145.653 44.8385L147.68 45.2895L150.156 43.9366L151.507 42.3582L151.732 43.4856L153.083 44.8385L155.334 43.0346L157.135 42.1327L162.763 41.4562L165.465 38.0739V37.3975L164.564 36.4955L165.465 35.5936L169.517 35.3681L172.669 34.4661L174.92 33.1132L176.721 30.8583L180.548 27.025L180.998 24.7702L183.925 23.1918L186.852 22.9663L187.527 20.7114L185.051 18.682V18.0056L185.501 17.3291V16.4271L184.6 15.9762V14.1723L184.15 12.1429L183.7 11.6919H183.25V12.1429H181.449L180.998 11.4664V10.339L183.25 7.40765L182.349 6.05473V4.47632L184.6 3.1234L185.051 2.22145L184.15 1.77047V-0.258911L185.051 -0.935371L186.852 -3.86671L187.302 -7.24901L192.03 -7.69999Z" fill="#CED3D9" stroke="white"/>
<path d="M307.281 256.467L305.708 255.119H304.36L303.462 254.669L301.889 252.871L301.439 250.624L300.091 248.398V244.78L300.99 243.432V242.982L300.091 241.184L298.743 239.386V234.891L298.294 234.442L299.193 232.644L300.091 231.295V230.172L300.316 229.497L301.439 229.273L301.664 228.823L302.338 226.8L304.585 223.205L305.484 221.856L305.933 221.325V218.71V218.26L306.382 217.361L305.484 216.462V213.765L304.136 211.037V207.023L303.686 206.573V205L305.259 202.078L306.832 199.831V197.134L307.281 196.684H309.303L310.427 196.235L310.876 195.785L311.325 195.336L311.775 195.785L312.449 195.561L314.246 194.662L315.819 194.437V193.988H317.167V194.662L317.617 195.336H318.291L317.617 194.437V192.864L319.189 191.965L320.313 190.841H321.211L321.661 191.74L321.886 192.19L322.784 191.515L321.886 191.066V190.167L322.784 189.043L323.683 187.695L324.357 187.245V189.043L325.705 187.245H327.053L325.705 186.346V184.998L326.604 183.649H327.503V182.75L327.053 182.076V180.278L327.503 179.829L328.851 180.727H329.3L330.648 179.154L332.67 176.682L333.12 174.21L331.996 173.76L332.67 172.412L334.243 170.389L335.142 170.839L338.961 178.255V180.727L339.86 187.245L340.759 190.167V192.864L339.86 195.111H338.063V193.538L336.939 192.19L335.816 193.988L336.939 196.235V200.28C336.49 200.73 335.501 201.674 335.142 201.854C334.782 202.033 334.692 203.277 334.692 203.876V206.798L334.243 209.046L331.322 216.912L329.3 222.98L319.639 251.073L318.74 253.321L316.718 254.22H314.022L313.348 254.669L310.202 256.467H307.281Z" fill="#CED3D9" stroke="white"/>
<path d="M156.988 304.393V302.814L157.438 301.911H157.887L159.012 302.814L159.912 299.88V298.3L159.237 297.172L158.562 295.818L157.213 292.884L155.863 290.853L154.513 287.694L153.614 284.986L152.714 281.375L152.489 280.472L151.589 279.344L150.24 275.959L151.365 274.83L151.814 273.251L152.939 272.574L153.614 272.799L154.513 273.476L154.963 275.282L155.863 276.184L157.213 277.087L159.012 277.764H160.362L160.587 277.313H163.061L164.185 277.99H165.085V277.538L165.76 276.636L167.334 275.282L168.009 275.056L169.134 274.605L169.584 271.22V251.812L169.809 251.586L171.158 252.263L172.508 254.294L173.407 256.1C173.557 256.852 173.902 258.401 174.082 258.582C174.262 258.762 174.307 259.56 174.307 259.936L173.632 260.839L172.733 262.644V263.998L173.182 265.126L174.307 264.675H179.031L179.255 263.547L180.83 263.772L181.73 261.967L183.304 260.387L184.204 259.033L184.879 258.131V256.551L185.778 255.197L187.803 254.294L189.827 255.874L192.751 257.228L194.775 258.131L195.9 257.679H197.699L199.049 257.228L199.949 257.002L200.848 255.874L201.073 253.617L201.748 252.489L201.973 251.586L202.648 251.36C203.023 251.21 203.817 250.909 203.997 250.909C204.177 250.909 204.672 250.608 204.897 250.458L206.022 249.555L206.921 248.201L207.596 247.298L207.821 245.944L208.496 244.365L209.171 243.462L210.745 242.559L211.87 241.656L212.995 240.754L214.119 239.4L215.244 238.046L216.143 237.369L217.943 237.143L218.618 236.692L219.517 235.563L220.642 234.661H224.016L225.815 235.563L227.84 235.789L228.739 235.563H230.539C230.899 235.563 231.439 236.015 231.663 236.24L232.563 238.271L233.238 240.528L233.463 243.236L234.363 245.042L235.487 248.201L235.262 252.94V254.52L235.712 255.874L235.262 257.679H234.812L235.037 259.033H234.138L233.013 257.679H230.539L230.089 259.485L229.189 260.613L228.514 262.193V263.547L228.739 264.675L229.639 266.029L231.439 267.609H234.812V267.383V265.126L235.262 264.675H235.712H236.837H238.186L239.761 264.901V265.578L237.736 272.574L237.062 274.605L236.162 275.959L235.712 276.861L233.463 277.99L232.338 279.118L230.539 280.923L228.964 284.083L226.715 287.694L224.466 290.853L221.992 293.561L220.417 294.689L216.368 299.429L215.244 300.557L213.444 301.911L211.42 303.716L207.371 306.65L205.347 308.004L203.772 308.681H199.274L198.824 310.487H197.025L195.675 309.81L195.225 310.261L193.651 311.389L191.851 311.615L191.402 310.938H190.277L189.152 310.487H187.353L186.228 311.164H185.328L184.654 310.487H181.055L179.255 311.389L177.681 313.195H176.106L175.207 312.743H173.407L172.508 313.195H171.383L170.483 313.872L169.584 314.549L168.459 315H166.66L165.31 314.774L164.635 314.097L163.735 312.969L162.611 312.743L161.936 312.292L161.711 311.389L161.261 310.261L160.587 310.938L160.137 312.743L159.237 312.292L159.012 310.261L159.912 309.584V307.778L158.562 305.747L156.988 304.393Z" fill="#CED3D9" stroke="white"/>
<path d="M257.685 184.13L254.511 180.765H254.284L254.511 182.336L255.645 183.906V184.579L254.738 184.355L254.284 183.906L254.058 182.336H253.604L253.151 183.233L252.471 184.13L251.791 183.233L251.337 181.887L252.017 181.438V180.541L251.791 180.092H250.884L250.657 178.522V176.503V174.484L249.977 173.363L248.843 171.792V170.895L249.977 168.876L250.657 166.633V162.371L249.977 161.698L250.657 160.801V159.903L249.977 159.006L248.843 157.436V155.417L248.39 154.968H247.936L247.03 154.52H246.576L243.629 153.174H243.402H242.949L243.176 154.071L244.082 154.744L244.763 155.417L245.443 155.641V157.436L245.896 157.66L247.03 159.455V161.249L246.576 161.698L245.669 162.371H244.763V163.044L245.216 163.941V165.063V165.96V167.53L244.763 168.428V168.876V170.222L245.216 171.568L246.123 172.241L245.216 172.69L243.629 173.363L242.722 174.036V176.952V177.849L241.362 179.195L240.909 179.868L241.362 180.765L242.722 182.336H244.309L245.216 184.579L246.576 185.925H247.71L248.843 185.476H249.75H250.657L251.791 186.598L251.337 189.514L251.11 190.86L249.75 193.328V195.795L251.337 198.263L253.831 200.506L254.058 201.852L254.738 202.525L255.418 201.852V200.506L254.738 198.936L255.418 197.141L255.871 196.244H257.685L258.365 195.795L258.818 194.674V189.065L259.272 188.617V186.598L258.365 185.476L257.685 184.13Z" fill="#CED3D9" stroke="white"/>
<path d="M238.028 264.277H235.532V259.346L235.305 258.674H234.625L234.398 257.329H234.851L235.305 255.536L234.851 254.191L235.078 247.916L233.944 244.778L233.036 242.985L232.809 240.52L231.901 237.382L231.221 235.813L232.355 235.365L233.49 234.469L234.625 232.227L235.759 231.331L238.028 229.314L238.936 226.848V224.831L239.163 224.383L240.525 223.038C240.706 222.859 241.205 221.619 241.432 221.021V218.78L240.525 217.211L241.205 216.09V215.194L240.751 214.746V213.625L240.978 213.401L241.659 212.953V211.608L242.113 211.16V207.126L242.567 206.677V206.005L242.113 205.781V202.643L241.886 202.195L241.659 201.298L242.113 200.85V199.954L241.205 199.281L239.163 198.161H237.121L236.213 197.488L234.851 196.592L232.809 195.471H229.405H228.498L228.044 194.126L228.271 191.885L227.59 191.213L227.136 189.644V188.972L228.498 188.523L230.54 187.403L236.894 185.61L240.298 184.041L241.886 183.593L242.794 182.696H244.155L245.063 184.937L246.651 186.282H247.786L248.921 185.834H250.509L251.644 186.955L251.417 188.299L250.963 190.989L249.601 193.454V196.144L251.19 198.609L252.778 199.954L253.459 200.626L253.913 202.195L254.594 202.867H255.048L255.728 202.195V200.626L255.048 199.057L255.955 196.592L256.182 196.368H257.771L258.451 195.919L258.905 194.799V189.42L259.359 188.748V186.73L258.451 185.61L257.771 184.041L256.182 182.248L254.594 180.455L253.459 179.558V176.645L253.005 176.197L253.459 175.748V173.507L253.005 172.835V171.042L253.686 170.369L254.367 168.801L254.594 168.128V167.008L255.275 167.456L257.09 167.68L258.225 167.008L259.359 166.335L259.813 166.111L260.04 167.008L261.174 167.68L262.536 168.352L263.444 168.576L263.898 168.128L265.032 167.232H265.94L267.074 168.128H267.755H269.117L271.386 165.215L272.067 164.991L274.109 166.335L276.832 164.766H278.421L280.009 163.87L281.598 162.973L283.413 162.301L284.548 161.405L285.455 160.06L286.59 161.18V161.853L286.136 162.301V164.318L285.228 165.439L285.001 165.663L285.682 166.111V173.059L286.136 173.507V174.628L285.682 175.3V175.973L286.136 176.197V177.541L285.682 178.438V179.334L286.136 179.783V182.472L285.682 182.92V183.369L286.59 184.041V184.713L286.136 185.162V185.61H286.817V187.403L286.363 187.851L286.136 188.299L286.59 188.748L286.136 189.196L285.682 189.644V190.989L285.455 191.661L284.321 193.23L283.413 194.351L282.732 195.919L281.598 197.264H281.144V197.712L280.69 198.161L279.555 199.281L278.874 199.505L276.151 201.971L273.882 202.419L270.705 203.988H270.251L269.344 204.884L268.663 205.333H267.528L265.259 207.574H264.351L264.124 209.143L262.309 210.936L261.174 212.28L260.721 212.729V213.849H258.905L258.451 214.297H257.998L255.728 216.539V216.987L253.459 219.004L253.232 219.676L251.644 219.452V221.021L251.19 221.694V223.711L251.644 224.159L252.551 225.055L253.232 226.176L253.459 227.072L253.005 227.745V228.193L253.913 231.331L254.367 232.227C254.442 232.676 254.594 233.617 254.594 233.796C254.594 233.975 254.442 234.917 254.367 235.365L254.821 236.934L255.501 240.072L255.048 242.089L253.913 244.778L253.686 245.226L254.594 244.778L255.275 245.451V246.123L254.367 247.468L253.459 249.261L252.551 250.157L251.19 250.829L250.055 251.278L246.425 252.398L245.063 253.071L243.475 253.743L242.113 254.64L240.298 255.536L239.39 256.881L238.255 258.674L237.575 259.122H238.028L239.844 260.467V264.053L239.39 264.501L238.028 264.277Z" fill="#CED3D9" stroke="white"/>
<path d="M175.784 233.783V210.732V210.506H177.571L186.062 208.924L186.509 208.472H188.297L189.638 210.28L190.531 211.636L193.66 208.472L194.553 208.246L195.447 208.924L196.118 208.02L197.905 207.116L199.469 207.342V208.02L199.916 209.15L201.033 211.184L202.151 213.218L203.044 214.8L204.162 218.19L206.843 220.675L207.96 221.127L209.078 221.579L210.195 222.483V224.291H210.865H211.982L212.429 224.743L212.876 225.195V225.873L212.429 226.099V227.229L212.653 227.907L213.323 229.941L213.546 230.845L214.664 231.523L215.557 231.975H216.898L218.015 232.201L219.58 232.879V233.783L220.026 234.235L220.25 235.139L219.133 236.043L218.239 237.173L217.568 237.625L215.781 237.851L215.111 238.303L212.653 241.241L210.642 242.823L208.854 243.953L208.184 244.857L207.513 246.439L207.29 247.795L205.726 250.055L203.715 251.411L201.704 252.089L201.48 252.993L200.81 254.123L200.587 256.383L199.693 257.513L197.458 258.191H195.671L194.553 258.643L189.638 256.383L187.627 254.801L185.616 255.705L184.722 257.061V258.643L183.158 260.903L181.594 262.485L180.7 264.293L179.136 264.067L178.912 265.197H174.22L173.103 265.649L172.656 264.519V263.163L173.549 261.355L174.22 260.677V259.999L173.996 259.095L173.326 256.609L172.432 254.801L171.092 252.767L169.751 252.089L169.974 251.185V234.687L170.421 233.783H171.762L173.103 234.235H174.89L175.784 233.783Z" fill="#CED3D9" stroke="white"/>
<path d="M147.343 274.644L149.625 276.232H149.853L150.993 275.098L151.45 273.51L152.591 272.829L153.275 273.056L154.188 273.737L154.644 275.551L155.557 276.459L156.926 277.366L158.751 278.047H160.12L160.348 277.593H162.858L163.998 278.273H164.911V277.82L165.596 276.912L167.193 275.551L169.018 274.871L169.474 271.587V251.961L169.702 251.734L169.931 250.827L169.702 234.268L170.159 233.134H171.3L173.125 233.814H174.722L175.863 233.134V209.997H177.46L186.13 208.409L186.814 207.955H188.868L190.921 211.131L194.115 207.955H195.256L196.169 208.409L196.625 207.502L198.222 206.594H199.591V205.914L198.222 204.78H195.256L191.834 205.233L179.741 207.955H178.372L177.46 207.502H176.547L175.863 207.955H173.809L172.212 207.048H167.649L166.736 206.594H163.998L161.261 204.099H159.892H136.848L133.197 201.377H131.372L129.318 202.738H126.809H125.44L123.843 203.419V206.594L124.755 209.77L125.44 210.904L128.178 214.08L129.775 216.802L131.372 221.792L133.425 226.556L134.794 229.278L136.848 232.453L139.357 236.763V248.558L140.955 251.28V255.59V256.724V258.993L141.639 259.673V261.941L142.552 262.849V265.344L143.692 266.705V268.293L145.061 271.468L147.343 274.644Z" fill="#CED3D9" stroke="white"/>
<path d="M200.269 206.279H199.591L199.817 206.506V206.96L200.043 207.869L202.303 211.958L203.433 214.002L204.563 217.409L207.274 219.908L209.534 220.816L210.664 221.725V223.542H212.472L213.376 224.451V225.132L212.924 225.359V226.495L213.827 229.221L214.053 230.13L216.087 231.265H217.443L218.573 231.492L220.155 232.174V233.083L220.607 233.537L220.833 234.445H224.222L226.03 235.354L228.064 235.581L228.968 235.354H230.775L231.227 235.581L231.679 235.808H231.905L233.035 235.354L234.165 234.445L235.295 232.174L236.425 231.265L238.685 229.221L239.588 226.722V224.678L239.814 224.224L241.17 222.861L241.622 221.952L242.074 220.816V219.908V218.545L241.17 216.955L241.848 215.819V214.911L241.396 214.456V213.32L241.622 213.093L242.3 212.639V211.276L242.752 210.822V208.323V206.733L243.204 206.279V205.597L242.752 205.37V202.872V202.19L242.526 201.736L242.3 200.827L242.752 200.373V199.464L241.848 198.783L239.814 197.647H237.781L233.487 194.921H229.194L228.742 193.558V192.65H227.16L226.708 192.196H225.578L221.059 194.013L220.155 194.921V196.057L219.703 197.874L219.251 198.556H218.573L217.895 199.01L217.217 199.464L216.313 199.919L215.183 200.373L214.505 200.827L213.827 201.282L213.376 202.19V202.644L212.472 203.553L212.02 204.007V204.462L211.568 204.916V205.37L209.308 207.642L208.856 208.096H207.048L206.144 207.187H204.789L204.337 207.415L203.433 207.642L202.529 206.733H201.625H200.721L200.269 206.279Z" fill="#CED3D9" stroke="white"/>
<path d="M184.07 22.5631L187.045 22.3354V22.5631L188.418 24.1569L190.02 26.4337L191.622 29.3936V32.5812L190.935 33.9472V35.0857V36.4518H193.223L194.825 37.1348V38.5009L194.596 38.9563L195.283 40.0947H197.8L200.546 42.1438L201.003 43.0545L200.317 43.9653L200.775 44.876L205.122 47.6082L205.58 48.9743L206.953 49.885V51.0234L206.724 51.2511L206.953 51.9341L207.868 52.6172L208.097 53.5279L209.012 54.4387L211.072 55.3494L212.216 56.4878V57.8539V58.7646L210.385 60.1307H207.639L206.724 59.4477H204.436L203.521 58.7646L202.605 58.5369L201.69 58.7646L201.461 59.4477L200.775 60.3584L199.859 61.0414H197.571L196.885 60.3584L196.198 60.1307L195.969 60.5861L193.91 61.7245L192.308 62.1799L191.622 62.8629L190.477 63.0906H189.333L188.647 61.9522H187.503L186.816 62.4075L185.214 65.8228L184.757 66.5058L184.07 66.7335L182.469 65.5951H181.553L181.324 65.1397H180.638L180.18 65.5951H179.723L179.494 65.1397H177.663L176.748 64.4567H174.002L173.773 63.3183L171.714 61.4968L170.798 60.8138L169.425 59.6753H168.053L167.366 59.903L166.68 60.5861C166.298 60.8897 165.535 61.5423 165.535 61.7245C165.535 61.9066 164.773 62.5593 164.391 62.8629L163.476 64.4567L162.561 64.912L163.018 66.2781V69.921L162.561 70.1487L162.103 69.6934H161.188L160.73 70.1487H158.899L157.298 69.238H155.467L154.094 70.1487L152.035 70.3764L150.891 71.0595L151.119 74.7024L150.433 75.8408L149.06 78.573V76.5238L148.602 75.6131V74.0193L147.458 73.1086L146.543 72.8809L144.941 70.8318L143.339 68.7826V66.7335L142.424 65.1397L140.365 62.4075L140.593 60.1307L139.678 58.5369L140.136 57.8539V55.3494L138.763 53.7556L141.28 51.9341L141.738 50.5681L143.111 48.2912V46.9251L144.941 45.1037L145.17 44.4206L147.229 44.876L149.746 43.5099L151.119 41.9161L151.348 43.0545L152.721 44.4206L155.009 42.5992L156.84 41.6884L162.561 41.0054L165.307 37.5902V36.9071L164.391 35.9964L165.307 35.0857L169.425 34.858L172.629 33.9472L174.917 32.5812L176.748 30.3043L176.977 30.0766L180.638 26.4337L181.096 24.1569L184.07 22.5631Z" fill="#CED3D9" stroke="white"/>
<path d="M273.044 -23.1799V-22.4974L271.477 -20.2227L267.67 -17.948L266.998 -16.1282H264.758L264.311 -13.1711L263.863 -8.84906L262.967 -6.34686L261.847 -3.84466L262.519 1.38722L262.071 4.79932L261.847 6.84657L260.727 7.75647V11.396L258.936 11.851L258.04 12.5334L257.368 13.6708L255.353 17.3103C255.129 18.0686 254.681 19.6306 254.681 19.8125C254.681 19.9945 254.382 22.0114 254.233 22.9972L253.561 24.5895L252.889 23.6796L252.218 23.4521L251.098 25.2719L250.65 27.7741C250.501 28.229 250.202 29.2299 250.202 29.5939C250.202 29.9578 249.754 30.9587 249.53 31.4137V34.3708H250.202L249.978 38.6928L249.082 39.3752H247.515L246.619 38.9203L245.051 39.3752L244.38 40.5126L243.932 41.6499V42.7873L244.38 43.2422L245.499 43.9247L246.619 44.1521H247.515L249.082 45.2895L250.65 48.0192L251.994 48.9291L253.785 50.9763L254.457 53.706C254.532 54.0093 254.726 54.6614 254.905 54.8434C255.084 55.0253 255.278 56.1324 255.353 56.6632L256.92 58.9379H258.712L259.608 59.6203V61.2126L259.16 62.1225L260.504 63.9423H252.442L250.874 64.6247L249.53 66.4445L246.395 69.4016L244.828 68.7192H243.708H242.812L241.244 69.4016L240.349 69.8566L239.229 70.539L238.333 69.8566L237.661 68.9467H236.99L236.094 69.8566H235.422L234.75 68.9467H234.078L233.183 69.4016L232.287 70.3115H230.495V68.7192L228.704 67.5819L227.584 66.8994L226.688 65.9895V65.5346L225.121 63.4873H224.225L223.105 65.3071H222.209L221.09 64.3972H220.194L219.746 64.8522L218.626 65.7621H217.507L216.163 64.8522L214.819 63.4873L214.371 62.5775L213.476 61.6676L212.132 60.3027V59.3928L211.684 59.1654V57.1181L210.564 55.9807L208.549 55.0708L207.653 54.1609L207.429 53.2511L206.533 52.5686L206.309 51.8862L206.533 51.6587V50.5214L205.19 49.6115L204.742 48.2467L200.487 45.517L200.039 44.6071L200.711 43.6972L200.263 42.7873L197.8 40.74H195.112L194.441 39.6027L194.664 39.1477V37.7829L193.097 37.1005H190.857V34.5983L191.529 33.4609V30.0488L189.962 27.0917L188.618 25.0444L187.05 23.2246V22.9972L187.722 20.7224L185.259 18.6752V17.9927L185.707 17.3103V16.4004L184.811 15.9455V14.1257L184.363 12.0785L183.915 11.6235H183.467V12.0785H181.676L181.228 11.396V10.2587L183.467 7.30152L182.572 5.93668V4.34437L184.811 2.97953L185.259 2.06964L184.363 1.61469V-0.432564L185.259 -1.11498L187.05 -4.07213L187.498 -7.48423L192.201 -7.93917L192.873 -7.48423V-11.3513L192.649 -21.3601L192.425 -30.2315V-34.781L192.821 -35.2359H197.8V-46.1546H197.352V-48.2019H231.615L232.735 -49.5667L232.982 -48.2019H242.364L244.604 -46.6096L246.619 -46.1546L247.067 -46.6096V-47.7469L248.411 -49.7942H249.53L250.426 -50.4766L251.994 -53.2063L254.009 -53.6612L254.457 -55.0261L255.577 -55.7085L256.025 -54.7986V-54.3437L256.92 -53.4338H257.368L258.04 -52.5239H258.712L262.743 -48.6568V-46.6096L264.087 -44.5623L264.982 -43.425L265.206 -42.7425L264.087 -42.0601V-41.6052L264.534 -41.3777L264.758 -39.7854L264.982 -39.5579V-38.8755L264.534 -38.4205V-37.2832L265.43 -33.1887V-30.2315L265.878 -29.5491V-28.8667L266.774 -27.9568L267.446 -27.2744C267.744 -27.1985 268.341 -27.0014 268.341 -26.8194C268.341 -26.6374 269.834 -25.3788 270.581 -24.7722L271.925 -23.6348L273.044 -23.1799Z" fill="#CED3D9" stroke="white"/>
<path d="M191.085 33.4854V30.0755L194.236 30.7575H196.713L197.388 29.6209H199.864L204.367 30.7575L206.167 33.4854L210.895 33.94L215.397 34.8493L217.198 35.9859H219.899L222.826 34.8493H223.951H224.852L226.428 33.94L228.454 33.4854L231.155 33.94L233.856 35.9859H234.532L236.107 36.4406H238.133H240.159L242.636 34.3947L244.211 33.4854L245.337 27.1203L244.887 25.3017L249.839 23.7105L252.09 23.4832L250.965 25.3017L250.515 27.8023C250.364 28.2569 250.064 29.2572 250.064 29.6209C250.064 29.9846 249.614 30.9848 249.389 31.4395V34.3947H250.064L249.839 38.7138L248.939 39.3958H247.363L246.463 38.9411L244.887 39.3958L244.211 40.5324L243.761 41.669V42.8056L244.211 43.2603L245.337 43.9422L246.463 44.1696H247.363L248.939 45.3062L250.515 48.0341L251.865 48.9433L253.666 50.9893L254.341 53.7171C254.417 54.0202 254.612 54.6719 254.792 54.8537C254.972 55.0356 255.167 56.1419 255.242 56.6723L256.818 58.9456H258.619L259.519 59.6275V61.2188L259.069 62.1281L260.42 63.9467H252.315L250.74 64.6286L249.389 66.4472L246.237 69.4024L244.662 68.7205H243.536H242.636L241.06 69.4024L240.159 69.8571L239.034 70.539L238.133 69.8571L237.458 68.9478H236.783L235.882 69.8571H235.207L234.532 68.9478H233.856L232.956 69.4024L232.055 70.3117H230.254V68.7205L228.454 67.5838L227.328 66.9019L226.428 65.9926V65.5379L224.852 63.492H223.951L222.826 65.3106H221.925L220.8 64.4013H219.899L219.449 64.856L218.323 65.7653H217.198L215.847 64.856L214.497 63.492L214.046 62.5827L213.146 61.6734L211.795 60.3095V59.4002L211.345 59.1729V57.127L210.219 55.9904L208.193 55.0811L207.293 54.1718L207.068 53.2625L206.167 52.5805L205.942 51.8985L206.167 51.6712V50.5346L204.817 49.6253L204.367 48.2614L200.089 45.5335L199.639 44.6242L200.314 43.7149L199.864 42.8056L197.388 40.7597H194.687L194.011 39.6231L194.236 39.1685V37.8045L192.661 37.1225H190.41V34.622L191.085 33.4854Z" fill="#CED3D9"/>
<path d="M252.09 23.4832L250.965 25.3017L250.515 27.8023C250.364 28.2569 250.064 29.2572 250.064 29.6209C250.064 29.9846 249.614 30.9848 249.389 31.4395V34.3947H250.064L249.839 38.7138L248.939 39.3958H247.363L246.463 38.9411L244.887 39.3958L244.211 40.5324L243.761 41.669V42.8056L244.211 43.2603L245.337 43.9422L246.463 44.1696H247.363L248.939 45.3062L250.515 48.0341L251.865 48.9433L253.666 50.9893L254.341 53.7171C254.417 54.0202 254.612 54.6719 254.792 54.8537C254.972 55.0356 255.167 56.1419 255.242 56.6723L256.818 58.9456H258.619L259.519 59.6275V61.2188L259.069 62.1281L260.42 63.9467H252.315L250.74 64.6286L249.389 66.4472L246.237 69.4024L244.662 68.7205H243.536H242.636L241.06 69.4024L240.159 69.8571L239.034 70.539L238.133 69.8571L237.458 68.9478H236.783L235.882 69.8571H235.207L234.532 68.9478H233.856L232.956 69.4024L232.055 70.3117H230.254V68.7205L228.454 67.5838L227.328 66.9019L226.428 65.9926V65.5379L224.852 63.492H223.951L222.826 65.3106H221.925L220.8 64.4013H219.899L219.449 64.856L218.323 65.7653H217.198L215.847 64.856L214.497 63.492L214.046 62.5827L213.146 61.6734L211.795 60.3095V59.4002L211.345 59.1729V57.127L210.219 55.9904L208.193 55.0811L207.293 54.1718L207.068 53.2625L206.167 52.5805L205.942 51.8985L206.167 51.6712V50.5346L204.817 49.6253L204.367 48.2614L200.089 45.5335L199.639 44.6242L200.314 43.7149L199.864 42.8056L197.388 40.7597H194.687L194.011 39.6231L194.236 39.1685V37.8045L192.661 37.1225H190.41V34.622L191.085 33.4854V30.0755L194.236 30.7575H196.713L197.388 29.6209H199.864L204.367 30.7575L206.167 33.4854L210.895 33.94L215.397 34.8493L217.198 35.9859H219.899L222.826 34.8493H223.951H224.852L226.428 33.94L228.454 33.4854L231.155 33.94L233.856 35.9859H234.532L236.107 36.4406H238.133H240.159L242.636 34.3947L244.211 33.4854L245.337 27.1203L244.887 25.3017L249.839 23.7105L252.09 23.4832ZM252.09 23.4832L252.766 23.7105" stroke="white"/>
<path d="M222.52 111.555L221.398 109.749L222.071 109.072H222.745L223.194 109.749L224.317 110.426H225.439L225.889 109.975L226.338 109.523L227.011 107.943L228.134 107.265H229.257L230.604 108.168L229.931 108.62V109.072V110.878V111.329L230.38 111.555L231.727 112.007V112.458L231.278 113.813L230.38 114.716L229.481 114.942V115.619L228.583 117.2L227.46 119.232L225.664 121.038L224.766 120.135L223.419 117.877V114.716L222.745 113.587L222.52 111.555Z" fill="#CED3D9"/>
<path d="M229.931 110.878V111.329L230.38 111.555L231.727 112.007V112.458L231.278 113.813L230.38 114.716L229.481 114.942V115.619L228.583 117.2L227.46 119.232L225.664 121.038L224.766 120.135L223.419 117.877V114.716L222.745 113.587L222.52 111.555L221.398 109.749L222.071 109.072H222.745L223.194 109.749L224.317 110.426H225.439L225.889 109.975L226.338 109.523L227.011 107.943L228.134 107.265H229.257L230.604 108.168L229.931 108.62V109.072M229.931 110.878H229.481M229.931 110.878V109.072M229.931 109.072H229.481" stroke="white"/>
<path d="M232.416 108.184H231.038L229.891 107.495H228.972L227.595 108.184L226.907 109.79L225.988 110.708H224.841L223.693 110.02L223.234 109.331H222.545L221.857 110.02L221.398 109.331V107.724L223.234 106.577V103.822L224.382 102.675L225.07 101.527H225.988V101.068H226.677L227.366 101.527L227.825 101.986V101.527H228.513V100.838L229.891 99.2314H230.35L230.809 100.15L232.186 102.445L232.875 105.888V107.724L232.416 108.184Z" fill="#CED3D9" stroke="white"/>
<path d="M115.579 79.4654L113.972 78.5728H113.743H113.513V80.8044L113.054 81.2507V82.3666L112.595 83.036L111.218 84.375V86.1604H113.054L113.972 86.6067H115.35L116.268 86.1604L116.727 86.6067H121.777L122.695 85.9372V85.2677V84.8214V79.4654L122.236 79.0191H119.022L118.563 79.4654H115.579Z" fill="#CED3D9" stroke="white"/>
<path d="M135.415 5.31892L137.221 8.46134L137.898 10.257L138.35 11.6038V13.175L139.027 13.6239L139.93 13.8484L140.607 14.5217L141.058 15.644L140.832 16.3174L140.607 17.2152L140.832 17.8886V18.7865L139.93 19.9087L139.252 20.1332H138.35L136.544 21.031L135.19 24.6224L134.738 25.5202V26.1936L134.287 27.3159L132.932 28.4382V30.9072L131.578 32.4784H131.127V32.7029V34.723L130.675 36.0698L130.224 36.7432L128.87 37.1921L127.515 38.7633L127.29 40.7834L126.838 42.5791L124.807 46.3949V47.5172L123.452 48.6395V49.9862L122.324 51.333H121.195L120.744 50.8841L120.97 49.9862L118.712 47.2927H118.035L117.81 48.6395L116.455 48.415L116.23 48.1906H114.424L113.295 50.6596L111.264 52.4553L108.781 54.6999L108.555 56.0466V56.72V58.0667L108.104 58.7401L107.652 60.5358L106.975 61.6581L105.847 62.107L104.944 61.2092V63.0048L101.107 64.1271L100.881 62.7804L99.5266 64.1271L98.1723 62.5559H97.7209V64.3516H97.0437L96.5923 63.4538L94.7866 64.8005H94.1094L93.658 64.1271L93.4323 64.8005L92.5294 64.576L91.6266 64.3516L90.498 63.4538L89.3694 61.4336L89.1437 60.0869L88.918 59.4135V58.2912L87.7894 57.8423V57.1689L88.128 56.72V56.2711L87.5637 56.72L86.8865 56.4955V55.8222L86.6608 55.1488L84.4037 52.4553L81.9208 51.333H77.8579L78.0836 51.1085L78.7608 50.8841L79.4379 50.4351H78.9865H77.8579L77.4065 50.8841V51.7819H73.7951V50.8841L74.2465 49.9862L74.0208 49.3129L73.7951 48.8639V46.6193H74.2465V43.7014L73.7951 43.2525V41.9057L74.0208 35.8453L74.4722 34.723H75.6008L76.2779 34.0497V31.8051L77.4065 30.2339L79.2122 28.4382V27.5403L78.7608 27.0914V26.6425L79.2122 26.1936L80.1151 25.7447L79.6637 21.9289L78.3094 20.1332V19.0109L79.2122 17.2152V13.175L81.2437 10.4815L81.9208 8.46134V7.11459L83.7265 5.54338L85.0808 4.64554H88.0151L89.1437 3.97217L90.7237 4.19663L92.3037 4.87L94.1094 5.54338L95.4637 6.21676L96.1409 7.56351L97.7209 9.58364H98.398L99.3009 9.13472L102.687 7.56351H103.589L105.395 8.6858L107.878 9.8081L109.007 10.4815H111.264L111.715 10.9304H112.618L113.07 10.4815L113.521 9.58364L114.875 8.23689L115.778 8.01243L117.132 7.33905H119.164L120.292 6.89013L120.97 7.33905H123.452L126.387 8.6858L128.644 8.91026L129.095 8.23689L133.384 5.09446H134.287L135.415 5.31892Z" fill="#0089FF"/>
<path d="M73.7951 41.9057L74.0208 35.8453L74.4722 34.723H75.6008L76.2779 34.0497V31.8051L77.4065 30.2339L79.2122 28.4382V27.5403L78.7608 27.0914V26.6425L79.2122 26.1936L80.1151 25.7447L79.6637 21.9289L78.3094 20.1332V19.0109L79.2122 17.2152V13.175L81.2437 10.4815L81.9208 8.46134V7.11459L83.7265 5.54338L85.0808 4.64554H88.0151L89.1437 3.97217L90.7237 4.19663L92.3037 4.87L94.1094 5.54338L95.4637 6.21676L96.1409 7.56351L97.7209 9.58364H98.398L99.3009 9.13472L102.687 7.56351H103.589L105.395 8.6858L107.878 9.8081L109.007 10.4815H111.264L111.715 10.9304H112.618L113.07 10.4815L113.521 9.58364L114.875 8.23689L115.778 8.01243L117.132 7.33905H119.164L120.292 6.89013L120.97 7.33905H123.452L126.387 8.6858L128.644 8.91026L129.095 8.23689L133.384 5.09446H134.287L135.415 5.31892L137.221 8.46134L137.898 10.257L138.35 11.6038V13.175L139.027 13.6239L139.93 13.8484L140.607 14.5217L141.058 15.644L140.832 16.3174L140.607 17.2152L140.832 17.8886V18.7865L139.93 19.9087L139.252 20.1332H138.35L136.544 21.031L135.19 24.6224L134.738 25.5202V26.1936L134.287 27.3159L132.932 28.4382V30.9072L131.578 32.4784H130.675H131.127V32.7029V34.723L130.675 36.0698L130.224 36.7432L128.87 37.1921L127.515 38.7633L127.29 40.7834L126.838 42.5791L124.807 46.3949V47.5172L123.452 48.6395V49.9862L122.324 51.333H121.195L120.744 50.8841L120.97 49.9862L118.712 47.2927H118.035L117.81 48.6395L116.455 48.415L116.23 48.1906H114.424L113.295 50.6596L111.264 52.4553L108.781 54.6999L108.555 56.0466V56.72V58.0667L108.104 58.7401L107.652 60.5358L106.975 61.6581L105.847 62.107L104.944 61.2092V63.0048L101.107 64.1271L100.881 62.7804L99.5266 64.1271L98.1723 62.5559H97.7209V64.3516H97.0437L96.5923 63.4538M73.7951 41.9057H73.3436M73.7951 41.9057V43.2525L74.2465 43.7014V46.6193H73.7951V48.8639L74.0208 49.3129L74.2465 49.9862L73.7951 50.8841V51.7819H77.4065V50.8841L77.8579 50.4351H78.9865H79.4379L79.6637 49.9862H80.1151L78.7608 50.8841L78.0836 51.1085L77.8579 51.333H81.9208L84.4037 52.4553L86.6608 55.1488L86.8865 55.8222M86.8865 55.8222L88.2408 54.4754M86.8865 55.8222V56.4955L87.5637 56.72L88.128 56.2711M88.6923 55.8222L88.128 56.2711M88.128 56.2711V56.72M88.128 56.72H89.3694M88.128 56.72L87.7894 57.1689V57.8423L88.918 58.2912V59.4135L89.1437 60.0869L89.3694 61.4336L90.498 63.4538L91.6266 64.3516L92.5294 64.5761M92.5294 64.5761L92.3037 64.1271V63.9027M92.5294 64.5761L93.4323 64.8005L93.658 64.1271M93.658 64.1271V63.4538M93.658 64.1271L94.1094 64.8005H94.7866L96.5923 63.4538M96.5923 63.4538L96.3666 62.107L96.818 61.6581" stroke="white"/>
<path d="M114.673 78.8422L113.779 78.3888L113.332 77.2552V75.6683L113.779 75.2149V74.0813L114.45 73.4012L113.779 71.8143L112.885 71.1341V70.0006V69.7739H112.438L112.215 69.0938L112.438 68.4137L113.109 67.7335L112.438 66.8267L111.768 67.0534H111.544V67.9602H110.65V67.6202L109.756 67.5068L108.862 66.3733L108.192 63.4261H107.968L107.521 64.1062L107.074 63.6528V62.9727L106.627 62.0659L107.521 60.9323L107.968 59.1187L108.415 58.4385V56.3982L108.639 55.0379L113.109 50.9572L114.226 48.4634H116.014L116.238 48.6901L117.579 48.9169L117.802 47.5566H118.473L120.708 50.2771L120.484 51.1839L120.931 51.6373H122.049L123.166 50.2771V48.9169L124.507 47.7833V46.6498L126.519 42.7958L126.966 40.9821L127.189 38.9417L128.53 37.3548L129.871 36.9014L130.318 36.2213L130.765 34.861V32.5939H131.212L132.553 31.007V28.5132L133.894 27.3797L134.341 26.2461V25.566L134.788 24.6592L136.129 21.0319L137.917 20.125H138.811L139.482 19.8983L140.376 18.7648V17.858L140.152 17.1779L140.599 15.5909L140.152 14.4574L139.482 13.7773L138.588 13.5505L137.917 13.0971V11.0568L136.8 8.56299L137.917 8.7897H139.258L139.929 10.8301L141.493 12.1903V14.004L142.834 16.271V19.4449L142.387 22.1654L143.281 25.7927L146.187 28.2865L145.963 28.9666H142.164L139.929 28.7399L139.258 28.5132H138.141L136.8 30.1002V31.007L138.141 33.0474L143.281 38.2616L145.516 43.0225L145.293 44.6094L145.069 45.2895L143.281 47.1032V48.4634L141.94 50.7305L141.493 52.0907L139.035 53.9044L140.376 55.4914V57.9851L139.929 58.6653L140.823 60.2522L140.599 62.5193L142.611 65.2398L143.505 66.8267V68.8671L146.634 72.9478L147.528 73.1745L148.645 74.0813V75.6683L149.092 76.5751V78.8422L148.645 79.2956V82.0161H148.198L147.751 81.5627L145.516 80.2024H142.834L140.376 78.8422H136.8H133.224L132.777 78.3888H129.648H128.53L128.083 77.9354H122.719L121.825 78.8422H117.355H114.673Z" fill="#CED3D9"/>
<path d="M137.694 8.7897H137.917M112.885 69.7739V70.0006V71.1341L113.779 71.8143L114.45 73.4012L113.779 74.0813V75.2149L113.332 75.6683V77.2552L113.779 78.3888L114.673 78.8422H117.355H121.825L122.719 77.9354H128.083L128.53 78.3888H129.648H132.777L133.224 78.8422H136.8H140.376L142.834 80.2024H145.516L147.751 81.5627L148.198 82.0161H148.645V79.2956L149.092 78.8422V76.5751L148.645 75.6683V74.0813L147.528 73.1745L146.634 72.9478L143.505 68.8671V66.8267L142.611 65.2398L140.599 62.5193L140.823 60.2522L139.929 58.6653L140.376 57.9851V55.4914L139.035 53.9044L141.493 52.0907L141.94 50.7305L143.281 48.4634V47.1032L145.069 45.2895L145.293 44.6094L145.516 43.0225L143.281 38.2616L138.141 33.0474L136.8 31.007V30.1002L138.141 28.5132H139.258L139.929 28.7399L142.164 28.9666H145.963L146.187 28.2865L143.281 25.7927L142.387 22.1654L142.834 19.4449V16.271L141.493 14.004V12.1903L139.929 10.8301L139.258 8.7897H137.917M112.885 69.7739H113.332M112.885 69.7739H112.438L112.215 69.0938L112.438 68.4137L113.109 67.7335L112.438 66.8267L111.768 67.0534H111.544V66.6V67.9602H110.65V67.6202M110.65 67.0534V67.2801V67.6202M110.65 67.6202L109.756 67.5068L108.862 66.3733L108.192 63.4261H107.968L107.521 64.1062L107.074 63.6528V62.9727L106.627 62.0659L107.521 60.9323L107.968 59.1187L108.415 58.4385V56.3982L108.639 55.0379L113.109 50.9572L114.226 48.4634H116.014L116.238 48.6901L117.579 48.9168L117.802 47.5566H118.473L120.708 50.2771L120.484 51.1839L120.931 51.6373H122.049L123.166 50.2771V48.9168L124.507 47.7833V46.6498L126.519 42.7958L126.966 40.9821L127.189 38.9417L128.53 37.3548L129.871 36.9014L130.318 36.2213L130.765 34.861V32.5939M130.765 32.5939H130.318M130.765 32.5939H131.212L132.553 31.007V28.5132L133.894 27.3797L134.341 26.2461V25.566L134.788 24.6592L136.129 21.0319L137.917 20.125H138.811L139.482 19.8983L140.376 18.7648V17.858L140.152 17.1779L140.599 15.5909L140.152 14.4574L139.482 13.7773L138.588 13.5505L137.917 13.0971V11.0568L136.8 8.56299L137.917 8.7897" stroke="white"/>
<path d="M188.523 204.671L189.435 205.569L191.031 205.12L194.45 204.671H197.642L199.009 205.793V206.467H199.921L200.377 206.916H202.201L203.113 207.814L204.025 207.59L204.481 207.365H205.849L206.76 208.263H208.584L211.32 205.569V205.12L211.776 204.671V204.221L213.144 202.874V202.425L213.599 201.527L214.967 200.629L216.335 200.18L218.387 198.832H219.071L219.527 198.383L219.983 196.587V195.239L220.894 194.341L225.454 192.545H226.594L227.05 192.994H228.873V191.647L228.189 190.973L227.734 189.626L227.961 188.727L229.329 188.278L230.925 187.38L237.536 185.359L240.956 183.787L242.551 183.338L243.691 182.44L242.096 180.644L241.64 179.745L242.096 179.072L243.463 177.724V173.907L244.375 173.233L246.883 172.111L245.971 171.437L245.515 170.09V168.293L245.971 167.395V163.802L245.515 162.904V162.23H246.427L247.795 160.883V159.311L246.883 157.739L246.199 157.29V155.494L245.515 155.269L243.919 153.922L243.691 153.024L242.779 152.126H242.096L240.728 151.227L238.676 150.778L237.764 149.88H237.08L236.624 149.431L235.484 148.308H234.117L233.661 148.982H232.749L231.609 147.635L230.013 147.41L230.241 146.287H227.05H224.998L224.314 146.736H222.718L221.122 147.186V148.982L218.615 151.677L218.159 152.126V152.575H218.615L219.071 153.024L219.527 154.371V156.168L219.071 156.617V158.862L219.527 159.76V161.108L218.159 165.15V167.844L218.615 168.742L222.262 172.335H223.63L224.77 170.988L225.91 170.539V178.623H224.998L224.77 177.5H224.314L223.858 177.724L222.718 178.623H221.35L220.439 177.5V176.826L219.983 176.377V175.928L218.615 174.581V174.132L218.159 173.683V172.784L217.247 172.335L215.423 171.437H213.827L213.144 170.988V170.539L212.688 170.09V169.641L211.776 168.742V168.293L211.32 167.844L210.864 167.395H210.408L209.496 169.192H206.76H205.621L203.341 168.293H201.745L200.377 167.171V165.15L200.149 164.701H198.781L198.326 165.15L197.186 165.599L196.274 166.048H195.362L194.906 165.599L195.362 165.15V164.251L194.906 163.802L194.222 162.904L193.538 162.455H193.082L192.626 162.904L193.082 163.353L193.538 164.251V165.15L193.082 165.823V168.742L192.626 169.192V170.09L193.082 170.539V172.784L192.626 173.233V174.132L192.17 174.581L192.626 175.479V175.928H191.942L191.031 176.377H189.207L186.243 175.928H182.14L181.684 176.377L181.228 178.174V179.072L181.684 179.745V190.524L181.228 191.647V192.769V195.015L181.456 195.913L181.684 196.811L181.912 197.485L182.14 197.934L183.736 199.506L183.964 200.18L185.787 201.976L186.927 203.323L187.155 203.772L187.611 204.221L188.523 204.671Z" fill="#CED3D9"/>
<path d="M210.864 167.395H210.408L209.496 169.192H206.76H205.621L203.341 168.293H201.745L200.377 167.171V165.15L200.149 164.701H198.781L198.326 165.15L197.186 165.599L196.274 166.048H195.362L194.906 165.599L195.362 165.15V164.251L194.906 163.802L194.222 162.904L193.538 162.455H193.082L192.626 162.904L193.082 163.353L193.538 164.251V165.15L193.082 165.823V168.742L192.626 169.192V170.09L193.082 170.539V172.784L192.626 173.233V174.132L192.17 174.581L192.626 175.479V175.928H191.942L191.031 176.377H189.207L186.243 175.928H182.14L181.684 176.377L181.228 178.174V179.072L181.684 179.745V190.524L181.228 191.647V192.769V195.015L181.456 195.913L181.684 196.811L181.912 197.485L182.14 197.934L183.736 199.506L183.964 200.18L185.787 201.976L186.927 203.323L187.155 203.772L187.611 204.221L188.523 204.671L189.435 205.569L191.031 205.12L194.45 204.671H197.642L199.009 205.793V206.467H199.921L200.377 206.916H202.201L203.113 207.814L204.025 207.59L204.481 207.365H205.849L206.76 208.263H208.584L211.32 205.569V205.12L211.776 204.671V204.221L213.144 202.874V202.425L213.599 201.527L214.967 200.629L216.335 200.18L218.387 198.832H219.071L219.527 198.383L219.983 196.587V195.239L220.894 194.341L225.454 192.545H226.594L227.05 192.994H228.873V191.647L228.189 190.973L227.734 189.626L227.961 188.727L229.329 188.278L230.925 187.38L237.536 185.359L240.956 183.787L242.551 183.338L243.691 182.44L242.096 180.644L241.64 179.745L242.096 179.072L243.463 177.724V173.907L244.375 173.233L246.883 172.111L245.971 171.437L245.515 170.09V168.293L245.971 167.395V163.802L245.515 162.904V162.23H246.427L247.795 160.883V159.311L246.883 157.739L246.199 157.29V155.494L245.515 155.269L243.919 153.922L243.691 153.024L242.779 152.126H242.096L240.728 151.227L238.676 150.778L237.764 149.88H237.08L236.624 149.431L235.484 148.308H234.117L233.661 148.982H232.749L231.609 147.635L230.013 147.41L230.241 146.287H227.05H224.998L224.314 146.736H222.718L221.122 147.186V148.982L218.615 151.677L218.159 152.126V152.575H218.615L219.071 153.024L219.527 154.371V156.168L219.071 156.617V158.862L219.527 159.76V161.108L218.159 165.15V167.844L218.615 168.742L222.262 172.335H223.63L224.77 170.988L225.91 170.539V178.623H224.998L224.77 177.5H224.314L223.858 177.724L222.718 178.623H221.35L220.439 177.5V176.826L219.983 176.377V175.928L218.615 174.581V174.132L218.159 173.683V172.784L217.247 172.335L215.423 171.437H213.827L213.144 170.988V170.539L212.688 170.09V169.641L211.776 168.742V168.293L211.32 167.844L210.864 167.395ZM210.864 167.395V166.946" stroke="white"/>
<path d="M178.27 208.263H179.851L189.562 205.995L188.884 205.087L187.981 204.633L187.529 204.18L187.303 203.726L186.174 202.365L184.367 200.55L184.142 199.869L182.561 198.281L182.335 197.827L182.109 197.147L181.657 195.332V191.929L182.109 190.794V179.904L181.657 179.224V178.316L182.109 176.501L182.561 176.048H186.626L189.562 176.501H191.143L192.046 176.048H192.949V175.594L192.498 174.686L192.949 174.233V173.325L193.401 172.871V170.603L192.949 170.149V169.241L193.401 168.788V165.838L193.853 165.158V164.25L193.401 163.343L192.949 162.889L192.498 163.343H190.917L189.788 164.023H185.722H185.045L183.916 164.704H183.464V164.023L183.012 163.57V162.889L183.916 161.755V159.032L183.464 158.578V157.217L182.109 155.402L181.206 153.36V151.545L181.883 148.823L182.109 146.327L181.432 144.966L180.98 143.151L181.206 141.336L181.432 140.429L180.98 139.294H174.431L173.979 138.841V138.387L174.431 137.933V137.026H173.301L172.624 137.479H169.01L168.333 137.933V140.882L167.655 141.336L167.43 144.286L164.494 144.059L163.816 143.605H163.139L162.913 143.832H161.332L160.429 144.739L157.267 144.512L156.815 144.059L154.105 139.294V137.479L152.75 135.438V132.942L152.298 131.581L151.395 130.219H143.491L142.587 130.446H134.457L133.78 130.219H131.069L129.94 131.354L127.908 131.127V133.623L128.811 134.984V135.664L130.618 137.253L131.069 139.294L133.78 146.327V148.369L131.747 149.73L131.521 151.319L132.425 152.907V154.722L133.78 157.103V158.125L136.264 162.889V168.334L133.78 173.325H132.425L131.295 174.686L131.069 176.274L129.263 178.543L127.908 181.719L126.101 192.382L124.746 193.744V198.962H123.843L124.746 201.004L124.294 201.684V203.726L125.424 203.272L125.875 203.045H129.714L131.747 201.684H133.554L137.167 204.407H137.393H161.332L164.042 206.902H166.978L167.655 207.356H172.172L173.753 208.263H175.786L176.463 207.81H177.592L178.27 208.263Z" fill="#0089FF" stroke="white"/>
<path d="M183.603 164.486V163.812L183.15 163.362V162.688L184.055 161.564V158.867L183.603 158.417V157.068L182.246 155.27L181.341 153.247V151.224L182.019 148.976L182.246 146.279L181.567 144.93L181.115 143.132L181.341 141.109L181.567 140.434L181.115 139.31H174.556L174.103 138.861V138.411L174.556 137.962V137.062H173.425L172.746 137.512H169.128L168.449 137.962V140.884L167.771 141.333L167.544 144.256L165.057 144.031L163.926 143.581H163.247L163.021 143.806L161.664 143.581L160.307 144.705L157.593 144.48L157.141 144.256L154.2 139.31V137.512L152.843 135.714V133.016L152.391 131.668L151.486 130.319H143.57L142.892 130.544H134.749L133.845 130.319H131.131L130 131.443L127.964 131.218L127.286 130.319L127.512 129.869L127.964 129.42L128.643 129.195L128.869 128.97V128.521L129.321 127.846L129.547 126.947L128.869 126.273V125.149L129.321 124.924L130 124.25L130.905 123.575L131.583 122.901L132.262 122.676L133.845 123.351L134.071 124.025L134.976 123.575L135.654 122.901V122.227L137.916 120.878H138.594L139.273 120.204L140.178 120.878V121.327L139.725 121.777V124.025L141.535 124.25L142.892 122.676L144.701 120.428H145.38L146.058 119.08L147.867 118.18L148.998 116.607L149.677 115.483V114.134H150.129V108.29V106.492L151.486 105.143L152.165 104.244L152.617 102.895L153.296 101.546L153.748 101.097L154.2 100.198L156.01 99.2984L157.593 98.1745L158.045 96.601L158.724 96.3762V93.0044L159.628 91.2061V85.8113L160.081 84.4626L160.533 82.4395V81.9899L159.855 81.3156L160.533 80.4164V78.6181L162.342 75.6959L163.021 73.6728L163.7 73.2233V70.7506L163.473 70.3011V66.7045L163.021 65.3558L163.926 64.9062L164.83 63.3327L166.187 61.984L167.771 60.4105L168.449 60.1857H169.806L174.103 63.7823L174.33 64.9062H177.044L177.948 65.5806H179.758L179.984 66.0301H180.436L180.889 65.5806H181.567L181.793 66.0301H182.698L184.281 67.1541L184.96 66.9293L185.412 66.2549L186.995 62.8831L187.674 62.4336H188.805L189.483 63.5575H190.614L191.745 63.3327L192.423 62.6583L193.78 62.2088L196.042 61.0848L196.268 60.6353L196.947 60.8601L197.625 61.5344H199.887L200.792 60.8601L201.47 59.9609L201.696 59.2866L202.601 59.0618L203.506 59.2866L204.411 59.9609H206.672L207.577 60.6353H210.291L211.648 59.5113L212.553 59.2866V60.1857L214.814 62.4336L215.267 63.3327L216.398 64.6814L217.981 65.5806H219.112L220.695 64.2318H221.6L222.731 65.131H223.635L224.766 63.3327H225.671L227.254 65.5806L227.932 66.4797L231.099 68.7276V70.0763H232.682L233.134 71.6498L232.456 72.7737V74.1224V75.4711V77.719H233.134L235.17 79.2925L234.718 80.4164L230.647 85.1369L227.932 87.6096V89.8574L227.706 90.0822L227.028 91.2061L226.123 93.6788V96.8258L225.671 97.5001V98.6241V101.996H225.218L224.54 102.895L223.409 104.019L223.183 106.941L221.6 108.065V109.639L223.183 112.111L223.409 113.91L222.957 114.584V118.63H222.504V119.979L222.278 120.428H222.957L223.409 119.979L222.957 119.754L222.731 119.08H223.183H223.861L224.314 119.979L224.088 120.428H223.409V121.327L222.957 121.777V123.126L222.731 126.048L223.861 128.071L223.635 129.869L223.409 131.668L223.861 133.466L224.766 135.039L225.445 136.838L227.254 138.636L228.159 139.535L228.837 142.233L229.29 143.356L230.647 144.705V145.604L230.42 146.054H225.218L224.54 146.503H222.957L221.373 146.953V148.751L218.433 151.898V152.348H218.886L219.338 152.797L219.79 154.146V155.944L219.338 156.394V158.642L219.79 159.541V160.89L218.433 164.936V167.633L218.886 168.532L222.504 172.129H223.861L224.992 170.78L226.123 170.294V178.423H225.218L224.992 177.299H224.54L222.957 178.423H221.6L220.695 177.299V176.625L220.243 176.175V175.726L218.886 174.377V173.927L218.433 173.478V172.579L215.719 171.23H214.136L213.457 170.78V170.331L213.005 169.881V169.432L212.1 168.532V168.083L211.196 167.184H210.743L209.839 168.982H205.994L203.776 168.083H202.149L200.792 166.959V164.936L200.566 164.486H199.209L198.756 164.936L196.721 165.835H195.816L195.364 165.385L195.816 164.936V164.037L195.364 163.587L194.685 162.688L194.007 162.238H193.554L192.65 163.138H191.066L189.936 163.812H185.186L184.055 164.486H183.603Z" fill="#0089FF" stroke="white"/>
<path d="M126.637 129.513L126.887 130.219L127.635 129.513L128.384 129.278L128.633 129.042V128.571L129.132 127.865L129.382 126.924L128.633 126.217V125.04L129.132 124.805L131.627 122.686L131.877 121.744L131.128 121.038H130.38L128.883 121.98L126.138 124.334V126.217L126.637 126.688V127.159L127.136 127.63L126.637 128.101V129.513Z" fill="#CED3D9" stroke="white"/>
<path d="M120.942 117.819V118.742H120.495L120.272 118.512L119.826 118.05V117.819L119.603 117.357L118.71 116.665L118.487 115.742L118.264 115.511L118.04 115.049L117.148 113.433L114.916 111.125L114.47 110.894L114.023 110.202L114.693 109.74L113.131 108.817L112.684 109.048L111.792 107.894V107.432L111.345 106.97V106.509L110.899 106.047V105.585V105.124H110.453V104.662L110.006 104.201V103.739L110.453 103.277H111.792L111.345 102.816H111.122H110.676H109.56L110.453 102.585V101.431L110.006 101.892L109.337 102.123L109.114 101.431L108.891 100.277L107.775 98.6608V97.2759H109.114L110.453 94.9676V90.8128H110.899L111.739 91.8515H113.354V91.5053L111.792 90.8128L111.345 90.3512L110.899 89.8895L110.453 89.4279V88.9662L110.899 88.5046H112.238V85.7347H112.684L113.577 86.1963H114.916L115.809 85.7347L116.255 86.1963H121.165L122.057 85.5409V78.81L121.611 78.3483L122.504 77.425H127.86L128.306 77.8867H132.546L133.216 78.5792L132.323 79.9641L131.877 80.6566V82.5032H132.323V84.3497L131.877 84.8114H133.216V84.3497H133.662L134.331 83.8881H135.001L135.447 83.4265H137.009L137.679 83.8881L138.348 85.0422L139.018 86.1963V88.5046L137.902 88.9662H137.456L136.563 89.8895V93.121H136.117L135.67 94.0443L136.117 94.506H136.786L137.233 94.9676L137.679 95.4293L138.348 95.6601L139.464 96.3526L139.911 97.2759L139.464 97.7375V98.6608L139.018 99.1224V99.5841L139.464 100.046V102.816L139.018 103.046V103.739L139.464 104.201L138.125 105.585L137.902 107.663L137.456 108.355L136.786 109.279H136.34L135.894 107.894L135.447 106.97V106.509L135.001 106.97L134.555 108.125L133.662 108.817H133.216L132.769 108.355H131.207V106.74L129.199 104.662H128.752L128.306 104.893V106.047V107.432L127.86 107.663L127.413 108.355H126.074H125.182H124.735L124.289 107.894H123.396V108.586V110.433L123.173 110.894L123.396 111.125L123.843 111.356L124.289 112.049V112.51L123.843 112.972V113.433L124.512 113.895L124.735 114.126L125.182 114.588V115.28L124.735 115.742L125.182 115.973V116.665H124.735L124.512 117.127L123.396 116.434V115.742H122.504L122.057 116.434L120.942 117.819Z" fill="#CED3D9"/>
<path d="M125.182 108.355H124.735L124.289 107.894H123.396V108.586V110.433L123.173 110.894L123.396 111.125L123.843 111.356L124.289 112.049V112.51L123.843 112.972V113.433L124.512 113.895L124.735 114.126L125.182 114.588V115.28L124.735 115.742L125.182 115.973V116.665H124.735L124.512 117.127L123.396 116.434V115.742H122.504L122.057 116.434L120.942 117.819V118.742H120.495L120.272 118.512L119.826 118.05V117.819L119.603 117.357L118.71 116.665L118.487 115.742L118.264 115.511L118.04 115.049L117.148 113.433L114.916 111.125L114.47 110.894L114.023 110.202L114.693 109.74L113.131 108.817L112.684 109.048L111.792 107.894V107.432L111.345 106.97V106.509L110.899 106.047V105.585M125.182 108.355V107.894M125.182 108.355H126.074H127.413L127.86 107.663L128.306 107.432V106.047M128.306 106.047H127.86M128.306 106.047V104.893L128.752 104.662H129.199L131.207 106.74V108.355H132.769L133.216 108.817H133.662L134.555 108.125L135.001 106.97L135.447 106.509V106.97L135.894 107.894L136.34 109.279H136.786L137.456 108.355L137.902 107.663L138.125 105.585L139.464 104.201L139.018 103.739V103.046L139.464 102.816V100.046L139.018 99.5841V99.1224L139.464 98.6608V97.7375L139.911 97.2758L139.464 96.3526L138.348 95.6601L137.679 95.4293L137.233 94.9676L136.786 94.506H136.117L135.67 94.0443L136.117 93.121H136.563V89.8895L137.456 88.9662H137.902L139.018 88.5046V86.1963L138.348 85.0422L137.679 83.8881L137.009 83.4265H135.447L135.001 83.8881H134.331L133.662 84.3497H133.216V84.8114H131.877L132.323 84.3497V82.5032H131.877V80.6566L132.323 79.9641L133.216 78.5792L132.546 77.8867H128.306L127.86 77.425H122.504L121.611 78.3483L122.057 78.81V85.5409L121.165 86.1963H116.255L115.809 85.7347L114.916 86.1963H113.577L112.684 85.7347H112.238V88.5046M112.238 89.4279V88.5046M112.238 88.5046H110.899L110.453 88.9662V89.4279L110.899 89.8895L111.345 90.3512L111.792 90.8128L113.354 91.5053V91.8515M113.354 91.8515V92.1977V92.4286V91.8515ZM113.354 91.8515H111.739M111.739 91.8515L111.792 92.1977M111.739 91.8515L110.899 90.8128H110.453V94.9676L109.114 97.2758H107.775V98.6608L108.891 100.277L109.114 101.431L109.337 102.123L110.006 101.892L110.453 101.431V102.585L109.56 102.816H110.676H111.122H111.345M111.345 102.816V102.354M111.345 102.816L111.792 103.277H110.453L110.006 103.739V104.201L110.453 104.662V105.124H110.899M111.345 105.124H110.899M110.899 105.124V105.585M110.899 105.585H111.792L112.238 106.047" stroke="white"/>
<path d="M121.547 117.091V117.987L123.536 120.002L123.978 120.45V120.674V120.898L124.42 121.346L124.861 121.794V122.242L125.303 123.137V123.585L126.187 124.481H126.629V124.033L129.059 121.794L130.385 120.898H131.048L131.711 121.57L131.49 122.465L132.153 122.242L133.699 122.913L133.92 123.585L134.804 123.137L135.467 122.465V121.794L135.909 121.57V120.898H137.014L137.676 120.45H138.339L139.002 119.778L139.886 120.45V120.898L139.444 121.346V123.585L141.212 123.809L144.305 120.002H144.968L145.631 118.658L147.398 117.763L149.166 115.075V114.404L149.387 113.732L149.608 113.284V108.805L149.166 108.357V107.909L149.608 107.685V106.118L151.154 104.326L151.596 103.654L152.038 102.535L152.701 101.191L153.143 100.743L153.585 99.8473L155.352 98.9515L156.899 97.8318L157.341 96.2642L158.004 96.0403V92.6811L158.888 90.9243V85.515L159.329 84.1713L159.771 82.1558V81.7079L159.108 81.0361L159.771 80.1403V78.3488L161.539 75.4376L162.202 73.4221L162.865 72.9742V70.5108L162.644 70.0629L162.202 70.2869L161.76 69.839H160.876L160.434 70.2869H158.667L157.12 69.3911H155.352L154.027 70.2869L152.038 70.5108L150.933 71.1827L151.154 74.7657L150.491 75.8854L149.166 78.7967L148.724 79.2446V81.9319H148.282L147.84 81.484L145.631 80.1403H142.979L140.549 78.7967H137.235L136.351 79.2446H134.141L133.699 79.0206L132.374 81.0361V81.7079V82.8277H132.816V84.6192L132.374 85.0671H133.699V84.6192H134.141L134.804 84.1713H135.467L135.909 83.7234H137.456L138.118 84.1713L139.444 86.4107V88.6502L138.56 89.098H137.897L137.014 89.9938V93.129H136.572L136.13 94.0248L136.572 94.4727H137.235L138.118 95.3684L138.781 95.5924L139.886 96.2642L140.328 97.16L139.886 97.6078V98.5036L139.444 98.9515V99.3994L139.886 99.8473V102.535L139.444 102.759V103.43L139.886 103.878L138.56 105.222L138.339 107.237L137.235 108.805H136.793L136.351 107.461L135.909 106.566V106.118L135.467 106.566L135.025 107.685L134.141 108.357H133.699L133.258 107.909H131.711V106.342L129.722 104.326H129.28L128.839 104.55V107.013L128.397 107.237L127.955 107.909H125.303L124.861 107.461H123.978V110.149L123.757 110.373L124.42 110.82L124.861 111.492V111.94L124.42 112.388V112.836L125.745 113.956L125.966 114.404L125.303 115.075L125.745 115.299V115.971H125.303L125.082 116.419L123.978 115.747V115.075H123.094L122.652 115.747L121.547 117.091Z" fill="#CED3D9" stroke="white"/>
<path d="M57.5054 23.6635L57.735 22.3354L59.5713 22.5568L60.2599 22.7781H63.0144L62.3258 23.8849V26.541L63.4735 27.869L65.3098 28.9757L65.7689 32.5172L66.6871 34.0666V35.0899V47.7899L66.4575 49.118L67.6052 50.8887V52.4381L66.228 52.8808L64.6212 53.3235L63.9326 52.8808L62.7849 51.9954L61.4076 50.446L60.719 48.8966V47.7899L61.1781 47.1259V46.0192L60.719 45.1338V43.5844L61.4076 40.4856V38.4935L60.2599 37.6081L60.0304 36.5014L60.719 35.8374V32.7386L59.8008 31.8532L59.5713 30.5251L59.3417 30.3038V30.0825H59.8008V29.8611V27.4263L59.3417 26.541L57.9645 25.4343L57.5054 24.7702L57.2759 24.1062L57.5054 23.6635Z" fill="#CED3D9" stroke="white"/>
<path d="M68.1325 51.5294V53.3235H69.0631L69.5284 52.8749H72.3201L72.7854 52.4264H73.716V51.5294L74.1813 50.6323L73.716 49.511V47.2683H74.1813V44.3529L73.716 43.9044L73.9486 36.5037L74.4139 35.3823H75.5771L76.275 34.7095V32.4669L77.4383 30.8971L79.2994 29.1029V28.4302L79.0668 27.7574L78.8341 27.3088L79.2994 26.8603L80.23 26.4118L79.7647 22.5993L78.3688 20.8052V19.6839L78.8341 18.3383L78.1362 17.4412L76.973 16.9927V16.0956L75.1118 14.3015H74.1813L73.716 14.75L72.5528 14.9743L71.8548 16.0956L71.6222 18.7868L70.459 19.6839L68.8305 20.5809H67.8999L67.4346 20.1324H66.2714L63.7123 22.8236L63.0144 24.1691V26.636L63.945 27.9816L66.0388 29.1029L66.2714 32.9154L67.4346 35.1581V48.3897H67.202L66.9693 49.7352L68.1325 51.5294Z" fill="#CED3D9" stroke="white"/>
<path d="M42.5402 24.1208V23.0049H49.9797L52.6851 22.5586L55.6158 23.4513L56.2921 22.3354H57.4193L58.772 22.5586L58.3211 23.6744L58.0957 24.3439L58.3211 25.0134L58.772 25.6829L60.1246 26.7987L60.5755 27.6914V30.3694H60.1246V30.5925L60.3501 30.8157L60.5755 32.1547L61.4773 33.0474V36.1717L60.801 36.8412L61.0264 37.957L62.1536 39.0728V40.8581L61.4773 43.7593V45.5446L61.9282 46.4372V47.5531L61.4773 48.2226V49.3384L62.1536 50.9005L63.5063 52.4627L65.3098 53.8017L63.5063 55.8102L61.7027 56.0333L59.4483 56.2565L57.6448 57.5955L55.8412 58.4881L52.8179 59.604L50.8815 60.2735L49.7543 60.7198L47.9508 62.5051H46.3727L45.4709 61.8356L44.5691 61.1661H43.4419L42.991 60.7198H41.6384L42.3147 60.0503L43.2165 59.604L42.991 57.3723L42.5402 56.926L41.6384 56.4797L40.7366 53.5785L40.0603 50.231L40.7366 48.6689L41.6384 46.2141L42.5402 42.4203L42.991 42.1971L44.3437 40.635V39.9655V37.957L43.8928 36.618L43.4419 35.7253L42.991 35.0558V34.3863L43.4419 33.94V32.1547L42.991 31.9315V27.9146L42.0893 25.6829V25.2366V24.5671L42.5402 24.1208Z" fill="#0089FF"/>
<path d="M61.7027 56.0333L59.4483 56.2565L57.6448 57.5955L55.8412 58.4881L52.8179 59.604L50.8815 60.2735L49.7543 60.7198L47.9508 62.5051H46.3727L45.4709 61.8356L44.5691 61.1661H43.4419L42.991 60.7198H41.6384L42.3147 60.0503L43.2165 59.604L42.991 57.3723L42.5402 56.926L41.6384 56.4797L40.7366 53.5785L40.0603 50.231L40.7366 48.6689L41.6384 46.2141L42.5402 42.4203L42.991 42.1971L44.3437 40.635V39.9655V37.957L43.8928 36.618L43.4419 35.7253L42.991 35.0558V34.3863L43.4419 33.94V32.1547L42.991 31.9315V27.9146L42.0893 25.6829V25.2366V24.5671L42.5402 24.1208V23.0049H49.9797L52.6851 22.5586L55.6158 23.4513L56.2921 22.3354H57.4193L58.772 22.5586L58.3211 23.6744L58.0957 24.3439L58.3211 25.0134L58.772 25.6829L60.1246 26.7987L60.5755 27.6914V30.3694H60.1246V30.5925L60.3501 30.8157L60.5755 32.1547L61.4773 33.0474V36.1717L60.801 36.8412L61.0264 37.957L62.1536 39.0728V40.8581L61.4773 43.7593V45.5446L61.9282 46.4372V47.5531L61.4773 48.2226V49.3384L62.1536 50.9005L63.5063 52.4627L65.3098 53.8017L63.5063 55.8102L61.7027 56.0333ZM61.7027 56.0333L61.9282 54.9175L61.4773 54.248L60.1246 54.0249L59.6738 53.8017" stroke="white"/>
<path d="M14.6082 63.6912L15.2834 64.5785L13.9331 64.8003L12.5829 63.913L10.7826 63.4693L6.05672 60.5856L2.90616 57.48L-0.244402 54.1527L-1.3696 53.709L-2.26976 53.2654L-2.94488 52.8217V52.1562L-5.19528 51.0471L-6.09544 49.938L-6.99561 48.8289L-6.54553 47.4979L-4.07008 44.836H-3.39496L-2.04472 43.2832V41.5086L-0.244402 40.1777V38.8467H1.78096L2.006 38.4031H2.90616L4.2564 39.5122L4.70648 41.7305L4.48144 44.6142L4.2564 45.2797L5.60664 45.9451L6.05672 46.3888L6.73184 46.6106L7.632 46.167L8.53216 44.1705L8.7572 43.8397H9.20728L9.65736 44.3924L11.0076 47.0543L10.7826 48.3852L10.5575 49.4943L10.1074 50.3816L9.20728 50.8253V51.2689L9.65736 51.7126L10.5575 52.3781L12.1328 52.5999L13.258 53.2654L13.483 54.1527L15.0583 55.2618L15.9585 56.8146V58.3674L15.2834 60.5856L14.6082 62.3602V63.6912Z" fill="#CED3D9" stroke="white"/>
<path d="M266.037 64.5568H261.538L260.864 63.6526H259.964H252.766L251.192 64.3308L249.842 66.1393L250.517 67.2696V68.1738L251.642 69.0781L252.316 69.5302V71.7909L252.766 72.6951L253.216 73.1472V74.5036L253.891 74.9557L254.341 75.4079L255.016 76.3121V78.7988L255.465 79.7031V82.6419L255.016 83.094L254.116 85.3546L253.666 85.8068H253.216L252.766 86.2589V86.711L252.316 87.1631V88.0674L251.417 88.9716L250.067 91.0062L249.842 91.6844L250.067 93.4929L250.517 93.945V94.3972L250.967 94.8493H251.417H251.867L252.316 94.3972L252.766 93.945H254.116L255.016 94.8493L254.566 95.3014H252.991V96.2057H251.867L250.967 96.4317L250.292 96.8839V97.562L250.517 98.0142V99.3705L250.742 99.5966L258.389 105.022L261.313 106.831L266.262 109.769L269.411 111.578L270.76 112.934V114.291L270.311 114.517V115.195L271.21 116.099L271.66 116.777L272.785 117.908L275.259 119.716L275.484 120.168L277.058 121.073L278.408 122.429L278.633 122.881L279.308 123.333L279.758 122.881H280.207L280.657 122.429V121.977L281.107 121.525V121.073L281.557 120.62V120.168L282.007 119.264V118.812L282.457 118.36V117.003L282.906 116.551V115.647H283.356V114.743H283.806L284.706 113.613H284.931L285.156 113.16V112.03L284.706 111.352L284.931 110.9L285.606 109.769L287.405 109.543L288.305 108.413V107.961H288.98L289.204 107.735V107.057V106.605L289.429 106.039L290.104 106.152H290.554L291.904 104.796L292.353 104.344L292.803 103.666L289.204 98.0142V75.4079L289.429 74.9557L291.904 71.5648L293.703 67.7217H291.904L291.454 68.1738H290.779L290.554 67.7217H289.654V67.2696L288.305 65.9132H287.405L286.505 66.1393L285.381 66.8175L284.256 67.4957L283.356 68.3999L282.007 69.9824L281.332 71.3387L279.982 70.6605H277.283L276.609 69.9824H273.684L272.56 69.5302L267.611 65.4611L266.037 64.5568Z" fill="#CED3D9"/>
<path d="M288.305 65.9132H287.405L286.505 66.1393L285.381 66.8175L284.256 67.4957L283.356 68.3999L282.007 69.9824L281.332 71.3387L279.982 70.6605H277.283L276.609 69.9824H273.684L272.56 69.5302L267.611 65.4611L266.037 64.5568H261.538L260.864 63.6526H259.964H252.766L251.192 64.3308L249.842 66.1393L250.517 67.2696V68.1738L251.642 69.0781L252.316 69.5302V71.7909L252.766 72.6951L253.216 73.1472V74.5036L253.891 74.9557L254.341 75.4079L255.016 76.3121V78.7988L255.465 79.7031V82.6419L255.016 83.094L254.116 85.3546L253.666 85.8068H253.216L252.766 86.2589V86.711L252.316 87.1631V88.0674L251.417 88.9716L250.067 91.0062L249.842 91.6844M288.305 65.9132V65.4611M288.305 65.9132L289.654 67.2696V67.7217H290.554L290.779 68.1738H291.454L291.904 67.7217H293.703L291.904 71.5648L289.429 74.9557L289.204 75.4079V98.0142L292.803 103.666L292.353 104.344L291.904 104.796L290.554 106.152H290.104M288.53 105.926H288.755L289.429 106.039M290.104 106.152V106.605M290.104 106.152L289.429 106.039M289.429 106.039L289.204 106.605V107.057M289.204 107.057H289.654M289.204 107.057V107.735L288.98 107.961H288.305V108.413L287.405 109.543L285.606 109.769L284.931 110.9L284.706 111.352L285.156 112.03V113.16L284.931 113.613H284.706L283.806 114.743H283.356V115.647H282.906V116.551L282.457 117.003V118.36L282.007 118.812V119.264L281.557 120.168V120.62L281.107 121.073V121.525L280.657 121.977V122.429L280.207 122.881H279.758L279.308 123.333L278.633 122.881L278.408 122.429L277.058 121.073L275.484 120.168L275.259 119.716L272.785 117.908L271.66 116.777L271.21 116.099L270.311 115.195V114.517L270.76 114.291V112.934L269.411 111.578L266.262 109.769L261.313 106.831L258.389 105.022L250.742 99.5966L250.517 99.3705V98.0142L250.292 97.562V96.8839L250.967 96.4317L251.867 96.2057H252.991V95.3014H254.566L255.016 94.8493L254.116 93.945H252.766L252.316 94.3972L251.867 94.8493H251.417H250.967L250.517 94.3972V93.945L250.067 93.4929L249.842 91.6844M248.943 91.6844H249.842" stroke="white"/>
<path d="M251.666 88.5484L250.279 90.5623L249.816 91.2336H249.354L248.429 91.0098L247.504 91.2336L247.041 91.0098V90.3385L246.579 89.891H245.654V90.3385L245.422 90.7861L244.729 91.2336V91.6811H242.416V91.2336H242.185L241.953 91.6811L241.028 92.1287L240.566 92.5762L239.641 93.0237H238.716L238.253 93.4713V94.8139L237.791 95.7089L236.866 97.2753V97.9466L237.328 98.1703V99.2892H235.247L234.553 98.8416L232.472 98.6179L232.01 99.2892H229.928H229.235L227.847 100.856V101.527H226.691L225.997 101.079H224.841V97.0515L225.303 96.3802V93.2475L226.228 90.7861L227.153 89.4435V87.2058L229.697 84.9681L234.091 80.0453L234.553 78.9264L232.472 77.3601H231.778V72.4372L232.472 71.3184L232.01 69.9758L232.241 69.752L233.166 68.857L234.091 68.4094H234.785L235.478 69.3045H236.172L237.097 68.4094H237.791L238.485 69.3045L239.41 69.9758L240.566 69.3045L243.11 68.1857H245.191L246.81 68.857L250.047 65.948L250.741 67.0668V67.9619L251.897 68.857L252.591 69.3045V71.5422L253.054 72.4372L253.516 72.8848V73.7798V74.2274L254.21 74.6749L254.672 75.1224L255.366 76.0175V77.8076V78.4789L255.829 79.374V82.2829L255.366 82.7305L254.441 84.9681L253.979 85.4157H253.516L253.054 85.8632V86.3107L252.591 86.7583V87.6533L251.666 88.5484Z" fill="#CED3D9"/>
<path d="M255.366 77.8076V78.4789L255.829 79.374V82.2829L255.366 82.7305L254.441 84.9681L253.979 85.4157H253.516L253.054 85.8632V86.3107L252.591 86.7583V87.6533L251.666 88.5484L250.279 90.5623L249.816 91.2336H249.354L248.429 91.0098M255.366 77.8076H254.904M255.366 77.8076V76.0175L254.672 75.1224L254.21 74.6749L253.516 74.2274V73.7798M253.516 73.7798H253.979M253.516 73.7798V72.8848L253.054 72.4372L252.591 71.5422V69.3045L251.897 68.857L250.741 67.9619V67.0668L250.047 65.948L246.81 68.857L245.191 68.1857H243.11L240.566 69.3045L239.41 69.9758L238.485 69.3045L237.791 68.4094H237.097L236.172 69.3045H235.478L234.785 68.4094H234.091L233.166 68.857L232.241 69.752L232.01 69.9758L232.472 71.3184L231.778 72.4372V77.3601H232.472L234.553 78.9264L234.091 80.0453L229.697 84.9681L227.153 87.2058V89.4435L226.228 90.7861L225.303 93.2475V96.3802L224.841 97.0515V101.079H225.997L226.691 101.527H227.847V100.856L229.235 99.2892H229.928H232.01L232.472 98.6179L234.553 98.8416L235.247 99.2892H237.328V98.1703L236.866 97.9466V97.2753L237.791 95.7089L238.253 94.8139V93.4713L238.716 93.0237H239.641L240.566 92.5762L241.028 92.1287L241.953 91.6811L242.185 91.2336H242.416V91.6811H244.729V91.2336L245.422 90.7861L245.654 90.3385V89.891H246.579M246.579 89.891V89.4435V89.2197V89.891ZM246.579 89.891L247.041 90.3385V91.0098L247.504 91.2336L248.429 91.0098M248.429 90.3385V90.5623V91.0098" stroke="white"/>
<path d="M255.369 166.972L254.685 166.524L254.002 165.402L253.546 164.953L252.863 164.056L252.635 163.383V162.262L253.091 161.813V161.365L252.635 160.916V158.449L252.179 156.878L251.724 155.981H251.496L251.268 155.757L250.585 154.635L250.357 153.738H248.99V154.635L247.167 154.187H246.712L243.978 152.841H243.066L242.155 151.944H241.472L240.105 151.046L238.054 150.598L237.143 149.701H236.46L234.865 148.13H233.498L233.042 147.457V146.56L232.587 146.112L232.131 145.214L231.22 142.523L230.764 142.074V141.625L230.308 141.401V140.728V139.831L229.853 139.382V137.588L229.397 136.691V136.242L228.941 135.793L228.486 135.345V134.896L228.03 134.448L227.119 133.999H226.208L225.752 133.775L225.296 132.653L225.752 131.756L226.663 130.859V129.513L226.435 129.289L225.752 127.974V125.251L225.296 124.578L224.841 124.13V120.989L225.524 121.662L227.347 119.868L229.397 116.279V115.606L230.308 115.382L231.22 114.484L231.675 113.138V112.69L230.308 112.241L229.853 112.053V109.325L230.764 108.652H231.675L232.131 108.204V106.409L231.448 103.045L229.625 99.9044H231.903L232.359 99.2314L234.409 99.4558L235.093 99.9044H237.599L237.827 100.802L236.687 104.615L236.46 105.512L237.143 106.185L236.687 106.634V107.979L237.143 108.877V110.671H237.599L238.054 110.222L238.51 109.998V109.325L238.966 108.877L239.421 108.428L239.877 107.979H240.333V107.531L240.788 108.652L241.244 109.325H241.699V108.877H242.611L243.066 109.55V110.671L242.611 111.568V112.017H243.066L243.522 111.568L244.092 111.232L243.522 110.671V108.877L245.117 108.652L246.256 109.325L248.078 107.979L248.99 107.531V107.082L248.534 106.634H248.078L247.395 107.082H246.712L246.256 106.634L245.572 106.858L245.345 106.185L246.256 105.736H246.712V104.839L247.623 104.391L248.078 103.942V103.493L247.623 103.045L248.078 102.596H248.534L248.99 103.045H249.445L249.901 102.596L249.445 102.147L249.901 101.699L249.445 101.25V101.026L249.901 100.353L250.585 99.6801L258.786 105.288L263.57 108.204L269.494 111.568L270.861 112.914V114.26L270.405 114.484V115.157L271.316 116.054L271.772 116.727L272.911 117.849L274.506 118.97L275.417 119.643L275.645 120.092L277.24 120.989L278.607 122.335L278.834 122.784L279.518 123.232L278.607 125.7V126.821L277.24 129.962V133.102L278.151 134.448L279.518 135.569V135.793V136.242H279.974H280.429L280.885 136.915V137.139V138.485L280.429 138.934V139.382L279.974 139.831V140.28L279.518 141.177V141.625V142.523H279.974L280.429 142.971V143.644V144.541L279.974 145.439V145.663L279.518 146.112V147.457L279.974 147.906V148.803L280.429 149.252V150.598L281.34 151.495V152.617L281.568 155.084L282.252 156.654L282.707 156.878L283.619 157.776L284.758 158.224L285.669 159.57L284.758 160.916L283.619 161.813L281.34 162.71L278.607 164.28H277.012L274.278 165.851L272.228 164.505L271.544 164.729L269.266 167.645H267.215L266.076 166.748H265.165L263.57 168.094L262.659 167.869L262.203 167.645L260.153 166.524L259.925 165.626L257.191 167.196L255.369 166.972Z" fill="#CED3D9"/>
<path d="M279.518 142.971V142.523H279.974L280.429 142.971V143.644V144.541L279.974 145.439V145.663L279.518 146.112V147.457L279.974 147.906V148.803L280.429 149.252V150.598L281.34 151.495V152.617L281.568 155.084L282.252 156.654L282.707 156.878L283.619 157.776L284.758 158.224L285.669 159.57L284.758 160.916L283.619 161.813L281.34 162.71L278.607 164.28H277.012L274.278 165.851L272.228 164.505L271.544 164.729L269.266 167.645H267.215L266.076 166.748H265.165L263.57 168.094L262.659 167.869L262.203 167.645L260.153 166.524L259.925 165.626L257.191 167.196L255.369 166.972L254.685 166.524L254.002 165.402L253.546 164.953L252.863 164.056L252.635 163.383V162.262L253.091 161.813V161.365L252.635 160.916V158.449L252.179 156.878L251.724 155.981H251.496L251.268 155.757L250.585 154.635L250.357 153.738H248.99V154.635L247.167 154.187H246.712L243.978 152.841H243.066L242.155 151.944H241.472L240.105 151.046L238.054 150.598L237.143 149.701H236.46L234.865 148.13H233.498L233.042 147.457V146.56L232.587 146.112L232.131 145.214L231.22 142.523L230.764 142.074V141.625L230.308 141.401V140.728V139.831L229.853 139.382V137.588L229.397 136.691V136.242L228.941 135.793L228.486 135.345V134.896L228.03 134.448L227.119 133.999H226.208L225.752 133.775L225.296 132.653L225.752 131.756L226.663 130.859V129.513L226.435 129.289L225.752 127.974V125.251L225.296 124.578L224.841 124.13V120.989L225.524 121.662L227.347 119.868L229.397 116.279V115.606L230.308 115.382L231.22 114.484L231.675 113.138V112.69L230.308 112.241L229.853 112.053V109.325L230.764 108.652H231.675L232.131 108.204V106.409L231.448 103.045L229.625 99.9044H231.903L232.359 99.2314L234.409 99.4558L235.093 99.9044H237.599L237.827 100.802L236.687 104.615L236.46 105.512L237.143 106.185L236.687 106.634V107.979L237.143 108.877V110.671H237.599L238.054 110.222L238.51 109.998M279.518 142.971V143.196M279.518 142.971V141.625V141.177L279.974 140.28V139.831L280.429 139.382V138.934L280.885 138.485V137.139V136.915L280.429 136.242H279.974M279.974 136.242V136.915M279.974 136.242H279.518V135.793V135.569L278.151 134.448L277.24 133.102V129.962L278.607 126.821V125.7L279.518 123.232L278.834 122.784L278.607 122.335L277.24 120.989L275.645 120.092L275.417 119.643L274.506 118.97L272.911 117.849L271.772 116.727L271.316 116.054L270.405 115.157V114.484L270.861 114.26V112.914L269.494 111.568L263.57 108.204L258.786 105.288L250.585 99.6801L249.901 100.353L249.445 101.026V101.25L249.901 101.699L249.445 102.147L249.901 102.596L249.445 103.045H248.99L248.534 102.596H248.078L247.623 103.045L248.078 103.493V103.942L247.623 104.391L246.712 104.839V105.736H247.167H247.395H246.256L245.345 106.185L245.572 106.858L246.256 106.634L246.712 107.082H247.395L248.078 106.634H248.534L248.99 107.082V107.531L248.078 107.979L246.256 109.325L245.117 108.652L243.522 108.877V110.671L244.092 111.232M244.661 111.793L244.092 111.232M244.092 111.232L243.522 111.568L243.066 112.017H242.611V111.568L243.066 110.671V109.55L242.611 108.877H241.699V109.325H241.244L240.788 108.652L240.333 107.531M240.333 107.531V107.307M240.333 107.531V107.979H239.877L239.421 108.428L238.966 108.877M238.966 108.877L239.421 109.325V109.774M238.966 108.877L238.51 109.325V109.998M238.51 110.671V109.998" stroke="white"/>
<path d="M282.226 143.992V142.844L282.8 141.697H282.991H283.182L283.374 142.557L282.609 143.992H282.226Z" fill="#CED3D9" stroke="white"/>
<path d="M267.775 65.737L266.423 64.8216H261.694L259.667 62.0756L260.117 61.1602V59.5584L259.216 58.8719H257.415L255.838 56.5835L255.613 54.9816L255.162 54.2951L254.261 50.8626L252.46 48.8031L251.108 47.8877L249.532 45.1417L247.955 43.9975H247.28L245.703 43.7686L244.352 42.8533V41.4803L244.802 40.3361L245.478 39.1919L247.054 38.7342L247.955 39.1919H249.532L250.433 38.5054L250.658 34.1575H249.982V31.1826L250.658 29.8096V28.8943L251.108 27.5212L251.559 25.004L252.685 23.1733L253.361 23.4022L254.036 24.0887L254.712 22.7157L255.162 19.2831L255.838 16.9947L258.541 12.1892L259.442 11.5027L261.243 11.045V7.38359L262.369 6.46825L263.045 0.976163H265.973L267.099 0.060816L267.324 0.289653L268.676 2.12035L270.477 -1.76988L270.252 -2.91406L273.856 0.060816H275.883L277.009 -1.08337L278.135 0.060816H283.765L287.144 2.57802L289.621 5.78174L296.378 12.6468L295.927 13.5622L293 17.4524V21.5715L293.675 22.7157H294.351L297.279 21.5715L298.855 22.258H299.306L298.405 24.0887V26.1482L302.684 32.5556L306.738 35.7594L323.179 41.938H328.134L323.63 46.9724L319.35 52.2356L311.918 61.6179H305.387L302.459 62.9909L299.081 65.9658H296.153L294.351 68.0253H292.099L291.648 68.483H290.973L290.747 68.0253H289.846V67.5677L288.495 66.1946H287.594L286.693 66.4235L284.441 67.7965L283.54 68.7119L282.189 70.3137L281.513 71.6867L280.162 71.0002H277.459L276.784 70.3137H273.856L272.73 69.856L267.775 65.737Z" fill="#CED3D9"/>
<path d="M288.495 66.1947H287.594L286.693 66.4235L284.441 67.7965L283.54 68.7119L282.189 70.3137L281.513 71.6867L280.162 71.0002H277.459L276.784 70.3137H273.856L272.73 69.856L267.775 65.737L266.423 64.8216H261.694L259.667 62.0756L260.117 61.1602V59.5584L259.216 58.8719H257.415L255.838 56.5835L255.613 54.9816L255.162 54.2951L254.261 50.8626L252.46 48.8031L251.108 47.8877L249.532 45.1417L247.955 43.9975H247.28L245.703 43.7686L244.352 42.8533V41.4803L244.802 40.3361L245.478 39.1919L247.054 38.7342L247.955 39.1919H249.532L250.433 38.5054L250.658 34.1575H249.982V31.1826L250.658 29.8096V28.8943L251.108 27.5212L251.559 25.004L252.685 23.1733L253.361 23.4022L254.036 24.0887L254.712 22.7157L255.162 19.2831L255.838 16.9947L258.541 12.1892L259.442 11.5027L261.243 11.045V7.38359L262.369 6.46825L263.045 0.976163H265.973L267.099 0.060816L267.324 0.289653L268.676 2.12035L270.477 -1.76988L270.252 -2.91406L273.856 0.060816H275.883L277.009 -1.08337L278.135 0.060816H283.765L287.144 2.57802L289.621 5.78174L296.378 12.6468L295.927 13.5622L293 17.4524V21.5715L293.675 22.7157H294.351L297.279 21.5715L298.855 22.258H299.306L298.405 24.0887V26.1482L302.684 32.5556L306.738 35.7594L323.179 41.938H328.134L323.63 46.9724L319.35 52.2356L311.918 61.6179H305.387L302.459 62.9909L299.081 65.9658H296.153L294.351 68.0253H292.099L291.648 68.483H290.973L290.747 68.0253H289.846V67.5677L288.495 66.1947ZM288.495 66.1947V65.737" stroke="white"/>
<path d="M-10.6071 46.7143L-11.8925 46.0415L-11.6782 45.8172V45.1444L-12.1067 44.6959V44.0231H-12.9637L-13.3921 43.5746L-14.2491 42.6775L-14.4633 41.3319L-15.3203 40.8834L-15.963 39.9864L-15.8679 39.0893H-15.1061L-14.6776 38.865L-15.1061 38.1922L-15.963 37.968L-16.1772 37.2952L-15.3203 36.6224L-15.963 35.9496L-15.5345 35.5011H-15.8679L-15.963 34.604L-14.2491 34.8283L-12.5352 33.0342V32.3614L-12.1067 31.4643L-11.6782 30.5673L-9.53586 30.1187L-8.03619 29.4459L-5.67957 29.2217L-4.82262 29.6702L-3.10872 32.1371V32.8099L-2.25176 33.707V34.8283L-1.82329 35.5011L-1.39481 37.968L-1.82329 39.3136L-2.25176 39.5378V40.4349L-0.537859 39.0893H-0.109383V40.4349L-1.82329 41.7805V43.5746L-3.32296 45.1444H-3.75143L-6.10805 47.8356L-6.53653 48.7327L-7.82196 48.5084L-8.46467 48.2841L-8.89315 47.6113H-9.53586L-10.6071 46.7143Z" fill="white"/>
<path d="M-14.6776 35.5011H-15.5345M-15.5345 35.5011H-15.8679L-15.963 34.604L-14.2491 34.8283L-12.5352 33.0342V32.3614L-12.1067 31.4643L-11.6782 30.5673L-9.53586 30.1187L-8.0362 29.4459L-5.67958 29.2217L-4.82262 29.6702L-3.10872 32.1371V32.8099L-2.25176 33.707V34.8283L-1.82329 35.5011L-1.39481 37.968L-1.82329 39.3136L-2.25176 39.5378V40.4349L-0.537859 39.0893H-0.109382V40.4349L-1.82329 41.7805V43.5746L-3.32296 45.1444H-3.75143L-6.10805 47.8356L-6.53653 48.7327L-7.82196 48.5084L-8.46467 48.2841L-8.89315 47.6113H-9.53586L-10.6071 46.7143L-11.8925 46.0415L-11.6782 45.8172V45.1444M-15.5345 35.5011L-15.963 35.9496L-15.3203 36.6224L-16.1772 37.2952L-15.963 37.968L-15.1061 38.1922L-14.6776 38.865M-14.6776 38.865L-14.2491 38.1922V37.5195M-14.6776 38.865L-15.1061 39.0893M-15.1061 39.0893V39.5378M-15.1061 39.0893H-15.8679L-15.963 39.9864L-15.3203 40.8834L-14.4633 41.3319L-14.2491 42.6775L-13.3921 43.5746L-12.9637 44.0231H-12.1067M-12.1067 44.0231L-11.6782 43.5746M-12.1067 44.0231V44.6959L-11.6782 45.1444M-11.6782 45.1444L-11.2498 44.9202H-10.8213" stroke="white"/>
<path d="M6.33051 12.9063H5.88419V14.2565L5.43785 14.7066H4.5452V15.1567L3.8757 15.6067L2.75988 16.0568L2.31355 15.6067L1.86722 15.1567H1.42089L0.97456 14.7066H0.528229L0.305065 15.1567L-0.587595 15.6067L-1.25709 16.5069H-1.70342L-2.14975 15.8318V15.1567L-2.37291 14.7066H-3.7119L-3.93507 15.1567L-4.3814 15.6067V16.0568H-5.27406L-5.72038 15.6067V14.2565V13.8064H-6.16671L-8.1752 13.3563L-9.29102 13.8064H-11.969L-12.8617 13.3563L-13.308 12.9063H-14.647L-15.0933 12.0061H-18.2176V13.8064L-18.6639 14.2565H-19.1103L-19.7798 14.9316L-19.5566 15.6067L-18.6639 16.5069V17.4071L-19.1103 17.8571L-20.8956 18.3072H-21.7882L-22.6809 18.7573H-23.1272L-23.5736 19.2074H-24.0199L-24.9126 20.1075V21.0077L-25.3589 21.4578V21.9079V22.808H-24.9126L-24.2431 22.583L-24.4662 22.808V24.1583H-24.0199V25.9586H-23.5736V26.4087L-22.9041 27.3088L-22.2346 27.5339L-21.7882 27.984V28.434L-21.3419 28.6591L-20.8956 28.209L-20.6724 27.984L-20.4493 28.209V28.8841L-19.5566 29.5592H-19.1103L-18.6639 30.0093V30.4594L-18.4408 31.3596L-17.9944 31.8096L-17.7713 32.2597L-17.325 33.1599L-16.4323 33.61V34.06L-14.647 34.2851L-12.8617 32.4848V31.8096L-11.969 30.0093L-9.73735 29.5592L-8.1752 28.8841L-5.72038 28.6591L-4.60456 29.3342L-3.04241 31.5846V32.2597L-2.14975 33.1599V34.2851L-1.70342 34.9602L-1.25709 37.4356L-1.70342 38.7859L-2.14975 39.0109V39.9111L-0.364429 38.5608H0.751394H2.09038L2.31355 38.1108H3.20621L4.5452 39.236L4.99153 41.4864L4.76836 44.4119L4.5452 45.087L5.88419 45.7621L6.33051 46.2122L7.00001 46.4372L7.89267 45.9872L9.00849 43.5117H9.45482L9.90115 44.1868L10.1243 44.6369L11.6865 44.1868L12.1328 43.5117V42.3865L12.8023 41.2613L11.6865 39.9111V38.5608H13.4718L14.8108 39.461V38.5608L13.695 36.7605L13.4718 35.6353V34.9602H14.3644V34.5101L13.4718 33.835V32.7098H13.0255L12.1328 31.8096V29.3342L12.5791 28.209L13.0255 27.7589L13.2486 27.0838L12.5791 26.6337L12.1328 26.1836L11.6865 25.2835L11.2401 24.6083L11.017 24.3833L11.2401 24.1583H11.6865V23.0331L11.2401 22.3579H10.3475L9.90115 21.9079L9.45482 22.3579V21.4578L10.7938 20.1075L10.3475 19.6575L9.45482 18.7573L8.56216 18.0822V16.0568L8.11583 15.1567L7.6695 13.8064L7.22318 13.3563L6.33051 12.9063Z" fill="#CED3D9"/>
<path d="M9.45482 22.3579V21.4578L10.7938 20.1075L10.3475 19.6575L9.45482 18.7573L8.56216 18.0822V16.0568L8.11583 15.1567L7.6695 13.8064L7.22317 13.3563L6.33051 12.9063H5.88418V14.2565L5.43786 14.7066H4.5452V15.1567L3.8757 15.6067L2.75988 16.0568L2.31355 15.6067L1.86722 15.1567H1.42089L0.974559 14.7066H0.52823L0.305065 15.1567L-0.587594 15.6067L-1.25709 16.5069H-1.70342L-2.14975 15.8318V15.1567L-2.37291 14.7066H-3.7119L-3.93507 15.1567L-4.3814 15.6067V16.0568H-5.27406L-5.72038 15.6067V14.2565V13.8064H-6.16671L-8.1752 13.3563L-9.29102 13.8064H-11.969L-12.8617 13.3563L-13.308 12.9063H-14.647L-15.0933 12.0061H-18.2176V13.8064L-18.6639 14.2565H-19.1103L-19.7798 14.9316L-19.5566 15.6067L-18.6639 16.5069V17.4071L-19.1103 17.8571L-20.8956 18.3072H-21.7882L-22.6809 18.7573H-23.1272L-23.5736 19.2074H-24.0199L-24.9126 20.1075V21.0077L-25.3589 21.4578V21.9079V22.808H-24.9126L-24.2431 22.583M9.45482 22.3579L9.00849 22.808V23.0331M9.45482 22.3579L9.90115 21.9079L10.3475 22.3579H11.2401L11.6865 23.0331V24.1583H11.2401L11.017 24.3833L11.2401 24.6083L11.6865 25.2835L12.1328 26.1836L12.5791 26.6337L13.2486 27.0838L13.0255 27.7589L12.5791 28.209L12.1328 29.3342V31.8096L13.0255 32.7098H13.4718V33.835L14.3644 34.5101V34.9602H13.4718V35.6353L13.695 36.7605L14.8108 38.5608V39.461L13.4718 38.5608H11.6865V39.9111L12.8023 41.2613L12.1328 42.3865V43.5117L11.6865 44.1868L10.1243 44.6369L9.90115 44.1868L9.45482 43.5117H9.00849L7.89267 45.9872L7.00001 46.4372L6.33051 46.2122L5.88418 45.7621L4.5452 45.087L4.76836 44.4119L4.99153 41.4864L4.5452 39.236L3.20621 38.1108H2.31355L2.09038 38.5608H0.751395H-0.364429L-2.14975 39.9111V39.0109L-1.70342 38.7859L-1.25709 37.4356L-1.70342 34.9602L-2.14975 34.2851V33.1599L-3.04241 32.2597V31.5846L-4.60456 29.3342L-5.72038 28.6591L-8.1752 28.8841L-9.73735 29.5592L-11.969 30.0093L-12.8617 31.8096V32.4848L-14.647 34.2851L-16.4323 34.06V33.61L-17.325 33.1599L-17.7713 32.2597L-17.9944 31.8096L-18.4408 31.3596L-18.6639 30.4594V30.0093L-19.1103 29.5592M-19.1103 29.5592L-18.6639 29.1092L-18.4408 28.8841L-19.1103 29.5592ZM-19.1103 29.5592H-19.5566L-20.4493 28.8841V28.209L-20.6724 27.984L-20.8956 28.209L-21.3419 28.6591L-21.7882 28.434V27.984L-22.2346 27.5339L-22.9041 27.3088L-23.5736 26.4087V25.9586H-24.0199V24.1583M-24.0199 24.1583H-23.5736L-23.1272 23.2581M-24.0199 24.1583H-24.4662V22.808L-24.2431 22.583M-23.7967 21.9079L-24.0199 22.3579L-24.2431 22.583" stroke="white"/>
<path d="M36.3921 -64.9229L33.4666 -67.1855L33.0165 -66.9593H24.0149L23.5648 -66.5067V-64.6966L24.0149 -64.4703V-60.85L24.465 -59.9449V-55.8721L24.9151 -54.967V-50.6679L25.3652 -49.3103V-44.7849L25.8152 -44.1061V-38.6756L26.0403 -37.318L26.2653 -32.1138V-31.6612L26.7154 -25.3257L27.6156 -14.0122V-12.8809L28.0656 -12.202L28.9658 -11.297V-9.48681L28.5157 -8.58173V-7.22411L28.0656 -6.31903V-5.8665H18.694L18.1639 -6.31903H16.3636L15.6884 -5.8665H10.0624V-5.41396H9.16228L8.71219 -5.8665H7.58699L6.46179 -6.77158L5.11155 -5.41396H4.66147V-4.96142H2.63611L1.06083 -5.8665H-0.289411L-1.18957 -4.96142L-2.08973 -4.05634V-3.6038L-2.53981 -4.05634V-4.50888L-2.98989 -4.96142L-3.89005 -5.41396V-5.64023L-4.56517 -6.31903L-5.24029 -6.77158H-6.14045L-6.59053 -6.09277V-5.64023L-7.49069 -1.56738L-9.29102 -1.11484V0.242783V1.14786L-8.39086 2.27921V4.99445L-8.84094 5.44698V5.89952L-8.39086 6.35206L-7.94077 7.25714L-7.26565 7.70968H-6.36549L-5.69037 8.61475V9.06729L-5.24029 9.7461V11.1037V14.1055V15.8554L-4.79021 16.3079H-3.89005V15.8554L-3.43997 15.4028L-3.21493 14.9503H-1.86469L-1.63965 15.4028V16.0816L-1.18957 16.7605H-0.739491L-0.0643702 15.8554L0.83579 15.4028L1.06083 14.9503H1.51091L1.96099 15.4028H2.41107L3.31123 16.3079L4.43643 15.8554L5.11155 15.4028V14.9503H6.01171L6.46179 14.4978V13.1401H6.91187L7.81203 13.5927L8.26211 14.0452L8.71219 15.4028L9.16228 16.3079V18.3443L10.0624 19.0232L11.4127 20.3808L10.0624 21.7384L10.5125 22.1909L10.9626 22.6435H11.6377H11.8628L12.3128 23.3223V24.4536H11.8628L11.6377 24.6799L12.0878 25.1324L12.7629 26.4901L13.8881 27.3951L14.1132 27.8477L15.0133 27.1689V26.7163L15.9135 26.4901H16.5886L17.9388 28.0739H19.2891L19.5141 27.1689L21.0894 26.9426V25.1324L21.3144 24.9062L21.9896 25.8112H22.6647L22.8897 24.9062L23.5648 24.6799V27.6214H24.9151L25.8152 26.7163L26.7154 26.2638L27.6156 26.4901V25.3587L28.0656 24.4536V23.7748L27.6156 23.3223V22.6435L28.0656 22.1909L28.5157 21.7384L28.9658 21.2859L29.4159 20.3808V19.2494L28.9658 19.0232V18.1181V17.6655V17.213L29.4159 16.7605H30.316L30.7661 16.3079H32.1164L33.4666 14.9503V14.4978L33.9167 13.5927V12.6876L33.4666 12.2351V11.7825H34.3668L34.8168 11.33L35.2669 10.8774V10.4249L34.8168 9.97237V9.06729L35.2669 8.16222L35.9421 7.25714L36.1671 7.03087L36.3921 7.25714L36.8422 7.48341L37.5173 8.16222H37.9674L38.8676 8.61475H39.3176L39.7677 8.16222H40.2178V6.57833L40.6679 5.44698H41.343L41.5681 5.89952H42.0181L42.4682 5.44698V4.99445L42.9183 4.31564V3.63683L43.3684 3.18429L43.5934 2.73174L44.2685 1.82667H45.6188L46.5189 2.73174L46.969 2.27921L47.4191 1.82667V1.37413L48.3193 0.921593L48.7693 0.469048L50.3446 -0.436028L51.9199 -1.3411L52.8201 -1.79365L53.4952 -2.47245L53.9453 -2.925L54.6204 -3.15126L55.0705 -3.37753H55.7456L56.1957 -3.15126H58.6711L59.1212 -2.69872H64.0721L65.4223 -4.05634L66.3225 -4.50888H69.6981L69.9231 -4.96142L70.3732 -5.18769L70.8233 -4.96142H74.874L75.3241 -5.41396H75.7741L75.9992 -5.64023H76.4493L76.8994 -5.41396H77.1244L77.3494 -5.18769H77.7995L78.4746 -5.41396V-5.8665L80.275 -7.67665L80.725 -8.58173L81.6252 -10.8444V-11.297L82.0753 -11.7495V-15.4088L82.5254 -16.0486V-21.2528V-29.7657L81.8502 -29.6248L80.0499 -28.7197H77.5745L76.8993 -29.1723V-30.5299L77.3494 -31.435V-32.7926L76.8993 -34.1502L76.2242 -34.6027L75.3241 -35.0553H73.7488L71.4984 -37.0917L70.5982 -36.4129H70.1481L69.248 -37.318L68.7979 -38.223L67.8977 -39.1281L66.9976 -39.3544L66.0974 -40.0332V-41.8434L65.1973 -42.7484L58.8961 -47.5001L53.4952 -51.7992L48.7693 -55.4195L39.9928 -62.2076L36.3921 -64.9229Z" fill="#CED3D9"/>
<path d="M28.9658 17.6655V18.1181V19.0232L29.4159 19.2494V20.3808L28.9658 21.2859L28.5157 21.7384L28.0656 22.1909L27.6156 22.6435V23.3223L28.0656 23.7748V24.4536L27.6156 25.3587V26.4901L26.7154 26.2638L25.8152 26.7163L24.9151 27.6214H23.5648V24.6799L22.8897 24.9062L22.6647 25.8112H21.9896L21.3144 24.9062L21.0894 25.1324V26.9426L19.5141 27.1689L19.2891 28.0739H17.9388L16.5886 26.4901H15.9135L15.0133 26.7163V27.1689L14.1132 27.8477L13.8881 27.3951L12.7629 26.4901L12.0878 25.1324L11.6377 24.6799L11.8628 24.4536H12.3128V23.3223L11.8628 22.6435H11.6377H10.9626L10.5125 22.1909L10.0624 21.7384L11.4127 20.3808L10.0624 19.0232L9.16227 18.3443V16.3079L8.71219 15.4028L8.26211 14.0452L7.81203 13.5927L6.91187 13.1401H6.46179V14.4978L6.01171 14.9503H5.11155V15.4028L4.43643 15.8554L3.31123 16.3079L2.41107 15.4028H1.96099L1.51091 14.9503H1.06083L0.83579 15.4028L-0.0643706 15.8554L-0.739491 16.7605H-1.18957L-1.63965 16.0817V15.4028L-1.86469 14.9503H-3.21493L-3.43997 15.4028L-3.89005 15.8554V16.3079H-4.79021L-5.24029 15.8554V14.1055V11.1037V9.7461L-5.69037 9.06729V8.61476L-6.36549 7.70968H-7.26565L-7.94077 7.25714L-8.39086 6.35206L-8.84094 5.89952V5.44698L-8.39086 4.99444V2.27921L-9.29102 1.14786V0.242781V-1.11484L-7.49069 -1.56738L-6.59053 -5.64023V-6.09277L-6.14045 -6.77157H-5.24029L-4.56517 -6.31904L-3.89005 -5.64023V-5.41396L-2.98989 -4.96142L-2.53981 -4.50888V-4.05634L-2.08973 -3.6038V-4.05634L-1.18957 -4.96142L-0.289411 -5.8665H1.06083L2.63611 -4.96142H4.66147V-5.41396H5.11155L6.46179 -6.77157L7.58699 -5.8665H8.71219L9.16227 -5.41396H10.0624V-5.8665H15.6884L16.3636 -6.31904H18.1639L18.694 -5.8665H28.0656V-6.31904L28.5157 -7.22411V-8.58173L28.9658 -9.48681V-11.297L28.0656 -12.202L27.6156 -12.8809V-14.0122L26.7154 -25.3257L26.2653 -31.6612V-32.1138L26.0403 -37.318L25.8152 -38.6756V-44.1061L25.3652 -44.7849V-49.3103L24.9151 -50.6679V-54.967L24.465 -55.8721V-59.9449L24.0149 -60.85V-64.4703L23.5648 -64.6966V-66.5067L24.0149 -66.9593H33.0165L33.4666 -67.1855L36.3921 -64.9229L39.9928 -62.2076L48.7693 -55.4195L53.4952 -51.7992L58.8961 -47.5001L65.1973 -42.7484L66.0974 -41.8434V-40.0332L66.9976 -39.3544L67.8977 -39.1281L68.7979 -38.223L69.248 -37.318L70.1481 -36.4129H70.5982L71.4984 -37.0917L73.7488 -35.0553H75.3241L76.2242 -34.6027L76.8993 -34.1502L77.3494 -32.7926V-31.435L76.8993 -30.5299V-29.1723L77.5745 -28.7197H80.0499L81.8502 -29.6248L82.5254 -29.7657V-21.2528V-16.0486L82.0753 -15.4088V-11.7495L81.6252 -11.297V-10.8444L80.725 -8.58173L80.275 -7.67665L78.4746 -5.8665V-5.41396L77.7995 -5.18769H77.3494L77.1244 -5.41396H76.8994L76.4493 -5.64023H75.9992L75.7742 -5.41396H75.3241L74.874 -4.96142H70.8233L70.3732 -5.18769L69.9231 -4.96142L69.6981 -4.50888H66.3225L65.4223 -4.05634L64.0721 -2.69872H59.1212L58.6711 -3.15126H56.1957L55.7456 -3.37753H55.0705L54.6204 -3.15126L53.9453 -2.92499L53.4952 -2.47245L52.8201 -1.79364L51.9199 -1.34111L50.3446 -0.436027L48.7693 0.469051L48.3193 0.92159L47.4191 1.37413V1.82667L46.969 2.27921L46.5189 2.73175L45.6188 1.82667H44.2685L43.5934 2.73175L43.3684 3.18429L42.9183 3.63682V4.31563L42.4682 4.99444V5.44698L42.0181 5.89952H41.5681L41.343 5.44698H40.6679L40.2178 6.57833V8.16222H39.7677L39.3177 8.61476H38.8676L37.9674 8.16222H37.5173L36.8422 7.48341L36.3921 7.25714L36.1671 7.03087M28.9658 17.6655H28.5157H28.2907H28.9658ZM28.9658 17.6655V17.213L29.4159 16.7605H30.316L30.7661 16.3079H32.1164L33.4666 14.9503V14.4978L33.9167 13.5927V12.6876L33.4666 12.2351V11.7825H34.3668L34.8168 11.33L35.2669 10.8775V10.4249L34.8168 9.97237V9.06729L35.2669 8.16222L35.942 7.25714L36.1671 7.03087M36.1671 7.03087V6.8046" stroke="white"/>
<path d="M89.8642 -31.9228L89.1809 -31.4692L82.3479 -30.2322V-27.1602V-23.9851V-21.0145V-16.501L81.8924 -15.7919V-14.6866V-12.1919L81.4368 -11.7384V-11.2848L80.5258 -9.01685L80.0702 -8.10968L78.9314 -6.97572L78.2481 -6.29535V-5.84176L77.5648 -5.61497H77.1093L76.8815 -5.84176H76.6537L76.1982 -6.06855H75.7427L75.5149 -5.84176H75.0594L74.6039 -5.38818H73.465H70.5041L70.0485 -5.61497L69.593 -5.38818L69.3652 -4.93459H66.4043H65.9487L65.0377 -4.48101L63.6711 -3.12026H59.5713V0.0548286L60.0268 0.961998V1.86916L60.4824 2.32275V3.22992L61.3934 4.13708L61.849 5.04425L62.3045 5.49783L63.2155 5.95142H63.6711L64.1266 6.40501L63.6711 7.31217H64.1266V6.85859H64.5821L65.2654 7.31217L64.8099 7.76575H63.6711V8.67292L64.1266 9.1265V9.35329L64.5821 10.0337L66.4043 11.848H68.4542L68.9097 11.3944H69.8208L70.2763 11.848L70.5041 12.3016L70.9596 13.2088L70.0485 13.6623V14.5695L70.9596 15.4767H71.4151L72.0984 14.3427L73.2373 14.1159L73.6928 13.6623H74.6039L76.426 15.4767V16.3839L77.5648 16.8374L78.2481 17.7446H78.4759L78.7036 17.291V13.2088L80.7535 10.4873L81.4368 8.44613V7.08538L83.259 5.49783L84.6256 4.59067H87.5865L88.7254 3.91029L90.3197 4.13708L93.7362 5.49783L95.1028 6.17821L95.7861 7.53896L97.3805 9.58009H98.0638L102.391 7.53896H103.302L105.125 8.67292L107.63 9.80688L108.769 10.4873H111.046L111.502 10.9408H112.413L112.869 10.4873L113.324 9.58009L114.691 8.21934L115.602 7.99255L116.968 7.31217H119.018L120.157 6.85859L120.84 7.31217H123.346L126.307 8.67292L128.584 8.89971L129.04 8.21934L133.368 5.04425H134.506L135.417 5.27104L134.962 4.59067L134.279 0.508411L136.328 -2.21309L137.24 -5.38818L140.656 -9.69722L143.617 -13.0991L144.984 -15.8206L145.667 -20.3564L146.578 -34.4175L147.945 -36.9123V-38.273L145.667 -40.0873V-42.3553L143.845 -44.85L143.617 -46.8911L142.706 -53.2413L142.407 -54.7173L140.884 -54.1484L139.062 -52.3341L137.012 -53.6949L136.101 -54.602L132.456 -56.8699L130.634 -57.3235H130.407L128.129 -57.7771L125.851 -58.0039L124.485 -57.3235L122.663 -56.1896L119.474 -54.1484L116.741 -52.1073L109.224 -47.3447L107.402 -45.9839L105.352 -43.9428L104.441 -44.1696L103.302 -42.8088H102.619L101.708 -41.6749L98.9748 -39.6338L91.6863 -32.3764L90.7752 -31.9228H90.5475H89.8642Z" fill="#CED3D9"/>
<path d="M142.706 -54.8288L142.407 -54.7173M142.407 -54.7173L140.884 -54.1484L139.062 -52.3341L137.012 -53.6949L136.101 -54.602L132.456 -56.8699L130.634 -57.3235H130.407L128.129 -57.7771L125.851 -58.0039L124.485 -57.3235L122.663 -56.1896L119.474 -54.1484L116.741 -52.1073L109.224 -47.3447L107.402 -45.9839L105.352 -43.9428L104.441 -44.1696L103.302 -42.8088H102.619L101.708 -41.6749L98.9748 -39.6338L91.6863 -32.3764L90.7752 -31.9228H90.5475H89.8642L89.1809 -31.4693L82.3479 -30.2322V-27.1602V-23.9851V-21.0145V-16.501L81.8924 -15.7918V-14.6866V-12.1919L81.4368 -11.7384V-11.2848L80.5258 -9.01685L80.0702 -8.10968L78.9314 -6.97572L78.2481 -6.29535V-5.84176L77.5648 -5.61497H77.1093L76.8815 -5.84176H76.6537L76.1982 -6.06855H75.7427L75.5149 -5.84176H75.0594L74.6039 -5.38818H73.465H70.5041L70.0485 -5.61497L69.593 -5.38818L69.3652 -4.93459H66.4043H65.9487L65.0377 -4.48101L63.6711 -3.12026H59.5713V0.0548286L60.0268 0.961996V1.86916L60.4824 2.32275V3.22992L61.3934 4.13708L61.849 5.04425L62.3045 5.49784L63.2155 5.95142H63.6711L64.1266 6.405L63.6711 7.31217H64.1266V6.85859H64.5821L65.2654 7.31217L64.8099 7.76575H63.6711V8.67292L64.1266 9.12651V9.3533L64.5821 10.0337L66.4043 11.848H68.4542L68.9097 11.3944H69.8208L70.2763 11.848L70.5041 12.3016L70.9596 13.2088L70.0485 13.6623V14.5695L70.9596 15.4767H71.4151L72.0984 14.3427L73.2373 14.1159L73.6928 13.6623H74.6039L76.426 15.4767V16.3838L77.5648 16.8374L78.2481 17.7446H78.4759L78.7036 17.291V13.2088L80.7535 10.4873L81.4368 8.44613V7.08538L83.259 5.49784L84.6256 4.59067H87.5865L88.7254 3.91029L90.3197 4.13708L93.7362 5.49784L95.1028 6.17821L95.7861 7.53896L97.3805 9.58009H98.0638L102.391 7.53896H103.302L105.125 8.67292L107.63 9.80688L108.769 10.4873H111.046L111.502 10.9408H112.413L112.869 10.4873L113.324 9.58009L114.691 8.21934L115.602 7.99255L116.968 7.31217H119.018L120.157 6.85859L120.84 7.31217H123.346L126.307 8.67292L128.584 8.89971L129.04 8.21934L133.368 5.04425H134.506L135.417 5.27104L134.962 4.59067L134.279 0.508413L136.328 -2.21309L137.24 -5.38818L140.656 -9.69722L143.617 -13.0991L144.984 -15.8206L145.667 -20.3564L146.578 -34.4175L147.945 -36.9123V-38.273L145.667 -40.0873V-42.3553L143.845 -44.85L143.617 -46.8911L142.706 -53.2413L142.407 -54.7173Z" stroke="white"/>
<path d="M43.0914 31.5312V32.6648L41.7495 31.5312V31.3045L41.3022 30.6244V29.9443L40.4076 29.2642H36.3818L35.9344 29.7176H35.2635L34.1452 30.8511L33.6979 31.0778L32.1323 30.6244L31.2377 30.171L30.5667 29.2642L29.8958 27.4505L28.5538 26.5437L27.6592 26.317L27.4355 25.8636V24.73L27.8829 23.8232V23.1431L27.4355 22.6897V22.0095L28.7775 20.6493L29.2248 19.7425V18.6089L28.7775 18.3822V16.5686L29.2248 16.1152H30.1194L30.5667 15.6617H31.9087L33.2506 14.3015V13.8481L33.6979 12.9413V12.0344L33.2506 11.581V11.1276H34.1452L35.0398 10.2208V9.76736L34.5925 9.31395V8.40712L35.0398 7.50029L35.7108 6.59347H35.9344H36.1581L36.6054 6.82017L37.2764 7.50029H37.7237L38.6183 7.95371H39.0656L39.5129 7.50029H39.9602V5.91334L40.4076 4.77981H41.0785L41.3022 5.23322H41.7495L42.1968 4.77981V4.3264L42.6441 3.64627V2.96615L43.0914 2.51274L43.3151 2.05932L43.986 1.1525H45.328L46.2226 2.05932L47.1172 1.1525V0.699081L48.0118 0.245667L48.4591 -0.207747L52.4849 -2.47482L53.6032 -3.60835L54.2742 -3.83506L54.7215 -4.06177H55.1688L55.6161 -3.83506H58.3L58.7473 -3.38165H59.6419V-3.15494V-0.207747L60.0892 0.699081V1.60591L60.5365 2.05932V2.96615L61.4311 3.87298L61.8785 4.77981L62.3258 5.23322L63.2204 5.68664H63.6677L64.115 6.14005L63.6677 7.04688V7.50029V8.40712L64.115 8.86054V9.08724L64.5623 9.76736L66.3516 11.581H68.3645L68.8118 11.1276H69.7064L70.1537 11.581L70.8247 12.9413L69.93 13.3947V14.3015L71.0483 15.435V17.9288L69.93 18.8356L68.3645 19.7425H67.4698L67.0225 19.2891H65.9043L63.2204 22.2363H60.5365L59.8656 22.0095L58.3 21.7828L56.958 21.5561H55.8398L55.1688 22.6897L52.2613 21.7828L49.5033 22.2363H42.1968V23.3698L41.7495 23.8232V24.9567L42.6441 27.2238V31.3045L43.0914 31.5312Z" fill="#CED3D9" stroke="white"/>
</g>
</g>
<defs>
<clipPath id="clip0_30_2964">
<rect width="345" height="245" fill="white" transform="translate(-0.470703 1)"/>
</clipPath>
</defs>
</svg>
