<svg width="50" height="50" viewBox="0 0 50 50" fill="none" xmlns="http://www.w3.org/2000/svg">
<g clip-path="url(#clip0_16_3854)">
<path d="M25 50C38.8071 50 50 38.8071 50 25C50 11.1929 38.8071 0 25 0C11.1929 0 0 11.1929 0 25C0 38.8071 11.1929 50 25 50Z" fill="#F4F5F7"/>
<path d="M47.6071 14.3167C46.3369 11.6337 44.6034 9.21346 42.5097 7.15829L24.9999 5.43475L7.49016 7.15839C7.4343 7.21317 7.37981 7.26923 7.32454 7.3246L14.3167 14.3168L24.9999 14.6431L47.6071 14.3167Z" fill="#FFDA44"/>
<path d="M7.32431 42.6757C7.4163 42.7676 7.5081 42.8597 7.60146 42.9504L25 44.5652L42.3983 42.9504C44.5137 40.8996 46.2683 38.4792 47.5563 35.792L15.2173 34.7826C12.4348 37.5652 9.22538 40.7744 7.32431 42.6757Z" fill="#FFDA44"/>
<path d="M49.7514 21.4751L20.6521 20.6522L25 25C23.7122 26.2878 21.7897 28.2103 20.6521 29.3479L49.7361 28.6336C49.909 27.4472 50 26.2343 50 25C50 23.8033 49.9141 22.627 49.7514 21.4751Z" fill="black"/>
<path d="M25 0C18.1809 0 12.0006 2.73145 7.49023 7.1584H42.5097C37.9994 2.73145 31.8191 0 25 0Z" fill="#6DA544"/>
<path d="M21.4751 21.4751H49.7514C49.3946 18.9479 48.6606 16.5422 47.6071 14.3167H14.3167L21.4751 21.4751Z" fill="#D80027"/>
<path d="M14.208 35.792H47.5565C48.6223 33.5682 49.368 31.1622 49.7363 28.6336H21.3664C18.5942 31.4058 16.2448 33.7552 14.208 35.792Z" fill="#D80027"/>
<path d="M25 50C31.7632 50 37.8979 47.3133 42.3983 42.9503H7.60165C12.102 47.3133 18.2368 50 25 50Z" fill="#6DA544"/>
<path d="M8.92725 5.85294C8.37148 6.31993 7.83525 6.80948 7.32227 7.32227L25 25L7.32227 42.6778C7.83516 43.1906 8.37148 43.6801 8.92725 44.1471L28.0743 25L8.92725 5.85294Z" fill="black"/>
<path d="M10.0513 18.4782L11.6699 23.4602H16.9087L12.6706 26.5395L14.2894 31.5218L10.0513 28.4426L5.81309 31.5218L7.43203 26.5395L3.19405 23.4602H8.43252L10.0513 18.4782Z" fill="#D80027"/>
<path d="M14.5038 25.4076L10.2853 23.9131C10.2853 23.9131 9.97353 20.989 9.95468 20.8899C9.81152 20.1357 9.14873 19.5652 8.35283 19.5652C7.45244 19.5652 6.72236 20.2952 6.72236 21.1957C6.72236 21.345 6.74414 21.4889 6.78174 21.6264L5.59892 22.8171H7.70205C7.70205 25 6.07314 25 6.07314 27.1739L6.97675 29.3479H12.4115L13.3174 27.1739H13.317C13.4077 26.9653 13.4628 26.7502 13.4855 26.5353C14.2664 26.2194 14.5038 25.4076 14.5038 25.4076Z" fill="#FFDA44"/>
</g>
<defs>
<clipPath id="clip0_16_3854">
<rect width="50" height="50" fill="white"/>
</clipPath>
</defs>
</svg>
